<?xml version="1.0" standalone="no"?>
<!DOCTYPE svg PUBLIC "-//W3C//DTD SVG 20010904//EN"
 "http://www.w3.org/TR/2001/REC-SVG-20010904/DTD/svg10.dtd">
<svg version="1.0" xmlns="http://www.w3.org/2000/svg"
 width="1000.000000pt" height="1000.000000pt" viewBox="0 0 1000.000000 1000.000000"
 preserveAspectRatio="xMidYMid meet">
<metadata>
Created by potrace 1.14, written by Peter Selinger 2001-2017
</metadata>
<g transform="translate(0.000000,1000.000000) scale(0.100000,-0.100000)"
fill="#000000" stroke="none">
<path d="M4660 9989 c-1543 -104 -2966 -931 -3824 -2223 -1317 -1981 -1053
-4618 629 -6301 1137 -1136 2747 -1656 4335 -1399 156 25 337 62 442 91 l58
16 -61 65 c-333 355 -548 807 -626 1312 -24 160 -24 510 0 670 58 375 181 699
382 1000 385 579 971 949 1675 1057 160 24 510 24 670 0 524 -81 977 -303
1347 -660 l92 -89 21 71 c300 1007 259 2147 -114 3143 -777 2078 -2816 3395
-5026 3247z"/>
<path d="M7796 3560 c-728 -92 -1291 -611 -1443 -1329 -24 -112 -27 -148 -27
-326 0 -178 3 -214 27 -326 141 -670 636 -1165 1306 -1306 112 -24 148 -27
326 -27 178 0 214 3 326 27 670 141 1165 636 1306 1306 24 112 27 148 27 326
0 178 -3 214 -27 326 -141 668 -639 1167 -1301 1305 -135 28 -395 40 -520 24z"/>
</g>
</svg>
