<svg width="48" height="48" viewBox="0 0 48 48" fill="none" xmlns="http://www.w3.org/2000/svg">
<path d="M15.5506 17.1916L17.3514 20.3928C17.7406 21.0848 17.9352 21.4307 18.2289 21.4296C18.5227 21.4284 18.7145 21.081 19.0983 20.386L23.8784 11.7303C23.9266 11.643 24.045 11.6263 24.1155 11.6968C24.125 11.7063 24.1333 11.7171 24.1399 11.7289L43.9329 46.6758C43.9663 46.7349 43.983 46.7644 44.0035 46.7913C44.024 46.8182 44.0479 46.8422 44.0959 46.8901L44.4641 47.2583C44.5421 47.3363 44.5811 47.3754 44.6273 47.4048C44.6735 47.4342 44.7253 47.4531 44.829 47.4908L45.076 47.5807L45.0761 47.5808C45.1587 47.6109 45.2 47.6259 45.2431 47.6335C45.2861 47.6411 45.3301 47.6411 45.4181 47.6411H46.2598C46.7312 47.6411 46.9669 47.6411 47.1133 47.4946C47.2598 47.3482 47.2598 47.1125 47.2598 46.6411V2C47.2598 1.5286 47.2598 1.29289 47.1133 1.14645C46.9669 1 46.7312 1 46.2598 1H45.1238C45.0278 1 44.9798 1 44.933 1.00902C44.8861 1.01804 44.8416 1.03587 44.7524 1.07152L44.3457 1.23424C44.2507 1.27222 44.2032 1.29121 44.1608 1.31917C44.1184 1.34713 44.0823 1.38328 44.01 1.45559L44.0099 1.45561L43.7837 1.68188C43.7366 1.72896 43.713 1.75249 43.6929 1.77886C43.6727 1.80522 43.6562 1.83411 43.6231 1.89187L35.2666 16.4778C35.218 16.5626 35.1937 16.605 35.1781 16.6507C35.1709 16.6721 35.165 16.694 35.1607 16.7161C35.1515 16.7635 35.1515 16.8124 35.1515 16.9101C35.1515 17.009 35.1515 17.0585 35.1609 17.1064C35.1653 17.1288 35.1713 17.1509 35.1787 17.1725C35.1946 17.2186 35.2194 17.2614 35.2691 17.3469L37.0634 20.4371C37.4548 21.1112 37.6505 21.4483 37.9413 21.4457C38.232 21.4432 38.4219 21.1028 38.8016 20.422L40.5741 17.2436C41.3241 15.8987 41.6991 15.2263 42.0733 15.3236C42.4475 15.4209 42.4475 16.1908 42.4475 17.7306V29.9334C42.4475 31.4644 42.4475 32.2299 42.0741 32.3276C41.7007 32.4253 41.3257 31.758 40.5757 30.4232L24.9988 2.70158C24.6138 2.01636 24.4212 1.67376 24.1291 1.67334C23.837 1.67292 23.6436 2.01498 23.2566 2.6991L15.5517 16.3202L15.5517 16.3203C15.5019 16.4083 15.477 16.4523 15.4615 16.4998C15.4554 16.5183 15.4505 16.5371 15.4466 16.5561C15.4368 16.6051 15.4368 16.6557 15.4368 16.7568C15.4368 16.8575 15.4368 16.9078 15.4466 16.9566C15.4504 16.9755 15.4553 16.9943 15.4612 17.0127C15.4766 17.0599 15.5013 17.1038 15.5506 17.1916Z" fill="#0D005B" stroke="#0D005B" stroke-width="0.310468"/>
<path d="M25.3379 32.9243L28.8289 26.9052C29.2231 26.2256 29.4201 25.8859 29.7121 25.8894C30.0041 25.8929 30.193 26.2373 30.5708 26.9261L32.2341 29.9593C32.2954 30.071 32.326 30.1269 32.3417 30.188C32.3573 30.249 32.3573 30.3127 32.3573 30.4402V30.5359C32.3573 30.6696 32.3573 30.7365 32.3402 30.8003C32.323 30.8641 32.2894 30.9219 32.2224 31.0376L32.2224 31.0376L28.7589 37.009C28.3594 37.6979 28.1596 38.0424 27.8654 38.0369C27.5712 38.0314 27.3844 37.6798 27.0108 36.9765L25.3216 33.7969L25.3216 33.7968C25.2753 33.7096 25.2521 33.666 25.2379 33.6192C25.2332 33.6035 25.2292 33.5875 25.226 33.5713C25.2166 33.5234 25.2166 33.474 25.2166 33.3752C25.2166 33.2686 25.2166 33.2153 25.2275 33.1639C25.2312 33.1465 25.2358 33.1294 25.2413 33.1125C25.2577 33.0626 25.2844 33.0165 25.3379 32.9243Z" fill="#2400FF" stroke="#2400FF" stroke-width="0.310468"/>
<path d="M1.12974 41.5973L9.44106 26.914C9.82794 26.2305 10.0214 25.8888 10.3134 25.8891C10.6053 25.8895 10.7978 26.2318 11.1829 26.9163L12.8342 29.852C12.9681 30.0901 13.0351 30.2091 13.0354 30.3394C13.0358 30.4697 12.9694 30.5891 12.8368 30.8279L3.94445 46.834L3.94444 46.8341C3.8699 46.9682 3.83263 47.0353 3.77804 47.0876C3.72346 47.1399 3.65481 47.1742 3.51751 47.2428L3.07395 47.4646L3.07391 47.4646C2.96885 47.5172 2.9163 47.5434 2.85965 47.5568C2.80299 47.5702 2.74424 47.5702 2.62674 47.5702H2C1.5286 47.5702 1.29289 47.5702 1.14645 47.4237C1 47.2773 1 47.0416 1 46.5702V42.0899C1 41.9589 1 41.8935 1.01649 41.8309C1.03298 41.7683 1.06523 41.7113 1.12974 41.5973L1.12974 41.5973Z" fill="#0D005B" stroke="#0D005B" stroke-width="0.310468"/>
<path d="M17.2159 46.0767L18.7779 43.3245C19.156 42.6583 19.3451 42.3252 19.6329 42.3224C19.9208 42.3196 20.1163 42.6489 20.5074 43.3076L22.4922 46.6503C22.5073 46.6759 22.5149 46.6886 22.5216 46.7016C22.5538 46.7639 22.5726 46.8322 22.5767 46.9022C22.5775 46.9167 22.5775 46.9316 22.5775 46.9613C22.5775 47.0625 22.5775 47.1132 22.5702 47.1554C22.5342 47.3638 22.371 47.5269 22.1627 47.563C22.1204 47.5703 22.0698 47.5703 21.9685 47.5703H18.0856C17.3215 47.5703 16.9394 47.5703 16.7948 47.3219C16.6501 47.0734 16.8387 46.7412 17.2159 46.0767Z" fill="#2400FF" stroke="#2400FF" stroke-width="0.310468"/>
<path d="M1 33.7761C1 35.3205 1 36.0926 1.37458 36.1897C1.74916 36.2868 2.12416 35.6118 2.87416 34.2618L5.53118 29.4791C5.59376 29.3665 5.62505 29.3102 5.64104 29.2485C5.65702 29.1868 5.65702 29.1223 5.65702 28.9935V17.5791C5.65702 16.0924 5.65702 15.3491 6.02639 15.2491C6.39576 15.1492 6.77068 15.791 7.52051 17.0747L24.9962 46.9931C25.0287 47.0487 25.0449 47.0765 25.0646 47.102C25.0842 47.1274 25.107 47.1502 25.1526 47.1958L25.2341 47.2773C25.3786 47.4219 25.4509 47.4941 25.5428 47.5322C25.6346 47.5702 25.7368 47.5702 25.9412 47.5702H29.3807C30.1515 47.5702 30.537 47.5702 30.6812 47.3199C30.8255 47.0697 30.6324 46.7361 30.2461 46.0691L4.51736 1.64218C4.46643 1.55424 4.44096 1.51027 4.40745 1.47254C4.37395 1.4348 4.3333 1.40431 4.252 1.34334L4.06088 1.2C3.92872 1.10088 3.86264 1.05132 3.78566 1.02566C3.70869 1 3.62608 1 3.46088 1H2C1.5286 1 1.29289 1 1.14645 1.14645C1 1.29289 1 1.5286 1 2V33.7761Z" fill="#2400FF" stroke="#2400FF" stroke-width="0.310468"/>
</svg>
