<svg width="300" height="260" viewBox="0 0 300 260" fill="none" xmlns="http://www.w3.org/2000/svg">
<g clip-path="url(#clip0_380_45)">
<path d="M20 10C20 4.47715 15.5228 0 10 0V0C4.47715 0 0 4.47715 0 10V10C0 15.5228 4.47715 20 10 20V20C15.5228 20 20 15.5228 20 10V10Z" fill="url(#paint0_linear_380_45)"/>
<path d="M60 10C60 4.47715 55.5228 0 50 0V0C44.4772 0 40 4.47715 40 10V10C40 15.5228 44.4772 20 50 20V20C55.5228 20 60 15.5228 60 10V10Z" fill="url(#paint1_linear_380_45)"/>
<path d="M80 10C80 4.47715 84.4772 0 90 0V0C95.5228 0 100 4.47715 100 10V10C100 15.5228 95.5228 20 90 20V20C84.4772 20 80 15.5228 80 10V10Z" fill="url(#paint2_linear_380_45)"/>
<path d="M140 10C140 4.47715 135.523 0 130 0V0C124.477 0 120 4.47715 120 10V10C120 15.5228 124.477 20 130 20V20C135.523 20 140 15.5228 140 10V10Z" fill="url(#paint3_linear_380_45)"/>
<path d="M160 10C160 4.47715 164.477 0 170 0V0C175.523 0 180 4.47715 180 10V10C180 15.5228 175.523 20 170 20V20C164.477 20 160 15.5228 160 10V10Z" fill="url(#paint4_linear_380_45)"/>
<path d="M220 10C220 4.47715 215.523 0 210 0V0C204.477 0 200 4.47715 200 10V10C200 15.5228 204.477 20 210 20V20C215.523 20 220 15.5228 220 10V10Z" fill="url(#paint5_linear_380_45)"/>
<path d="M240 10C240 4.47715 244.477 0 250 0V0C255.523 0 260 4.47715 260 10V10C260 15.5228 255.523 20 250 20V20C244.477 20 240 15.5228 240 10V10Z" fill="url(#paint6_linear_380_45)"/>
<path d="M0 50C0 44.4772 4.47715 40 10 40V40C15.5228 40 20 44.4772 20 50V50C20 55.5228 15.5228 60 10 60V60C4.47715 60 0 55.5228 0 50V50Z" fill="url(#paint7_linear_380_45)"/>
<path d="M60 50C60 44.4772 55.5228 40 50 40V40C44.4772 40 40 44.4772 40 50V50C40 55.5228 44.4772 60 50 60V60C55.5228 60 60 55.5228 60 50V50Z" fill="url(#paint8_linear_380_45)"/>
<path d="M80 50C80 44.4772 84.4772 40 90 40V40C95.5228 40 100 44.4772 100 50V50C100 55.5228 95.5228 60 90 60V60C84.4772 60 80 55.5228 80 50V50Z" fill="url(#paint9_linear_380_45)"/>
<path d="M140 50C140 44.4772 135.523 40 130 40V40C124.477 40 120 44.4772 120 50V50C120 55.5228 124.477 60 130 60V60C135.523 60 140 55.5228 140 50V50Z" fill="url(#paint10_linear_380_45)"/>
<path d="M160 50C160 44.4772 164.477 40 170 40V40C175.523 40 180 44.4772 180 50V50C180 55.5228 175.523 60 170 60V60C164.477 60 160 55.5228 160 50V50Z" fill="url(#paint11_linear_380_45)"/>
<path d="M220 50C220 44.4772 215.523 40 210 40V40C204.477 40 200 44.4772 200 50V50C200 55.5228 204.477 60 210 60V60C215.523 60 220 55.5228 220 50V50Z" fill="url(#paint12_linear_380_45)"/>
<path d="M240 50C240 44.4772 244.477 40 250 40V40C255.523 40 260 44.4772 260 50V50C260 55.5228 255.523 60 250 60V60C244.477 60 240 55.5228 240 50V50Z" fill="url(#paint13_linear_380_45)"/>
<path d="M300 50.8321C300 45.0079 295.011 40.4338 289.209 40.9384V40.9384C282.919 41.4853 278.73 47.6844 280.568 53.7237L281.178 55.7288C282.733 60.8379 288.153 63.7023 293.25 62.1094V62.1094C297.266 60.8545 300 57.1353 300 52.928V50.8321Z" fill="url(#paint14_linear_380_45)"/>
<path d="M0 90C0 84.4772 4.47715 80 10 80V80C15.5228 80 20 84.4772 20 90V90C20 95.5228 15.5228 100 10 100V100C4.47715 100 0 95.5228 0 90V90Z" fill="url(#paint15_linear_380_45)"/>
<path d="M60 90C60 84.4772 55.5228 80 50 80V80C44.4772 80 40 84.4772 40 90V90C40 95.5228 44.4772 100 50 100V100C55.5228 100 60 95.5228 60 90V90Z" fill="url(#paint16_linear_380_45)"/>
<path d="M80 90C80 84.4772 84.4772 80 90 80V80C95.5228 80 100 84.4772 100 90V90C100 95.5228 95.5228 100 90 100V100C84.4772 100 80 95.5228 80 90V90Z" fill="url(#paint17_linear_380_45)"/>
<path d="M140 90C140 84.4772 135.523 80 130 80V80C124.477 80 120 84.4772 120 90V90C120 95.5228 124.477 100 130 100V100C135.523 100 140 95.5228 140 90V90Z" fill="url(#paint18_linear_380_45)"/>
<path d="M160 90C160 84.4772 164.477 80 170 80V80C175.523 80 180 84.4772 180 90V90C180 95.5228 175.523 100 170 100V100C164.477 100 160 95.5228 160 90V90Z" fill="url(#paint19_linear_380_45)"/>
<path d="M220 90C220 84.4772 215.523 80 210 80V80C204.477 80 200 84.4772 200 90V90C200 95.5228 204.477 100 210 100V100C215.523 100 220 95.5228 220 90V90Z" fill="url(#paint20_linear_380_45)"/>
<path d="M240 90C240 84.4772 244.477 80 250 80V80C255.523 80 260 84.4772 260 90V90C260 95.5228 255.523 100 250 100V100C244.477 100 240 95.5228 240 90V90Z" fill="url(#paint21_linear_380_45)"/>
<path d="M300 89.1491C300 84.0962 295.904 80 290.851 80H290.565C284.997 80 280.727 84.9436 281.537 90.4523V90.4523C282.111 94.3579 285.132 97.4512 289.023 98.1182L289.305 98.1666C294.894 99.1247 300 94.8198 300 89.1491V89.1491Z" fill="url(#paint22_linear_380_45)"/>
<path d="M0 130C0 124.477 4.47715 120 10 120V120C15.5228 120 20 124.477 20 130V130C20 135.523 15.5228 140 10 140V140C4.47715 140 0 135.523 0 130V130Z" fill="url(#paint23_linear_380_45)"/>
<path d="M60 130C60 124.477 55.5228 120 50 120V120C44.4772 120 40 124.477 40 130V130C40 135.523 44.4772 140 50 140V140C55.5228 140 60 135.523 60 130V130Z" fill="url(#paint24_linear_380_45)"/>
<path d="M80 130C80 124.477 84.4772 120 90 120V120C95.5228 120 100 124.477 100 130V130C100 135.523 95.5228 140 90 140V140C84.4772 140 80 135.523 80 130V130Z" fill="url(#paint25_linear_380_45)"/>
<path d="M140 130C140 124.477 135.523 120 130 120V120C124.477 120 120 124.477 120 130V130C120 135.523 124.477 140 130 140V140C135.523 140 140 135.523 140 130V130Z" fill="url(#paint26_linear_380_45)"/>
<path d="M160 130C160 124.477 164.477 120 170 120V120C175.523 120 180 124.477 180 130V130C180 135.523 175.523 140 170 140V140C164.477 140 160 135.523 160 130V130Z" fill="url(#paint27_linear_380_45)"/>
<path d="M220 130C220 124.477 215.523 120 210 120V120C204.477 120 200 124.477 200 130V130C200 135.523 204.477 140 210 140V140C215.523 140 220 135.523 220 130V130Z" fill="url(#paint28_linear_380_45)"/>
<path d="M240 130C240 124.477 244.477 120 250 120V120C255.523 120 260 124.477 260 130V130C260 135.523 255.523 140 250 140V140C244.477 140 240 135.523 240 130V130Z" fill="url(#paint29_linear_380_45)"/>
<path d="M0 170C0 164.477 4.47715 160 10 160V160C15.5228 160 20 164.477 20 170V170C20 175.523 15.5228 180 10 180V180C4.47715 180 0 175.523 0 170V170Z" fill="url(#paint30_linear_380_45)"/>
<path d="M60 170C60 164.477 55.5228 160 50 160V160C44.4772 160 40 164.477 40 170V170C40 175.523 44.4772 180 50 180V180C55.5228 180 60 175.523 60 170V170Z" fill="url(#paint31_linear_380_45)"/>
<path d="M80 170C80 164.477 84.4772 160 90 160V160C95.5228 160 100 164.477 100 170V170C100 175.523 95.5228 180 90 180V180C84.4772 180 80 175.523 80 170V170Z" fill="url(#paint32_linear_380_45)"/>
<path d="M140 170C140 164.477 135.523 160 130 160V160C124.477 160 120 164.477 120 170V170C120 175.523 124.477 180 130 180V180C135.523 180 140 175.523 140 170V170Z" fill="url(#paint33_linear_380_45)"/>
<path d="M160 170C160 164.477 164.477 160 170 160V160C175.523 160 180 164.477 180 170V170C180 175.523 175.523 180 170 180V180C164.477 180 160 175.523 160 170V170Z" fill="url(#paint34_linear_380_45)"/>
<path d="M220 170C220 164.477 215.523 160 210 160V160C204.477 160 200 164.477 200 170V170C200 175.523 204.477 180 210 180V180C215.523 180 220 175.523 220 170V170Z" fill="url(#paint35_linear_380_45)"/>
<path d="M240 171.069C240 165.376 245.255 161.136 250.819 162.339L252.215 162.641C255.957 163.45 258.743 166.591 259.1 170.402V170.402C259.583 175.551 255.532 180 250.36 180H248.931C243.999 180 240 176.001 240 171.069V171.069Z" fill="url(#paint36_linear_380_45)"/>
<path d="M300 169.132C300 164.088 295.912 160 290.868 160H290.152C284.853 160 280.837 164.781 281.75 170V170L282.201 172.579C282.952 176.87 286.678 180 291.034 180V180C295.986 180 300 175.986 300 171.034V169.132Z" fill="url(#paint37_linear_380_45)"/>
<path d="M0 210C0 204.477 4.47715 200 10 200V200C15.5228 200 20 204.477 20 210V210C20 215.523 15.5228 220 10 220V220C4.47715 220 0 215.523 0 210V210Z" fill="url(#paint38_linear_380_45)"/>
<path d="M60 210C60 204.477 55.5228 200 50 200V200C44.4772 200 40 204.477 40 210V210C40 215.523 44.4772 220 50 220V220C55.5228 220 60 215.523 60 210V210Z" fill="url(#paint39_linear_380_45)"/>
<path d="M80 210C80 204.477 84.4772 200 90 200V200C95.5228 200 100 204.477 100 210V210C100 215.523 95.5228 220 90 220V220C84.4772 220 80 215.523 80 210V210Z" fill="url(#paint40_linear_380_45)"/>
<path d="M160 210.183C160 204.776 164.739 200.592 170.104 201.263V201.263C173.679 201.71 176.642 204.249 177.632 207.713L178.115 209.402C179.946 215.811 174.592 221.99 167.987 221.089V221.089C163.411 220.465 160 216.557 160 211.939V210.183Z" fill="url(#paint41_linear_380_45)"/>
<path d="M220 210C220 204.477 215.523 200 210 200V200C204.477 200 200 204.477 200 210V210C200 215.523 204.477 220 210 220V220C215.523 220 220 215.523 220 210V210Z" fill="url(#paint42_linear_380_45)"/>
<path d="M300 206.807C300 202.716 297.452 199.058 293.615 197.64V197.64C286.399 194.974 279.074 201.303 280.666 208.83L281.119 210.971C281.948 214.892 285.139 217.877 289.106 218.444V218.444C294.856 219.265 300 214.804 300 208.996V206.807Z" fill="url(#paint43_linear_380_45)"/>
<path d="M79.2708 248.508C79.6832 243.696 83.7095 240 88.5391 240H90.5794C95.7823 240 100 244.218 100 249.421V249.421C100 255.055 95.0876 259.429 89.4914 258.778L87.4647 258.542C82.4703 257.962 78.8414 253.518 79.2708 248.508V248.508Z" fill="url(#paint44_linear_380_45)"/>
<path d="M140 250C140 244.477 135.523 240 130 240V240C124.477 240 120 244.477 120 250V250C120 255.523 124.477 260 130 260V260C135.523 260 140 255.523 140 250V250Z" fill="url(#paint45_linear_380_45)"/>
<path d="M160 248.423C160 243.771 163.771 240 168.423 240V240C172.288 240 175.658 242.631 176.595 246.38L177.276 249.104C178.66 254.639 174.474 260 168.769 260V260C163.926 260 160 256.074 160 251.231V248.423Z" fill="url(#paint46_linear_380_45)"/>
<path d="M220 250C220 244.477 215.523 240 210 240V240C204.477 240 200 244.477 200 250V250C200 255.523 204.477 260 210 260V260C215.523 260 220 255.523 220 250V250Z" fill="url(#paint47_linear_380_45)"/>
<path d="M244.102 247.694C245.235 244.294 248.42 242 252.004 242V242C257.522 242 261.518 247.269 260.024 252.581V252.581C259.103 255.855 256.282 258.24 252.901 258.605V258.605C246.87 259.257 242.184 253.449 244.102 247.694V247.694Z" fill="url(#paint48_linear_380_45)"/>
<path d="M40 248.768C40 243.784 43.7631 239.604 48.7201 239.082V239.082C54.2959 238.495 59.2148 242.725 59.4694 248.326L59.5356 249.783C59.7886 255.349 55.3444 260 49.7728 260V260C44.3755 260 40 255.625 40 250.227V248.768Z" fill="url(#paint49_linear_380_45)"/>
</g>
<defs>
<linearGradient id="paint0_linear_380_45" x1="179" y1="166.5" x2="292" y2="264" gradientUnits="userSpaceOnUse">
<stop stop-color="white"/>
<stop offset="1" stop-color="#A89AFF" stop-opacity="0.47"/>
</linearGradient>
<linearGradient id="paint1_linear_380_45" x1="179" y1="166.5" x2="292" y2="264" gradientUnits="userSpaceOnUse">
<stop stop-color="white"/>
<stop offset="1" stop-color="#A89AFF" stop-opacity="0.47"/>
</linearGradient>
<linearGradient id="paint2_linear_380_45" x1="179" y1="166.5" x2="292" y2="264" gradientUnits="userSpaceOnUse">
<stop stop-color="white"/>
<stop offset="1" stop-color="#A89AFF" stop-opacity="0.47"/>
</linearGradient>
<linearGradient id="paint3_linear_380_45" x1="179" y1="166.5" x2="292" y2="264" gradientUnits="userSpaceOnUse">
<stop stop-color="white"/>
<stop offset="1" stop-color="#A89AFF" stop-opacity="0.47"/>
</linearGradient>
<linearGradient id="paint4_linear_380_45" x1="179" y1="166.5" x2="292" y2="264" gradientUnits="userSpaceOnUse">
<stop stop-color="white"/>
<stop offset="1" stop-color="#A89AFF" stop-opacity="0.47"/>
</linearGradient>
<linearGradient id="paint5_linear_380_45" x1="179" y1="166.5" x2="292" y2="264" gradientUnits="userSpaceOnUse">
<stop stop-color="white"/>
<stop offset="1" stop-color="#A89AFF" stop-opacity="0.47"/>
</linearGradient>
<linearGradient id="paint6_linear_380_45" x1="179" y1="166.5" x2="292" y2="264" gradientUnits="userSpaceOnUse">
<stop stop-color="white"/>
<stop offset="1" stop-color="#A89AFF" stop-opacity="0.47"/>
</linearGradient>
<linearGradient id="paint7_linear_380_45" x1="179" y1="166.5" x2="292" y2="264" gradientUnits="userSpaceOnUse">
<stop stop-color="white"/>
<stop offset="1" stop-color="#A89AFF" stop-opacity="0.47"/>
</linearGradient>
<linearGradient id="paint8_linear_380_45" x1="179" y1="166.5" x2="292" y2="264" gradientUnits="userSpaceOnUse">
<stop stop-color="white"/>
<stop offset="1" stop-color="#A89AFF" stop-opacity="0.47"/>
</linearGradient>
<linearGradient id="paint9_linear_380_45" x1="179" y1="166.5" x2="292" y2="264" gradientUnits="userSpaceOnUse">
<stop stop-color="white"/>
<stop offset="1" stop-color="#A89AFF" stop-opacity="0.47"/>
</linearGradient>
<linearGradient id="paint10_linear_380_45" x1="179" y1="166.5" x2="292" y2="264" gradientUnits="userSpaceOnUse">
<stop stop-color="white"/>
<stop offset="1" stop-color="#A89AFF" stop-opacity="0.47"/>
</linearGradient>
<linearGradient id="paint11_linear_380_45" x1="179" y1="166.5" x2="292" y2="264" gradientUnits="userSpaceOnUse">
<stop stop-color="white"/>
<stop offset="1" stop-color="#A89AFF" stop-opacity="0.47"/>
</linearGradient>
<linearGradient id="paint12_linear_380_45" x1="179" y1="166.5" x2="292" y2="264" gradientUnits="userSpaceOnUse">
<stop stop-color="white"/>
<stop offset="1" stop-color="#A89AFF" stop-opacity="0.47"/>
</linearGradient>
<linearGradient id="paint13_linear_380_45" x1="179" y1="166.5" x2="292" y2="264" gradientUnits="userSpaceOnUse">
<stop stop-color="white"/>
<stop offset="1" stop-color="#A89AFF" stop-opacity="0.47"/>
</linearGradient>
<linearGradient id="paint14_linear_380_45" x1="179" y1="166.5" x2="292" y2="264" gradientUnits="userSpaceOnUse">
<stop stop-color="white"/>
<stop offset="1" stop-color="#A89AFF" stop-opacity="0.47"/>
</linearGradient>
<linearGradient id="paint15_linear_380_45" x1="179" y1="166.5" x2="292" y2="264" gradientUnits="userSpaceOnUse">
<stop stop-color="white"/>
<stop offset="1" stop-color="#A89AFF" stop-opacity="0.47"/>
</linearGradient>
<linearGradient id="paint16_linear_380_45" x1="179" y1="166.5" x2="292" y2="264" gradientUnits="userSpaceOnUse">
<stop stop-color="white"/>
<stop offset="1" stop-color="#A89AFF" stop-opacity="0.47"/>
</linearGradient>
<linearGradient id="paint17_linear_380_45" x1="179" y1="166.5" x2="292" y2="264" gradientUnits="userSpaceOnUse">
<stop stop-color="white"/>
<stop offset="1" stop-color="#A89AFF" stop-opacity="0.47"/>
</linearGradient>
<linearGradient id="paint18_linear_380_45" x1="179" y1="166.5" x2="292" y2="264" gradientUnits="userSpaceOnUse">
<stop stop-color="white"/>
<stop offset="1" stop-color="#A89AFF" stop-opacity="0.47"/>
</linearGradient>
<linearGradient id="paint19_linear_380_45" x1="179" y1="166.5" x2="292" y2="264" gradientUnits="userSpaceOnUse">
<stop stop-color="white"/>
<stop offset="1" stop-color="#A89AFF" stop-opacity="0.47"/>
</linearGradient>
<linearGradient id="paint20_linear_380_45" x1="179" y1="166.5" x2="292" y2="264" gradientUnits="userSpaceOnUse">
<stop stop-color="white"/>
<stop offset="1" stop-color="#A89AFF" stop-opacity="0.47"/>
</linearGradient>
<linearGradient id="paint21_linear_380_45" x1="179" y1="166.5" x2="292" y2="264" gradientUnits="userSpaceOnUse">
<stop stop-color="white"/>
<stop offset="1" stop-color="#A89AFF" stop-opacity="0.47"/>
</linearGradient>
<linearGradient id="paint22_linear_380_45" x1="179" y1="166.5" x2="292" y2="264" gradientUnits="userSpaceOnUse">
<stop stop-color="white"/>
<stop offset="1" stop-color="#A89AFF" stop-opacity="0.47"/>
</linearGradient>
<linearGradient id="paint23_linear_380_45" x1="179" y1="166.5" x2="292" y2="264" gradientUnits="userSpaceOnUse">
<stop stop-color="white"/>
<stop offset="1" stop-color="#A89AFF" stop-opacity="0.47"/>
</linearGradient>
<linearGradient id="paint24_linear_380_45" x1="179" y1="166.5" x2="292" y2="264" gradientUnits="userSpaceOnUse">
<stop stop-color="white"/>
<stop offset="1" stop-color="#A89AFF" stop-opacity="0.47"/>
</linearGradient>
<linearGradient id="paint25_linear_380_45" x1="179" y1="166.5" x2="292" y2="264" gradientUnits="userSpaceOnUse">
<stop stop-color="white"/>
<stop offset="1" stop-color="#A89AFF" stop-opacity="0.47"/>
</linearGradient>
<linearGradient id="paint26_linear_380_45" x1="179" y1="166.5" x2="292" y2="264" gradientUnits="userSpaceOnUse">
<stop stop-color="white"/>
<stop offset="1" stop-color="#A89AFF" stop-opacity="0.47"/>
</linearGradient>
<linearGradient id="paint27_linear_380_45" x1="179" y1="166.5" x2="292" y2="264" gradientUnits="userSpaceOnUse">
<stop stop-color="white"/>
<stop offset="1" stop-color="#A89AFF" stop-opacity="0.47"/>
</linearGradient>
<linearGradient id="paint28_linear_380_45" x1="179" y1="166.5" x2="292" y2="264" gradientUnits="userSpaceOnUse">
<stop stop-color="white"/>
<stop offset="1" stop-color="#A89AFF" stop-opacity="0.47"/>
</linearGradient>
<linearGradient id="paint29_linear_380_45" x1="179" y1="166.5" x2="292" y2="264" gradientUnits="userSpaceOnUse">
<stop stop-color="white"/>
<stop offset="1" stop-color="#A89AFF" stop-opacity="0.47"/>
</linearGradient>
<linearGradient id="paint30_linear_380_45" x1="179" y1="166.5" x2="292" y2="264" gradientUnits="userSpaceOnUse">
<stop stop-color="white"/>
<stop offset="1" stop-color="#A89AFF" stop-opacity="0.47"/>
</linearGradient>
<linearGradient id="paint31_linear_380_45" x1="179" y1="166.5" x2="292" y2="264" gradientUnits="userSpaceOnUse">
<stop stop-color="white"/>
<stop offset="1" stop-color="#A89AFF" stop-opacity="0.47"/>
</linearGradient>
<linearGradient id="paint32_linear_380_45" x1="179" y1="166.5" x2="292" y2="264" gradientUnits="userSpaceOnUse">
<stop stop-color="white"/>
<stop offset="1" stop-color="#A89AFF" stop-opacity="0.47"/>
</linearGradient>
<linearGradient id="paint33_linear_380_45" x1="179" y1="166.5" x2="292" y2="264" gradientUnits="userSpaceOnUse">
<stop stop-color="white"/>
<stop offset="1" stop-color="#A89AFF" stop-opacity="0.47"/>
</linearGradient>
<linearGradient id="paint34_linear_380_45" x1="179" y1="166.5" x2="292" y2="264" gradientUnits="userSpaceOnUse">
<stop stop-color="white"/>
<stop offset="1" stop-color="#A89AFF" stop-opacity="0.47"/>
</linearGradient>
<linearGradient id="paint35_linear_380_45" x1="179" y1="166.5" x2="292" y2="264" gradientUnits="userSpaceOnUse">
<stop stop-color="white"/>
<stop offset="1" stop-color="#A89AFF" stop-opacity="0.47"/>
</linearGradient>
<linearGradient id="paint36_linear_380_45" x1="179" y1="166.5" x2="292" y2="264" gradientUnits="userSpaceOnUse">
<stop stop-color="white"/>
<stop offset="1" stop-color="#A89AFF" stop-opacity="0.47"/>
</linearGradient>
<linearGradient id="paint37_linear_380_45" x1="179" y1="166.5" x2="292" y2="264" gradientUnits="userSpaceOnUse">
<stop stop-color="white"/>
<stop offset="1" stop-color="#A89AFF" stop-opacity="0.47"/>
</linearGradient>
<linearGradient id="paint38_linear_380_45" x1="179" y1="166.5" x2="292" y2="264" gradientUnits="userSpaceOnUse">
<stop stop-color="white"/>
<stop offset="1" stop-color="#A89AFF" stop-opacity="0.47"/>
</linearGradient>
<linearGradient id="paint39_linear_380_45" x1="179" y1="166.5" x2="292" y2="264" gradientUnits="userSpaceOnUse">
<stop stop-color="white"/>
<stop offset="1" stop-color="#A89AFF" stop-opacity="0.47"/>
</linearGradient>
<linearGradient id="paint40_linear_380_45" x1="179" y1="166.5" x2="292" y2="264" gradientUnits="userSpaceOnUse">
<stop stop-color="white"/>
<stop offset="1" stop-color="#A89AFF" stop-opacity="0.47"/>
</linearGradient>
<linearGradient id="paint41_linear_380_45" x1="179" y1="166.5" x2="292" y2="264" gradientUnits="userSpaceOnUse">
<stop stop-color="white"/>
<stop offset="1" stop-color="#A89AFF" stop-opacity="0.47"/>
</linearGradient>
<linearGradient id="paint42_linear_380_45" x1="179" y1="166.5" x2="292" y2="264" gradientUnits="userSpaceOnUse">
<stop stop-color="white"/>
<stop offset="1" stop-color="#A89AFF" stop-opacity="0.47"/>
</linearGradient>
<linearGradient id="paint43_linear_380_45" x1="47" y1="265.5" x2="300" y2="27.5" gradientUnits="userSpaceOnUse">
<stop stop-color="#D7D1FF" stop-opacity="0.22"/>
<stop offset="0.555" stop-color="#D9E3FF" stop-opacity="0.58"/>
<stop offset="1" stop-color="#1C00C1" stop-opacity="0"/>
</linearGradient>
<linearGradient id="paint44_linear_380_45" x1="179" y1="166.5" x2="292" y2="264" gradientUnits="userSpaceOnUse">
<stop stop-color="white"/>
<stop offset="1" stop-color="#A89AFF" stop-opacity="0.47"/>
</linearGradient>
<linearGradient id="paint45_linear_380_45" x1="179" y1="166.5" x2="292" y2="264" gradientUnits="userSpaceOnUse">
<stop stop-color="white"/>
<stop offset="1" stop-color="#A89AFF" stop-opacity="0.47"/>
</linearGradient>
<linearGradient id="paint46_linear_380_45" x1="179" y1="166.5" x2="305.5" y2="315.5" gradientUnits="userSpaceOnUse">
<stop offset="0.541" stop-color="#B4D4F4"/>
<stop offset="1" stop-color="#A5C4FF" stop-opacity="0.36"/>
</linearGradient>
<linearGradient id="paint47_linear_380_45" x1="179" y1="166.5" x2="292" y2="264" gradientUnits="userSpaceOnUse">
<stop stop-color="white"/>
<stop offset="1" stop-color="#A89AFF" stop-opacity="0.47"/>
</linearGradient>
<linearGradient id="paint48_linear_380_45" x1="179" y1="166.5" x2="292" y2="264" gradientUnits="userSpaceOnUse">
<stop stop-color="white"/>
<stop offset="1" stop-color="#A89AFF" stop-opacity="0.47"/>
</linearGradient>
<linearGradient id="paint49_linear_380_45" x1="-15.5" y1="186" x2="63" y2="282.5" gradientUnits="userSpaceOnUse">
<stop stop-color="#04341C"/>
<stop offset="1" stop-color="#E2DDFF"/>
</linearGradient>
<clipPath id="clip0_380_45">
<rect width="300" height="260" rx="38" fill="white"/>
</clipPath>
</defs>
</svg>
