<svg width="47" height="48" viewBox="0 0 47 48" fill="none" xmlns="http://www.w3.org/2000/svg">
<path d="M14.8155 17.1916L16.6163 20.3928C17.0055 21.0848 17.2001 21.4307 17.4938 21.4296C17.7875 21.4284 17.9794 21.081 18.3632 20.386L23.1432 11.7303C23.1915 11.643 23.3099 11.6263 23.3804 11.6968C23.3899 11.7063 23.3981 11.7171 23.4048 11.7289L43.1978 46.6758C43.2312 46.7349 43.2479 46.7644 43.2684 46.7913C43.2889 46.8182 43.3128 46.8422 43.3608 46.8901L43.729 47.2583C43.807 47.3363 43.846 47.3754 43.8922 47.4048C43.9384 47.4342 43.9902 47.4531 44.0939 47.4908L44.3409 47.5807L44.341 47.5808C44.4236 47.6109 44.4649 47.6259 44.5079 47.6335C44.551 47.6411 44.595 47.6411 44.683 47.6411H45.5247C45.9961 47.6411 46.2318 47.6411 46.3782 47.4946C46.5247 47.3482 46.5247 47.1125 46.5247 46.6411V2C46.5247 1.5286 46.5247 1.29289 46.3782 1.14645C46.2318 1 45.9961 1 45.5247 1H44.3887C44.2927 1 44.2447 1 44.1979 1.00902C44.151 1.01804 44.1065 1.03587 44.0173 1.07152L43.6105 1.23424C43.5156 1.27222 43.4681 1.29121 43.4257 1.31917C43.3833 1.34713 43.3472 1.38328 43.2748 1.45559L43.2748 1.45561L43.0486 1.68188C43.0015 1.72896 42.9779 1.75249 42.9578 1.77886C42.9376 1.80522 42.9211 1.83411 42.888 1.89187L34.5315 16.4778C34.4829 16.5626 34.4586 16.605 34.443 16.6507C34.4358 16.6721 34.4299 16.694 34.4256 16.7161C34.4164 16.7635 34.4164 16.8124 34.4164 16.9101C34.4164 17.009 34.4164 17.0585 34.4258 17.1064C34.4302 17.1288 34.4362 17.1509 34.4436 17.1725C34.4595 17.2186 34.4843 17.2614 34.534 17.3469L36.3283 20.4371C36.7197 21.1112 36.9154 21.4483 37.2062 21.4457C37.4969 21.4432 37.6868 21.1028 38.0664 20.422L39.839 17.2436C40.589 15.8987 40.964 15.2263 41.3382 15.3236C41.7124 15.4209 41.7124 16.1908 41.7124 17.7306V29.9334C41.7124 31.4644 41.7124 32.2299 41.339 32.3276C40.9656 32.4253 40.5906 31.758 39.8406 30.4232L24.2637 2.70158C23.8786 2.01636 23.6861 1.67376 23.394 1.67334C23.1019 1.67292 22.9084 2.01498 22.5215 2.6991L14.8166 16.3202L14.8166 16.3203C14.7668 16.4083 14.7419 16.4523 14.7264 16.4998C14.7203 16.5183 14.7154 16.5371 14.7115 16.5561C14.7017 16.6051 14.7017 16.6557 14.7017 16.7568C14.7017 16.8575 14.7017 16.9078 14.7114 16.9566C14.7153 16.9755 14.7202 16.9943 14.7261 17.0127C14.7415 17.0599 14.7662 17.1038 14.8155 17.1916Z" fill="white" stroke="white" stroke-width="0.310468"/>
<path d="M24.6028 32.9243L28.0938 26.9052C28.488 26.2256 28.685 25.8859 28.977 25.8894C29.269 25.8929 29.4579 26.2373 29.8356 26.9261L31.499 29.9593C31.5603 30.071 31.5909 30.1269 31.6066 30.188C31.6222 30.249 31.6222 30.3127 31.6222 30.4402V30.5359C31.6222 30.6696 31.6222 30.7365 31.605 30.8003C31.5879 30.8641 31.5543 30.9219 31.4872 31.0376L31.4872 31.0376L28.0238 37.009C27.6243 37.6979 27.4245 38.0424 27.1303 38.0369C26.8361 38.0314 26.6493 37.6798 26.2757 36.9765L24.5865 33.7969L24.5865 33.7968C24.5401 33.7096 24.517 33.666 24.5028 33.6192C24.4981 33.6035 24.4941 33.5875 24.4909 33.5713C24.4814 33.5234 24.4814 33.474 24.4814 33.3752C24.4814 33.2686 24.4814 33.2153 24.4924 33.1639C24.4961 33.1465 24.5007 33.1294 24.5062 33.1125C24.5225 33.0626 24.5493 33.0165 24.6028 32.9243Z" fill="#2400FF" stroke="#2400FF" stroke-width="0.310468"/>
<path d="M0.394636 41.5973L8.70595 26.914C9.09283 26.2305 9.28627 25.8888 9.57824 25.8891C9.87022 25.8895 10.0627 26.2318 10.4478 26.9163L12.0991 29.852C12.233 30.0901 12.3 30.2091 12.3003 30.3394C12.3007 30.4697 12.2343 30.5891 12.1017 30.8279L3.20935 46.834L3.20934 46.8341C3.1348 46.9682 3.09752 47.0353 3.04294 47.0876C2.98835 47.1399 2.9197 47.1742 2.7824 47.2428L2.33885 47.4646L2.33881 47.4646C2.23374 47.5172 2.1812 47.5434 2.12454 47.5568C2.06788 47.5702 2.00913 47.5702 1.89163 47.5702H1.26489C0.793488 47.5702 0.557786 47.5702 0.411339 47.4237C0.264893 47.2773 0.264893 47.0416 0.264893 46.5702V42.0899C0.264893 41.9589 0.264893 41.8935 0.281382 41.8309C0.297872 41.7683 0.330125 41.7113 0.39463 41.5973L0.394636 41.5973Z" fill="white" stroke="white" stroke-width="0.310468"/>
<path d="M16.4808 46.0767L18.0428 43.3245C18.4209 42.6583 18.61 42.3252 18.8978 42.3224C19.1857 42.3196 19.3812 42.6489 19.7723 43.3076L21.7571 46.6503C21.7722 46.6759 21.7798 46.6886 21.7865 46.7016C21.8187 46.7639 21.8375 46.8322 21.8416 46.9022C21.8424 46.9167 21.8424 46.9316 21.8424 46.9613C21.8424 47.0625 21.8424 47.1132 21.8351 47.1554C21.7991 47.3638 21.6359 47.5269 21.4276 47.563C21.3853 47.5703 21.3347 47.5703 21.2334 47.5703H17.3505C16.5864 47.5703 16.2043 47.5703 16.0597 47.3219C15.915 47.0734 16.1036 46.7412 16.4808 46.0767Z" fill="#2400FF" stroke="#2400FF" stroke-width="0.310468"/>
<path d="M0.264893 33.7761C0.264893 35.3205 0.264893 36.0926 0.639472 36.1897C1.01405 36.2868 1.38905 35.6118 2.13905 34.2618L4.79607 29.4791C4.85865 29.3665 4.88994 29.3102 4.90593 29.2485C4.92192 29.1868 4.92192 29.1223 4.92192 28.9935V17.5791C4.92192 16.0924 4.92192 15.3491 5.29129 15.2491C5.66066 15.1492 6.03557 15.791 6.7854 17.0747L24.2611 46.9931C24.2936 47.0487 24.3098 47.0765 24.3295 47.102C24.3491 47.1274 24.3719 47.1502 24.4175 47.1958L24.499 47.2773C24.6435 47.4219 24.7158 47.4941 24.8076 47.5322C24.8995 47.5702 25.0017 47.5702 25.2061 47.5702H28.6456C29.4164 47.5702 29.8018 47.5702 29.9461 47.3199C30.0904 47.0697 29.8973 46.7361 29.511 46.0691L3.78225 1.64218C3.73132 1.55424 3.70585 1.51027 3.67235 1.47254C3.63884 1.4348 3.59819 1.40431 3.51689 1.34334L3.32577 1.2C3.19361 1.10088 3.12753 1.05132 3.05055 1.02566C2.97358 1 2.89098 1 2.72577 1H1.26489C0.793488 1 0.557786 1 0.411339 1.14645C0.264893 1.29289 0.264893 1.5286 0.264893 2V33.7761Z" fill="#2400FF" stroke="#2400FF" stroke-width="0.310468"/>
</svg>
