<svg width="33" height="33" viewBox="0 0 33 33" fill="none" xmlns="http://www.w3.org/2000/svg">
<path d="M22.1031 4.32056C18.8044 4.32056 16.0703 6.83196 15.6955 10.0355C14.7171 9.33432 13.5596 8.93866 12.4051 8.93866C11.0196 8.93866 9.6342 9.48129 8.71057 10.4973L6.11289 13.095C4.08092 15.1269 4.08092 18.4462 6.11289 20.5705L6.63243 21.09L5.73767 21.9559L5.65108 22.0425C4.20395 23.4897 4.19943 25.8614 5.67994 27.2379C7.12447 28.6633 9.47383 28.6995 10.8464 27.2379C10.8561 27.2276 10.8658 27.2194 10.8753 27.209L13.675 24.4093C13.7438 24.361 13.813 24.3184 13.8771 24.265H13.9637C15.072 24.265 16.0938 23.7108 16.6479 22.8796C17.4792 22.6948 18.2354 22.233 18.6972 21.4941C20.175 21.217 21.266 19.9182 21.266 18.348C21.266 17.9162 21.1604 17.5104 20.9774 17.1069C21.3095 17.1686 21.6262 17.2512 22.0165 17.2512C25.5682 17.2512 28.4818 14.3376 28.4818 10.7859C28.4818 9.73913 28.2707 8.72203 27.7025 7.813L27.0675 6.83165L26.2594 7.63982L22.7669 11.1323L21.5258 9.80456L24.9605 6.36984L25.9419 5.38849L24.6719 4.86896C23.9278 4.55005 23.0712 4.32056 22.1031 4.32056ZM22.1031 6.1678C22.2345 6.1678 22.324 6.24398 22.4494 6.25439L19.592 9.11184L18.9859 9.74683L19.592 10.4107L22.0742 13.0661L22.7381 13.7877L23.4019 13.095L26.4326 10.0643C26.4751 10.3166 26.6346 10.4945 26.6346 10.7859C26.6346 13.3301 24.5606 15.404 22.0165 15.404C21.6778 15.404 21.266 15.3232 20.8042 15.2308L20.3136 15.1442L19.9672 15.4906L19.8518 15.6349L17.3118 13.095L17.9468 12.46L17.687 12.1425L17.6293 11.9404C17.5545 11.6413 17.485 11.1246 17.485 10.7859C17.485 8.24175 19.5589 6.1678 22.1031 6.1678ZM12.4051 10.7859C13.3287 10.7859 14.2638 11.1438 15.0027 11.8827L15.3491 12.3445L14.6275 13.095L18.7838 17.2512C19.1533 17.436 19.3322 17.8862 19.3322 18.348C19.3322 19.0869 18.6857 19.7335 17.9468 19.7335C17.6697 19.7335 17.4734 19.6527 17.1963 19.5603V19.7335C17.1963 20.4724 16.5498 21.1189 15.8109 21.1189C15.5338 21.1189 15.3664 21.0381 15.0893 20.9457V21.1189C15.0893 21.8578 14.4428 22.5043 13.7039 22.5043C13.4268 22.5043 13.1382 22.4235 12.9535 22.3312C12.9073 22.4697 12.838 22.5938 12.7514 22.7064C12.6648 22.819 12.5782 22.9142 12.4628 22.995C12.2319 23.1566 11.9317 23.2548 11.6546 23.2548C11.1928 23.2548 10.8349 23.0758 10.5578 22.7064L7.23855 19.3871C5.94548 18.0941 5.94548 15.86 7.23855 14.567L9.80737 11.9982C10.6386 11.1669 11.5738 10.7859 12.4051 10.7859ZM7.93127 22.3889L9.46102 23.8898C9.82354 24.3041 10.2397 24.6025 10.7021 24.7845L9.54761 25.9391H9.51874V25.9679C8.86074 26.6857 7.71358 26.7027 6.94992 25.9391V25.9102H6.92106C6.20324 25.2522 6.18627 24.105 6.94992 23.3414L7.93127 22.3889Z" fill="#0D005B"/>
<path d="M22.1031 4.32056C18.8044 4.32056 16.0703 6.83196 15.6955 10.0355C14.7171 9.33432 13.5596 8.93866 12.4051 8.93866C11.0196 8.93866 9.6342 9.48129 8.71057 10.4973L6.11289 13.095C4.08092 15.1269 4.08092 18.4462 6.11289 20.5705L6.63243 21.09L5.73767 21.9559L5.65108 22.0425C4.20395 23.4897 4.19943 25.8614 5.67994 27.2379C7.12447 28.6633 9.47383 28.6995 10.8464 27.2379C10.8561 27.2276 10.8658 27.2194 10.8753 27.209L13.675 24.4093C13.7438 24.361 13.813 24.3184 13.8771 24.265H13.9637C15.072 24.265 16.0938 23.7108 16.6479 22.8796C17.4792 22.6948 18.2354 22.233 18.6972 21.4941C20.175 21.217 21.266 19.9182 21.266 18.348C21.266 17.9162 21.1604 17.5104 20.9774 17.1069C21.3095 17.1686 21.6262 17.2512 22.0165 17.2512C25.5682 17.2512 28.4818 14.3376 28.4818 10.7859C28.4818 9.73913 28.2707 8.72203 27.7025 7.813L27.0675 6.83165L26.2594 7.63982L22.7669 11.1323L21.5258 9.80456L24.9605 6.36984L25.9419 5.38849L24.6719 4.86896C23.9278 4.55005 23.0712 4.32056 22.1031 4.32056ZM22.1031 6.1678C22.2345 6.1678 22.324 6.24398 22.4494 6.25439L19.592 9.11184L18.9859 9.74683L19.592 10.4107L22.0742 13.0661L22.7381 13.7877L23.4019 13.095L26.4326 10.0643C26.4751 10.3166 26.6346 10.4945 26.6346 10.7859C26.6346 13.3301 24.5606 15.404 22.0165 15.404C21.6778 15.404 21.266 15.3232 20.8042 15.2308L20.3136 15.1442L19.9672 15.4906L19.8518 15.6349L17.3118 13.095L17.9468 12.46L17.687 12.1425L17.6293 11.9404C17.5545 11.6413 17.485 11.1246 17.485 10.7859C17.485 8.24175 19.5589 6.1678 22.1031 6.1678ZM12.4051 10.7859C13.3287 10.7859 14.2638 11.1438 15.0027 11.8827L15.3491 12.3445L14.6275 13.095L18.7838 17.2512C19.1533 17.436 19.3322 17.8862 19.3322 18.348C19.3322 19.0869 18.6857 19.7335 17.9468 19.7335C17.6697 19.7335 17.4734 19.6527 17.1963 19.5603V19.7335C17.1963 20.4724 16.5498 21.1189 15.8109 21.1189C15.5338 21.1189 15.3664 21.0381 15.0893 20.9457V21.1189C15.0893 21.8578 14.4428 22.5043 13.7039 22.5043C13.4268 22.5043 13.1382 22.4235 12.9535 22.3312C12.9073 22.4697 12.838 22.5938 12.7514 22.7064C12.6648 22.819 12.5782 22.9142 12.4628 22.995C12.2319 23.1566 11.9317 23.2548 11.6546 23.2548C11.1928 23.2548 10.8349 23.0758 10.5578 22.7064L7.23855 19.3871C5.94548 18.0941 5.94548 15.86 7.23855 14.567L9.80737 11.9982C10.6386 11.1669 11.5738 10.7859 12.4051 10.7859ZM7.93127 22.3889L9.46102 23.8898C9.82354 24.3041 10.2397 24.6025 10.7021 24.7845L9.54761 25.9391H9.51874V25.9679C8.86074 26.6857 7.71358 26.7027 6.94992 25.9391V25.9102H6.92106C6.20324 25.2522 6.18627 24.105 6.94992 23.3414L7.93127 22.3889Z" fill="url(#paint0_linear_380_65)"/>
<path d="M22.1031 6.1678C22.2345 6.1678 22.324 6.24398 22.4494 6.25439L19.592 9.11184L18.9859 9.74683L19.592 10.4107L22.0742 13.0661L22.7381 13.7877L23.4019 13.095L26.4326 10.0643C26.4751 10.3166 26.6346 10.4945 26.6346 10.7859C26.6346 13.3301 24.5606 15.404 22.0165 15.404C21.6778 15.404 21.266 15.3232 20.8042 15.2308L20.3136 15.1442L19.9672 15.4906L19.8518 15.6349L17.3118 13.095L17.9468 12.46L17.687 12.1425L17.6293 11.9404C17.5545 11.6413 17.485 11.1246 17.485 10.7859C17.485 8.24175 19.5589 6.1678 22.1031 6.1678Z" fill="#0D005B"/>
<path d="M22.1031 6.1678C22.2345 6.1678 22.324 6.24398 22.4494 6.25439L19.592 9.11184L18.9859 9.74683L19.592 10.4107L22.0742 13.0661L22.7381 13.7877L23.4019 13.095L26.4326 10.0643C26.4751 10.3166 26.6346 10.4945 26.6346 10.7859C26.6346 13.3301 24.5606 15.404 22.0165 15.404C21.6778 15.404 21.266 15.3232 20.8042 15.2308L20.3136 15.1442L19.9672 15.4906L19.8518 15.6349L17.3118 13.095L17.9468 12.46L17.687 12.1425L17.6293 11.9404C17.5545 11.6413 17.485 11.1246 17.485 10.7859C17.485 8.24175 19.5589 6.1678 22.1031 6.1678Z" fill="url(#paint1_linear_380_65)"/>
<path d="M7.93127 22.3889L9.46102 23.8898C9.82354 24.3041 10.2397 24.6025 10.7021 24.7845L9.54761 25.9391H9.51874V25.9679C8.86074 26.6857 7.71358 26.7027 6.94992 25.9391V25.9102H6.92106C6.20324 25.2522 6.18627 24.105 6.94992 23.3414L7.93127 22.3889Z" fill="#0D005B"/>
<path d="M7.93127 22.3889L9.46102 23.8898C9.82354 24.3041 10.2397 24.6025 10.7021 24.7845L9.54761 25.9391H9.51874V25.9679C8.86074 26.6857 7.71358 26.7027 6.94992 25.9391V25.9102H6.92106C6.20324 25.2522 6.18627 24.105 6.94992 23.3414L7.93127 22.3889Z" fill="url(#paint2_linear_380_65)"/>
<defs>
<linearGradient id="paint0_linear_380_65" x1="11.1115" y1="16.5" x2="63.709" y2="52.1247" gradientUnits="userSpaceOnUse">
<stop offset="0.0209998" stop-color="white"/>
<stop offset="1" stop-color="#DCD6FF"/>
</linearGradient>
<linearGradient id="paint1_linear_380_65" x1="11.1115" y1="16.5" x2="63.709" y2="52.1247" gradientUnits="userSpaceOnUse">
<stop offset="0.0209998" stop-color="white"/>
<stop offset="1" stop-color="#DCD6FF"/>
</linearGradient>
<linearGradient id="paint2_linear_380_65" x1="11.1115" y1="16.5" x2="63.709" y2="52.1247" gradientUnits="userSpaceOnUse">
<stop offset="0.0209998" stop-color="white"/>
<stop offset="1" stop-color="#DCD6FF"/>
</linearGradient>
</defs>
</svg>
