<svg width="36" height="45" viewBox="0 0 36 45" fill="none" xmlns="http://www.w3.org/2000/svg">
<path fill-rule="evenodd" clip-rule="evenodd" d="M1.65236 0.00754981C1.21354 -0.0397451 0.760787 0.135236 0.429212 0.530486C-0.153584 1.2252 -0.141341 2.33733 0.456557 3.01449L14.7917 19.2502C16.0991 20.7309 18.1595 20.8115 19.5403 19.4358C19.6559 19.3206 19.7633 19.1991 19.8623 19.0721C19.9777 18.9812 20.0898 18.8818 20.1979 18.7739L35.1908 3.80441C35.8272 3.17632 35.9048 2.06776 35.3643 1.32838C35.0582 0.909702 34.6195 0.699175 34.181 0.709359C33.6753 0.721101 33.2325 1.0519 32.7923 1.38082L32.7922 1.38086C32.638 1.49612 32.484 1.61114 32.3278 1.71212L17.2345 11.4667L3.43127 1.14496C3.28017 1.03197 3.13253 0.904832 2.98462 0.777463L2.98462 0.77746C2.56998 0.4204 2.15325 0.061534 1.65236 0.00754981ZM0.429212 25.1229C0.760787 24.7277 1.21354 24.5527 1.65236 24.6C2.15325 24.654 2.56998 25.0128 2.98462 25.3699C3.13253 25.4973 3.28017 25.6244 3.43127 25.7374L17.2345 36.0591L32.3278 26.3046C32.484 26.2036 32.638 26.0885 32.7923 25.9733C33.2325 25.6443 33.6753 25.3135 34.181 25.3018C34.6195 25.2916 35.0582 25.5021 35.3643 25.9208C35.9048 26.6602 35.8272 27.7688 35.1908 28.3968L20.1979 43.3663C20.0898 43.4743 19.9778 43.5737 19.8623 43.6646C19.7633 43.7915 19.6559 43.913 19.5403 44.0283C18.1595 45.4039 16.0991 45.3234 14.7917 43.8426L0.456557 27.6069C-0.141341 26.9298 -0.153584 25.8176 0.429212 25.1229Z" fill="url(#paint0_linear_380_48)"/>
<defs>
<linearGradient id="paint0_linear_380_48" x1="14" y1="-4.5" x2="52" y2="112" gradientUnits="userSpaceOnUse">
<stop stop-color="white"/>
<stop offset="1" stop-color="#19152E"/>
</linearGradient>
</defs>
</svg>
