<svg width="21" height="27" viewBox="0 0 21 27" fill="none" xmlns="http://www.w3.org/2000/svg">
<path fill-rule="evenodd" clip-rule="evenodd" d="M0.915269 0.786181C0.800046 0.836187 0.692275 0.915819 0.600728 1.02495C0.268954 1.42043 0.275923 2.05355 0.616296 2.43904L8.77703 11.6817C9.52132 12.5247 10.6942 12.5705 11.4803 11.7874C11.5461 11.7218 11.6072 11.6526 11.6636 11.5803C11.7293 11.5286 11.7931 11.472 11.8547 11.4106L20.3899 2.88873C20.7521 2.53117 20.7963 1.90009 20.4886 1.47917C20.3914 1.34623 20.2707 1.25015 20.1397 1.19218C19.6939 0.994973 19.2452 1.32485 18.8116 1.64368L18.8115 1.6437C18.6953 1.72919 18.5801 1.81388 18.4663 1.8874L10.1676 7.25071L2.63704 1.6195C2.52336 1.53449 2.40849 1.43723 2.29239 1.33893L2.29239 1.33893C1.85213 0.966162 1.39411 0.578362 0.915269 0.786181ZM0.600728 15.0249C0.692275 14.9158 0.800046 14.8362 0.915269 14.7862C1.39411 14.5784 1.85213 14.9662 2.29239 15.3389C2.40849 15.4372 2.52335 15.5345 2.63704 15.6195L10.1676 21.2507L18.4663 15.8874C18.5801 15.8139 18.6953 15.7292 18.8116 15.6437C19.2452 15.3249 19.6939 14.995 20.1397 15.1922C20.2707 15.2502 20.3914 15.3462 20.4886 15.4792C20.7963 15.9001 20.7521 16.5312 20.3899 16.8887L11.8547 25.4106C11.7931 25.472 11.7293 25.5286 11.6636 25.5803C11.6072 25.6526 11.5461 25.7218 11.4803 25.7874C10.6942 26.5705 9.52132 26.5247 8.77703 25.6817L0.616296 16.439C0.275923 16.0535 0.268954 15.4204 0.600728 15.0249Z" fill="#0D005B"/>
</svg>
