<svg width="58" height="58" viewBox="0 0 58 58" fill="none" xmlns="http://www.w3.org/2000/svg">
<path d="M18.8237 13.0585C20.1297 13.0342 21.4338 13.1681 22.7076 13.4572C23.7801 13.6914 24.7983 14.1271 25.7082 14.7412C26.5486 15.3519 27.2135 16.1729 27.6362 17.1218C28.122 18.2886 28.3564 19.5448 28.3241 20.8083C28.3792 22.1957 28.0249 23.5686 27.3052 24.756C26.5481 25.8774 25.5016 26.7731 24.2767 27.3479C25.939 27.796 27.3869 28.8226 28.3599 30.2429C29.2941 31.7478 29.7636 33.4948 29.7097 35.2652C29.7406 36.6768 29.4487 38.0768 28.8564 39.3584C28.3089 40.4765 27.5073 41.4509 26.5157 42.2036C25.4948 42.948 24.346 43.4987 23.1263 43.8285C21.8614 44.1784 20.5547 44.3542 19.2424 44.3509H4.83331V13.0585H18.8237ZM17.9923 25.715C19.0184 25.7573 20.0285 25.4501 20.8573 24.8437C21.2543 24.4903 21.5631 24.049 21.759 23.555C21.955 23.061 22.0326 22.528 21.9858 21.9986C22.0124 21.3803 21.8893 20.7647 21.6269 20.2042C21.4044 19.7579 21.0584 19.3849 20.6301 19.1295C20.1962 18.8484 19.7087 18.6604 19.1985 18.5772C18.6449 18.47 18.0816 18.4212 17.5178 18.4317H11.361V25.7429H17.9923V25.715ZM18.3512 39.0374C18.9717 39.0458 19.591 38.9789 20.1954 38.8381C20.7478 38.7161 21.2716 38.4893 21.7386 38.1701C22.1961 37.8511 22.5657 37.4218 22.8132 36.922C23.1003 36.2847 23.2321 35.5885 23.198 34.8904C23.2603 34.2542 23.176 33.6122 22.9517 33.0136C22.7274 32.415 22.3691 31.8758 21.9041 31.4371C20.9186 30.7113 19.7108 30.3517 18.4887 30.4203H11.361V39.0374H18.3512Z" fill="url(#paint0_linear_315_49)"/>
<path d="M39.0068 38.9218C39.5191 39.3967 40.1226 39.7625 40.7807 39.9969C41.4388 40.2313 42.1376 40.3295 42.8348 40.2856C43.9401 40.3135 45.0239 39.9772 45.9192 39.3285C46.6476 38.8549 47.1992 38.1541 47.4883 37.3348H52.6941C52.1394 39.6671 50.7849 41.7314 48.866 43.1686C47.0252 44.3904 44.8497 45.0092 42.6414 44.9391C41.0653 44.9597 39.5011 44.6634 38.0418 44.0678C36.7216 43.5172 35.5377 42.685 34.5726 41.6294C33.6111 40.5232 32.8725 39.2416 32.3974 37.8551C31.864 36.3054 31.603 34.675 31.6258 33.0362C31.616 31.4248 31.8859 29.824 32.4233 28.3049C33.1453 26.1678 34.5257 24.3144 36.3665 23.0105C38.2072 21.7067 40.4137 21.0195 42.6693 21.0476C44.3346 21.0127 45.9814 21.4025 47.4544 22.18C48.7859 22.9101 49.9345 23.9327 50.8139 25.1707C51.7135 26.4698 52.3582 27.9278 52.714 29.4673C53.1042 31.1205 53.2433 32.823 53.1267 34.5175H37.6211C37.4954 36.1097 37.9922 37.6884 39.0068 38.9218ZM45.8095 27.0209C45.3756 26.5869 44.8538 26.251 44.2791 26.0357C43.7044 25.8204 43.0902 25.7307 42.4779 25.7728C41.6657 25.7418 40.8592 25.9218 40.1372 26.2952C39.5648 26.6103 39.0596 27.0343 38.6499 27.5433C38.2868 28.0205 38.0163 28.5615 37.8523 29.1383C37.7046 29.6194 37.6123 30.1157 37.5772 30.6177H47.1813C47.0976 29.3091 46.6209 28.0562 45.8135 27.0229L45.8095 27.0209Z" fill="url(#paint1_linear_315_49)"/>
<path d="M48.3736 15.1479H36.3391V18.2244H48.3736V15.1479Z" fill="url(#paint2_linear_315_49)"/>
<defs>
<linearGradient id="paint0_linear_315_49" x1="17.2736" y1="13.0557" x2="17.2736" y2="44.3509" gradientUnits="userSpaceOnUse">
<stop stop-color="#002262"/>
<stop offset="1" stop-color="white"/>
</linearGradient>
<linearGradient id="paint1_linear_315_49" x1="42.3955" y1="21.0454" x2="42.3955" y2="44.9444" gradientUnits="userSpaceOnUse">
<stop stop-color="#002262"/>
<stop offset="1" stop-color="white"/>
</linearGradient>
<linearGradient id="paint2_linear_315_49" x1="42.3563" y1="15.1479" x2="42.3563" y2="18.2244" gradientUnits="userSpaceOnUse">
<stop stop-color="#002262"/>
<stop offset="1" stop-color="white"/>
</linearGradient>
</defs>
</svg>
