<svg width="117" height="129" viewBox="0 0 117 129" fill="none" xmlns="http://www.w3.org/2000/svg">
<g clip-path="url(#clip0_226_41)">
<path d="M3.77419 1.88253C3.77419 2.92222 2.92931 3.76505 1.8871 3.76505C0.844882 3.76505 0 2.92222 0 1.88253C0 0.842836 0.844882 0 1.8871 0C2.92931 0 3.77419 0.842836 3.77419 1.88253Z" fill="url(#paint0_linear_226_41)"/>
<path d="M15.0968 1.88253C15.0968 2.92222 14.2519 3.76505 13.2097 3.76505C12.1675 3.76505 11.3226 2.92222 11.3226 1.88253C11.3226 0.842836 12.1675 0 13.2097 0C14.2519 0 15.0968 0.842836 15.0968 1.88253Z" fill="url(#paint1_linear_226_41)"/>
<path d="M26.4194 1.88253C26.4194 2.92222 25.5745 3.76505 24.5323 3.76505C23.49 3.76505 22.6452 2.92222 22.6452 1.88253C22.6452 0.842836 23.49 0 24.5323 0C25.5745 0 26.4194 0.842836 26.4194 1.88253Z" fill="url(#paint2_linear_226_41)"/>
<path d="M37.7419 1.88253C37.7419 2.92222 36.8971 3.76505 35.8548 3.76505C34.8126 3.76505 33.9677 2.92222 33.9677 1.88253C33.9677 0.842836 34.8126 0 35.8548 0C36.8971 0 37.7419 0.842836 37.7419 1.88253Z" fill="url(#paint3_linear_226_41)"/>
<path d="M49.0645 1.88253C49.0645 2.92222 48.2196 3.76505 47.1774 3.76505C46.1352 3.76505 45.2903 2.92222 45.2903 1.88253C45.2903 0.842836 46.1352 0 47.1774 0C48.2196 0 49.0645 0.842836 49.0645 1.88253Z" fill="url(#paint4_linear_226_41)"/>
<path d="M60.3871 1.88253C60.3871 2.92222 59.5422 3.76505 58.5 3.76505C57.4578 3.76505 56.6129 2.92222 56.6129 1.88253C56.6129 0.842836 57.4578 0 58.5 0C59.5422 0 60.3871 0.842836 60.3871 1.88253Z" fill="url(#paint5_linear_226_41)"/>
<path d="M71.7097 1.88253C71.7097 2.92222 70.8648 3.76505 69.8226 3.76505C68.7804 3.76505 67.9355 2.92222 67.9355 1.88253C67.9355 0.842836 68.7804 0 69.8226 0C70.8648 0 71.7097 0.842836 71.7097 1.88253Z" fill="url(#paint6_linear_226_41)"/>
<path d="M83.0323 1.88253C83.0323 2.92222 82.1874 3.76505 81.1452 3.76505C80.1029 3.76505 79.2581 2.92222 79.2581 1.88253C79.2581 0.842836 80.1029 0 81.1452 0C82.1874 0 83.0323 0.842836 83.0323 1.88253Z" fill="url(#paint7_linear_226_41)"/>
<path d="M94.3548 1.88253C94.3548 2.92222 93.51 3.76505 92.4677 3.76505C91.4255 3.76505 90.5806 2.92222 90.5806 1.88253C90.5806 0.842836 91.4255 0 92.4677 0C93.51 0 94.3548 0.842836 94.3548 1.88253Z" fill="url(#paint8_linear_226_41)"/>
<path d="M105.677 1.88253C105.677 2.92222 104.833 3.76505 103.79 3.76505C102.748 3.76505 101.903 2.92222 101.903 1.88253C101.903 0.842836 102.748 0 103.79 0C104.833 0 105.677 0.842836 105.677 1.88253Z" fill="url(#paint9_linear_226_41)"/>
<path d="M117 1.88253C117 2.92222 116.155 3.76505 115.113 3.76505C114.071 3.76505 113.226 2.92222 113.226 1.88253C113.226 0.842836 114.071 0 115.113 0C116.155 0 117 0.842836 117 1.88253Z" fill="url(#paint10_linear_226_41)"/>
<path d="M3.77419 13.1777C3.77419 14.2174 2.92931 15.0602 1.8871 15.0602C0.844882 15.0602 0 14.2174 0 13.1777C0 12.138 0.844882 11.2952 1.8871 11.2952C2.92931 11.2952 3.77419 12.138 3.77419 13.1777Z" fill="url(#paint11_linear_226_41)"/>
<path d="M15.0968 13.1777C15.0968 14.2174 14.2519 15.0602 13.2097 15.0602C12.1675 15.0602 11.3226 14.2174 11.3226 13.1777C11.3226 12.138 12.1675 11.2952 13.2097 11.2952C14.2519 11.2952 15.0968 12.138 15.0968 13.1777Z" fill="url(#paint12_linear_226_41)"/>
<path d="M26.4194 13.1777C26.4194 14.2174 25.5745 15.0602 24.5323 15.0602C23.49 15.0602 22.6452 14.2174 22.6452 13.1777C22.6452 12.138 23.49 11.2952 24.5323 11.2952C25.5745 11.2952 26.4194 12.138 26.4194 13.1777Z" fill="url(#paint13_linear_226_41)"/>
<path d="M37.7419 13.1777C37.7419 14.2174 36.8971 15.0602 35.8548 15.0602C34.8126 15.0602 33.9677 14.2174 33.9677 13.1777C33.9677 12.138 34.8126 11.2952 35.8548 11.2952C36.8971 11.2952 37.7419 12.138 37.7419 13.1777Z" fill="url(#paint14_linear_226_41)"/>
<path d="M49.0645 13.1777C49.0645 14.2174 48.2196 15.0602 47.1774 15.0602C46.1352 15.0602 45.2903 14.2174 45.2903 13.1777C45.2903 12.138 46.1352 11.2952 47.1774 11.2952C48.2196 11.2952 49.0645 12.138 49.0645 13.1777Z" fill="url(#paint15_linear_226_41)"/>
<path d="M60.3871 13.1777C60.3871 14.2174 59.5422 15.0602 58.5 15.0602C57.4578 15.0602 56.6129 14.2174 56.6129 13.1777C56.6129 12.138 57.4578 11.2952 58.5 11.2952C59.5422 11.2952 60.3871 12.138 60.3871 13.1777Z" fill="url(#paint16_linear_226_41)"/>
<path d="M71.7097 13.1777C71.7097 14.2174 70.8648 15.0602 69.8226 15.0602C68.7804 15.0602 67.9355 14.2174 67.9355 13.1777C67.9355 12.138 68.7804 11.2952 69.8226 11.2952C70.8648 11.2952 71.7097 12.138 71.7097 13.1777Z" fill="url(#paint17_linear_226_41)"/>
<path d="M83.0323 13.1777C83.0323 14.2174 82.1874 15.0602 81.1452 15.0602C80.1029 15.0602 79.2581 14.2174 79.2581 13.1777C79.2581 12.138 80.1029 11.2952 81.1452 11.2952C82.1874 11.2952 83.0323 12.138 83.0323 13.1777Z" fill="url(#paint18_linear_226_41)"/>
<path d="M94.3548 13.1777C94.3548 14.2174 93.51 15.0602 92.4677 15.0602C91.4255 15.0602 90.5806 14.2174 90.5806 13.1777C90.5806 12.138 91.4255 11.2952 92.4677 11.2952C93.51 11.2952 94.3548 12.138 94.3548 13.1777Z" fill="url(#paint19_linear_226_41)"/>
<path d="M105.677 13.1777C105.677 14.2174 104.833 15.0602 103.79 15.0602C102.748 15.0602 101.903 14.2174 101.903 13.1777C101.903 12.138 102.748 11.2952 103.79 11.2952C104.833 11.2952 105.677 12.138 105.677 13.1777Z" fill="url(#paint20_linear_226_41)"/>
<path d="M117 13.1777C117 14.2174 116.155 15.0602 115.113 15.0602C114.071 15.0602 113.226 14.2174 113.226 13.1777C113.226 12.138 114.071 11.2952 115.113 11.2952C116.155 11.2952 117 12.138 117 13.1777Z" fill="url(#paint21_linear_226_41)"/>
<path d="M3.77419 24.4728C3.77419 25.5125 2.92931 26.3554 1.8871 26.3554C0.844882 26.3554 0 25.5125 0 24.4728C0 23.4331 0.844882 22.5903 1.8871 22.5903C2.92931 22.5903 3.77419 23.4331 3.77419 24.4728Z" fill="url(#paint22_linear_226_41)"/>
<path d="M15.0968 24.4728C15.0968 25.5125 14.2519 26.3554 13.2097 26.3554C12.1675 26.3554 11.3226 25.5125 11.3226 24.4728C11.3226 23.4331 12.1675 22.5903 13.2097 22.5903C14.2519 22.5903 15.0968 23.4331 15.0968 24.4728Z" fill="url(#paint23_linear_226_41)"/>
<path d="M26.4194 24.4728C26.4194 25.5125 25.5745 26.3554 24.5323 26.3554C23.49 26.3554 22.6452 25.5125 22.6452 24.4728C22.6452 23.4331 23.49 22.5903 24.5323 22.5903C25.5745 22.5903 26.4194 23.4331 26.4194 24.4728Z" fill="url(#paint24_linear_226_41)"/>
<path d="M37.7419 24.4728C37.7419 25.5125 36.8971 26.3554 35.8548 26.3554C34.8126 26.3554 33.9677 25.5125 33.9677 24.4728C33.9677 23.4331 34.8126 22.5903 35.8548 22.5903C36.8971 22.5903 37.7419 23.4331 37.7419 24.4728Z" fill="url(#paint25_linear_226_41)"/>
<path d="M49.0645 24.4728C49.0645 25.5125 48.2196 26.3554 47.1774 26.3554C46.1352 26.3554 45.2903 25.5125 45.2903 24.4728C45.2903 23.4331 46.1352 22.5903 47.1774 22.5903C48.2196 22.5903 49.0645 23.4331 49.0645 24.4728Z" fill="url(#paint26_linear_226_41)"/>
<path d="M60.3871 24.4728C60.3871 25.5125 59.5422 26.3554 58.5 26.3554C57.4578 26.3554 56.6129 25.5125 56.6129 24.4728C56.6129 23.4331 57.4578 22.5903 58.5 22.5903C59.5422 22.5903 60.3871 23.4331 60.3871 24.4728Z" fill="url(#paint27_linear_226_41)"/>
<path d="M71.7097 24.4728C71.7097 25.5125 70.8648 26.3554 69.8226 26.3554C68.7804 26.3554 67.9355 25.5125 67.9355 24.4728C67.9355 23.4331 68.7804 22.5903 69.8226 22.5903C70.8648 22.5903 71.7097 23.4331 71.7097 24.4728Z" fill="url(#paint28_linear_226_41)"/>
<path d="M83.0323 24.4728C83.0323 25.5125 82.1874 26.3554 81.1452 26.3554C80.1029 26.3554 79.2581 25.5125 79.2581 24.4728C79.2581 23.4331 80.1029 22.5903 81.1452 22.5903C82.1874 22.5903 83.0323 23.4331 83.0323 24.4728Z" fill="url(#paint29_linear_226_41)"/>
<path d="M94.3548 24.4728C94.3548 25.5125 93.51 26.3554 92.4677 26.3554C91.4255 26.3554 90.5806 25.5125 90.5806 24.4728C90.5806 23.4331 91.4255 22.5903 92.4677 22.5903C93.51 22.5903 94.3548 23.4331 94.3548 24.4728Z" fill="url(#paint30_linear_226_41)"/>
<path d="M105.677 24.4728C105.677 25.5125 104.833 26.3554 103.79 26.3554C102.748 26.3554 101.903 25.5125 101.903 24.4728C101.903 23.4331 102.748 22.5903 103.79 22.5903C104.833 22.5903 105.677 23.4331 105.677 24.4728Z" fill="url(#paint31_linear_226_41)"/>
<path d="M117 24.4728C117 25.5125 116.155 26.3554 115.113 26.3554C114.071 26.3554 113.226 25.5125 113.226 24.4728C113.226 23.4331 114.071 22.5903 115.113 22.5903C116.155 22.5903 117 23.4331 117 24.4728Z" fill="url(#paint32_linear_226_41)"/>
<path d="M3.77419 35.768C3.77419 36.8077 2.92931 37.6505 1.8871 37.6505C0.844882 37.6505 0 36.8077 0 35.768C0 34.7283 0.844882 33.8855 1.8871 33.8855C2.92931 33.8855 3.77419 34.7283 3.77419 35.768Z" fill="url(#paint33_linear_226_41)"/>
<path d="M15.0968 35.768C15.0968 36.8077 14.2519 37.6505 13.2097 37.6505C12.1675 37.6505 11.3226 36.8077 11.3226 35.768C11.3226 34.7283 12.1675 33.8855 13.2097 33.8855C14.2519 33.8855 15.0968 34.7283 15.0968 35.768Z" fill="url(#paint34_linear_226_41)"/>
<path d="M26.4194 35.768C26.4194 36.8077 25.5745 37.6505 24.5323 37.6505C23.49 37.6505 22.6452 36.8077 22.6452 35.768C22.6452 34.7283 23.49 33.8855 24.5323 33.8855C25.5745 33.8855 26.4194 34.7283 26.4194 35.768Z" fill="url(#paint35_linear_226_41)"/>
<path d="M37.7419 35.768C37.7419 36.8077 36.8971 37.6505 35.8548 37.6505C34.8126 37.6505 33.9677 36.8077 33.9677 35.768C33.9677 34.7283 34.8126 33.8855 35.8548 33.8855C36.8971 33.8855 37.7419 34.7283 37.7419 35.768Z" fill="url(#paint36_linear_226_41)"/>
<path d="M49.0645 35.768C49.0645 36.8077 48.2196 37.6505 47.1774 37.6505C46.1352 37.6505 45.2903 36.8077 45.2903 35.768C45.2903 34.7283 46.1352 33.8855 47.1774 33.8855C48.2196 33.8855 49.0645 34.7283 49.0645 35.768Z" fill="url(#paint37_linear_226_41)"/>
<path d="M60.3871 35.768C60.3871 36.8077 59.5422 37.6505 58.5 37.6505C57.4578 37.6505 56.6129 36.8077 56.6129 35.768C56.6129 34.7283 57.4578 33.8855 58.5 33.8855C59.5422 33.8855 60.3871 34.7283 60.3871 35.768Z" fill="url(#paint38_linear_226_41)"/>
<path d="M71.7097 35.768C71.7097 36.8077 70.8648 37.6505 69.8226 37.6505C68.7804 37.6505 67.9355 36.8077 67.9355 35.768C67.9355 34.7283 68.7804 33.8855 69.8226 33.8855C70.8648 33.8855 71.7097 34.7283 71.7097 35.768Z" fill="url(#paint39_linear_226_41)"/>
<path d="M83.0323 35.768C83.0323 36.8077 82.1874 37.6505 81.1452 37.6505C80.1029 37.6505 79.2581 36.8077 79.2581 35.768C79.2581 34.7283 80.1029 33.8855 81.1452 33.8855C82.1874 33.8855 83.0323 34.7283 83.0323 35.768Z" fill="url(#paint40_linear_226_41)"/>
<path d="M94.3548 35.768C94.3548 36.8077 93.51 37.6505 92.4677 37.6505C91.4255 37.6505 90.5806 36.8077 90.5806 35.768C90.5806 34.7283 91.4255 33.8855 92.4677 33.8855C93.51 33.8855 94.3548 34.7283 94.3548 35.768Z" fill="url(#paint41_linear_226_41)"/>
<path d="M105.677 35.768C105.677 36.8077 104.833 37.6505 103.79 37.6505C102.748 37.6505 101.903 36.8077 101.903 35.768C101.903 34.7283 102.748 33.8855 103.79 33.8855C104.833 33.8855 105.677 34.7283 105.677 35.768Z" fill="url(#paint42_linear_226_41)"/>
<path d="M117 35.768C117 36.8077 116.155 37.6505 115.113 37.6505C114.071 37.6505 113.226 36.8077 113.226 35.768C113.226 34.7283 114.071 33.8855 115.113 33.8855C116.155 33.8855 117 34.7283 117 35.768Z" fill="url(#paint43_linear_226_41)"/>
<path d="M3.77419 47.0631C3.77419 48.1028 2.92931 48.9457 1.8871 48.9457C0.844882 48.9457 0 48.1028 0 47.0631C0 46.0235 0.844882 45.1806 1.8871 45.1806C2.92931 45.1806 3.77419 46.0235 3.77419 47.0631Z" fill="url(#paint44_linear_226_41)"/>
<path d="M15.0968 47.0631C15.0968 48.1028 14.2519 48.9457 13.2097 48.9457C12.1675 48.9457 11.3226 48.1028 11.3226 47.0631C11.3226 46.0235 12.1675 45.1806 13.2097 45.1806C14.2519 45.1806 15.0968 46.0235 15.0968 47.0631Z" fill="url(#paint45_linear_226_41)"/>
<path d="M26.4194 47.0631C26.4194 48.1028 25.5745 48.9457 24.5323 48.9457C23.49 48.9457 22.6452 48.1028 22.6452 47.0631C22.6452 46.0235 23.49 45.1806 24.5323 45.1806C25.5745 45.1806 26.4194 46.0235 26.4194 47.0631Z" fill="url(#paint46_linear_226_41)"/>
<path d="M37.7419 47.0631C37.7419 48.1028 36.8971 48.9457 35.8548 48.9457C34.8126 48.9457 33.9677 48.1028 33.9677 47.0631C33.9677 46.0235 34.8126 45.1806 35.8548 45.1806C36.8971 45.1806 37.7419 46.0235 37.7419 47.0631Z" fill="url(#paint47_linear_226_41)"/>
<path d="M49.0645 47.0631C49.0645 48.1028 48.2196 48.9457 47.1774 48.9457C46.1352 48.9457 45.2903 48.1028 45.2903 47.0631C45.2903 46.0235 46.1352 45.1806 47.1774 45.1806C48.2196 45.1806 49.0645 46.0235 49.0645 47.0631Z" fill="url(#paint48_linear_226_41)"/>
<path d="M60.3871 47.0631C60.3871 48.1028 59.5422 48.9457 58.5 48.9457C57.4578 48.9457 56.6129 48.1028 56.6129 47.0631C56.6129 46.0235 57.4578 45.1806 58.5 45.1806C59.5422 45.1806 60.3871 46.0235 60.3871 47.0631Z" fill="url(#paint49_linear_226_41)"/>
<path d="M71.7097 47.0631C71.7097 48.1028 70.8648 48.9457 69.8226 48.9457C68.7804 48.9457 67.9355 48.1028 67.9355 47.0631C67.9355 46.0235 68.7804 45.1806 69.8226 45.1806C70.8648 45.1806 71.7097 46.0235 71.7097 47.0631Z" fill="url(#paint50_linear_226_41)"/>
<path d="M83.0323 47.0631C83.0323 48.1028 82.1874 48.9457 81.1452 48.9457C80.1029 48.9457 79.2581 48.1028 79.2581 47.0631C79.2581 46.0235 80.1029 45.1806 81.1452 45.1806C82.1874 45.1806 83.0323 46.0235 83.0323 47.0631Z" fill="url(#paint51_linear_226_41)"/>
<path d="M94.3548 47.0631C94.3548 48.1028 93.51 48.9457 92.4677 48.9457C91.4255 48.9457 90.5806 48.1028 90.5806 47.0631C90.5806 46.0235 91.4255 45.1806 92.4677 45.1806C93.51 45.1806 94.3548 46.0235 94.3548 47.0631Z" fill="url(#paint52_linear_226_41)"/>
<path d="M105.677 47.0631C105.677 48.1028 104.833 48.9457 103.79 48.9457C102.748 48.9457 101.903 48.1028 101.903 47.0631C101.903 46.0235 102.748 45.1806 103.79 45.1806C104.833 45.1806 105.677 46.0235 105.677 47.0631Z" fill="url(#paint53_linear_226_41)"/>
<path d="M117 47.0631C117 48.1028 116.155 48.9457 115.113 48.9457C114.071 48.9457 113.226 48.1028 113.226 47.0631C113.226 46.0235 114.071 45.1806 115.113 45.1806C116.155 45.1806 117 46.0235 117 47.0631Z" fill="url(#paint54_linear_226_41)"/>
<path d="M3.77419 58.3583C3.77419 59.398 2.92931 60.2408 1.8871 60.2408C0.844882 60.2408 0 59.398 0 58.3583C0 57.3186 0.844882 56.4758 1.8871 56.4758C2.92931 56.4758 3.77419 57.3186 3.77419 58.3583Z" fill="url(#paint55_linear_226_41)"/>
<path d="M15.0968 58.3583C15.0968 59.398 14.2519 60.2408 13.2097 60.2408C12.1675 60.2408 11.3226 59.398 11.3226 58.3583C11.3226 57.3186 12.1675 56.4758 13.2097 56.4758C14.2519 56.4758 15.0968 57.3186 15.0968 58.3583Z" fill="url(#paint56_linear_226_41)"/>
<path d="M26.4194 58.3583C26.4194 59.398 25.5745 60.2408 24.5323 60.2408C23.49 60.2408 22.6452 59.398 22.6452 58.3583C22.6452 57.3186 23.49 56.4758 24.5323 56.4758C25.5745 56.4758 26.4194 57.3186 26.4194 58.3583Z" fill="url(#paint57_linear_226_41)"/>
<path d="M37.7419 58.3583C37.7419 59.398 36.8971 60.2408 35.8548 60.2408C34.8126 60.2408 33.9677 59.398 33.9677 58.3583C33.9677 57.3186 34.8126 56.4758 35.8548 56.4758C36.8971 56.4758 37.7419 57.3186 37.7419 58.3583Z" fill="url(#paint58_linear_226_41)"/>
<path d="M49.0645 58.3583C49.0645 59.398 48.2196 60.2408 47.1774 60.2408C46.1352 60.2408 45.2903 59.398 45.2903 58.3583C45.2903 57.3186 46.1352 56.4758 47.1774 56.4758C48.2196 56.4758 49.0645 57.3186 49.0645 58.3583Z" fill="url(#paint59_linear_226_41)"/>
<path d="M60.3871 58.3583C60.3871 59.398 59.5422 60.2408 58.5 60.2408C57.4578 60.2408 56.6129 59.398 56.6129 58.3583C56.6129 57.3186 57.4578 56.4758 58.5 56.4758C59.5422 56.4758 60.3871 57.3186 60.3871 58.3583Z" fill="url(#paint60_linear_226_41)"/>
<path d="M71.7097 58.3583C71.7097 59.398 70.8648 60.2408 69.8226 60.2408C68.7804 60.2408 67.9355 59.398 67.9355 58.3583C67.9355 57.3186 68.7804 56.4758 69.8226 56.4758C70.8648 56.4758 71.7097 57.3186 71.7097 58.3583Z" fill="url(#paint61_linear_226_41)"/>
<path d="M83.0323 58.3583C83.0323 59.398 82.1874 60.2408 81.1452 60.2408C80.1029 60.2408 79.2581 59.398 79.2581 58.3583C79.2581 57.3186 80.1029 56.4758 81.1452 56.4758C82.1874 56.4758 83.0323 57.3186 83.0323 58.3583Z" fill="url(#paint62_linear_226_41)"/>
<path d="M94.3548 58.3583C94.3548 59.398 93.51 60.2408 92.4677 60.2408C91.4255 60.2408 90.5806 59.398 90.5806 58.3583C90.5806 57.3186 91.4255 56.4758 92.4677 56.4758C93.51 56.4758 94.3548 57.3186 94.3548 58.3583Z" fill="url(#paint63_linear_226_41)"/>
<path d="M105.677 58.3583C105.677 59.398 104.833 60.2408 103.79 60.2408C102.748 60.2408 101.903 59.398 101.903 58.3583C101.903 57.3186 102.748 56.4758 103.79 56.4758C104.833 56.4758 105.677 57.3186 105.677 58.3583Z" fill="url(#paint64_linear_226_41)"/>
<path d="M117 58.3583C117 59.398 116.155 60.2408 115.113 60.2408C114.071 60.2408 113.226 59.398 113.226 58.3583C113.226 57.3186 114.071 56.4758 115.113 56.4758C116.155 56.4758 117 57.3186 117 58.3583Z" fill="url(#paint65_linear_226_41)"/>
<path d="M3.77419 69.6535C3.77419 70.6932 2.92931 71.536 1.8871 71.536C0.844882 71.536 0 70.6932 0 69.6535C0 68.6138 0.844882 67.7709 1.8871 67.7709C2.92931 67.7709 3.77419 68.6138 3.77419 69.6535Z" fill="url(#paint66_linear_226_41)"/>
<path d="M15.0968 69.6535C15.0968 70.6932 14.2519 71.536 13.2097 71.536C12.1675 71.536 11.3226 70.6932 11.3226 69.6535C11.3226 68.6138 12.1675 67.7709 13.2097 67.7709C14.2519 67.7709 15.0968 68.6138 15.0968 69.6535Z" fill="url(#paint67_linear_226_41)"/>
<path d="M26.4194 69.6535C26.4194 70.6932 25.5745 71.536 24.5323 71.536C23.49 71.536 22.6452 70.6932 22.6452 69.6535C22.6452 68.6138 23.49 67.7709 24.5323 67.7709C25.5745 67.7709 26.4194 68.6138 26.4194 69.6535Z" fill="url(#paint68_linear_226_41)"/>
<path d="M37.7419 69.6535C37.7419 70.6932 36.8971 71.536 35.8548 71.536C34.8126 71.536 33.9677 70.6932 33.9677 69.6535C33.9677 68.6138 34.8126 67.7709 35.8548 67.7709C36.8971 67.7709 37.7419 68.6138 37.7419 69.6535Z" fill="url(#paint69_linear_226_41)"/>
<path d="M49.0645 69.6535C49.0645 70.6932 48.2196 71.536 47.1774 71.536C46.1352 71.536 45.2903 70.6932 45.2903 69.6535C45.2903 68.6138 46.1352 67.7709 47.1774 67.7709C48.2196 67.7709 49.0645 68.6138 49.0645 69.6535Z" fill="url(#paint70_linear_226_41)"/>
<path d="M60.3871 69.6535C60.3871 70.6932 59.5422 71.536 58.5 71.536C57.4578 71.536 56.6129 70.6932 56.6129 69.6535C56.6129 68.6138 57.4578 67.7709 58.5 67.7709C59.5422 67.7709 60.3871 68.6138 60.3871 69.6535Z" fill="url(#paint71_linear_226_41)"/>
<path d="M71.7097 69.6535C71.7097 70.6932 70.8648 71.536 69.8226 71.536C68.7804 71.536 67.9355 70.6932 67.9355 69.6535C67.9355 68.6138 68.7804 67.7709 69.8226 67.7709C70.8648 67.7709 71.7097 68.6138 71.7097 69.6535Z" fill="url(#paint72_linear_226_41)"/>
<path d="M83.0323 69.6535C83.0323 70.6932 82.1874 71.536 81.1452 71.536C80.1029 71.536 79.2581 70.6932 79.2581 69.6535C79.2581 68.6138 80.1029 67.7709 81.1452 67.7709C82.1874 67.7709 83.0323 68.6138 83.0323 69.6535Z" fill="url(#paint73_linear_226_41)"/>
<path d="M94.3548 69.6535C94.3548 70.6932 93.51 71.536 92.4677 71.536C91.4255 71.536 90.5806 70.6932 90.5806 69.6535C90.5806 68.6138 91.4255 67.7709 92.4677 67.7709C93.51 67.7709 94.3548 68.6138 94.3548 69.6535Z" fill="url(#paint74_linear_226_41)"/>
<path d="M105.677 69.6535C105.677 70.6932 104.833 71.536 103.79 71.536C102.748 71.536 101.903 70.6932 101.903 69.6535C101.903 68.6138 102.748 67.7709 103.79 67.7709C104.833 67.7709 105.677 68.6138 105.677 69.6535Z" fill="url(#paint75_linear_226_41)"/>
<path d="M117 69.6535C117 70.6932 116.155 71.536 115.113 71.536C114.071 71.536 113.226 70.6932 113.226 69.6535C113.226 68.6138 114.071 67.7709 115.113 67.7709C116.155 67.7709 117 68.6138 117 69.6535Z" fill="url(#paint76_linear_226_41)"/>
<path d="M3.77419 80.9486C3.77419 81.9883 2.92931 82.8311 1.8871 82.8311C0.844882 82.8311 0 81.9883 0 80.9486C0 79.9089 0.844882 79.0661 1.8871 79.0661C2.92931 79.0661 3.77419 79.9089 3.77419 80.9486Z" fill="url(#paint77_linear_226_41)"/>
<path d="M15.0968 80.9486C15.0968 81.9883 14.2519 82.8311 13.2097 82.8311C12.1675 82.8311 11.3226 81.9883 11.3226 80.9486C11.3226 79.9089 12.1675 79.0661 13.2097 79.0661C14.2519 79.0661 15.0968 79.9089 15.0968 80.9486Z" fill="url(#paint78_linear_226_41)"/>
<path d="M26.4194 80.9486C26.4194 81.9883 25.5745 82.8311 24.5323 82.8311C23.49 82.8311 22.6452 81.9883 22.6452 80.9486C22.6452 79.9089 23.49 79.0661 24.5323 79.0661C25.5745 79.0661 26.4194 79.9089 26.4194 80.9486Z" fill="url(#paint79_linear_226_41)"/>
<path d="M37.7419 80.9486C37.7419 81.9883 36.8971 82.8311 35.8548 82.8311C34.8126 82.8311 33.9677 81.9883 33.9677 80.9486C33.9677 79.9089 34.8126 79.0661 35.8548 79.0661C36.8971 79.0661 37.7419 79.9089 37.7419 80.9486Z" fill="url(#paint80_linear_226_41)"/>
<path d="M49.0645 80.9486C49.0645 81.9883 48.2196 82.8311 47.1774 82.8311C46.1352 82.8311 45.2903 81.9883 45.2903 80.9486C45.2903 79.9089 46.1352 79.0661 47.1774 79.0661C48.2196 79.0661 49.0645 79.9089 49.0645 80.9486Z" fill="url(#paint81_linear_226_41)"/>
<path d="M60.3871 80.9486C60.3871 81.9883 59.5422 82.8311 58.5 82.8311C57.4578 82.8311 56.6129 81.9883 56.6129 80.9486C56.6129 79.9089 57.4578 79.0661 58.5 79.0661C59.5422 79.0661 60.3871 79.9089 60.3871 80.9486Z" fill="url(#paint82_linear_226_41)"/>
<path d="M71.7097 80.9486C71.7097 81.9883 70.8648 82.8311 69.8226 82.8311C68.7804 82.8311 67.9355 81.9883 67.9355 80.9486C67.9355 79.9089 68.7804 79.0661 69.8226 79.0661C70.8648 79.0661 71.7097 79.9089 71.7097 80.9486Z" fill="url(#paint83_linear_226_41)"/>
<path d="M83.0323 80.9486C83.0323 81.9883 82.1874 82.8311 81.1452 82.8311C80.1029 82.8311 79.2581 81.9883 79.2581 80.9486C79.2581 79.9089 80.1029 79.0661 81.1452 79.0661C82.1874 79.0661 83.0323 79.9089 83.0323 80.9486Z" fill="url(#paint84_linear_226_41)"/>
<path d="M94.3548 80.9486C94.3548 81.9883 93.51 82.8311 92.4677 82.8311C91.4255 82.8311 90.5806 81.9883 90.5806 80.9486C90.5806 79.9089 91.4255 79.0661 92.4677 79.0661C93.51 79.0661 94.3548 79.9089 94.3548 80.9486Z" fill="url(#paint85_linear_226_41)"/>
<path d="M105.677 80.9486C105.677 81.9883 104.833 82.8311 103.79 82.8311C102.748 82.8311 101.903 81.9883 101.903 80.9486C101.903 79.9089 102.748 79.0661 103.79 79.0661C104.833 79.0661 105.677 79.9089 105.677 80.9486Z" fill="url(#paint86_linear_226_41)"/>
<path d="M117 80.9486C117 81.9883 116.155 82.8311 115.113 82.8311C114.071 82.8311 113.226 81.9883 113.226 80.9486C113.226 79.9089 114.071 79.0661 115.113 79.0661C116.155 79.0661 117 79.9089 117 80.9486Z" fill="url(#paint87_linear_226_41)"/>
<path d="M3.77419 92.2438C3.77419 93.2835 2.92931 94.1263 1.8871 94.1263C0.844882 94.1263 0 93.2835 0 92.2438C0 91.2041 0.844882 90.3612 1.8871 90.3612C2.92931 90.3612 3.77419 91.2041 3.77419 92.2438Z" fill="url(#paint88_linear_226_41)"/>
<path d="M15.0968 92.2438C15.0968 93.2835 14.2519 94.1263 13.2097 94.1263C12.1675 94.1263 11.3226 93.2835 11.3226 92.2438C11.3226 91.2041 12.1675 90.3612 13.2097 90.3612C14.2519 90.3612 15.0968 91.2041 15.0968 92.2438Z" fill="url(#paint89_linear_226_41)"/>
<path d="M26.4194 92.2438C26.4194 93.2835 25.5745 94.1263 24.5323 94.1263C23.49 94.1263 22.6452 93.2835 22.6452 92.2438C22.6452 91.2041 23.49 90.3612 24.5323 90.3612C25.5745 90.3612 26.4194 91.2041 26.4194 92.2438Z" fill="url(#paint90_linear_226_41)"/>
<path d="M37.7419 92.2438C37.7419 93.2835 36.8971 94.1263 35.8548 94.1263C34.8126 94.1263 33.9677 93.2835 33.9677 92.2438C33.9677 91.2041 34.8126 90.3612 35.8548 90.3612C36.8971 90.3612 37.7419 91.2041 37.7419 92.2438Z" fill="url(#paint91_linear_226_41)"/>
<path d="M49.0645 92.2438C49.0645 93.2835 48.2196 94.1263 47.1774 94.1263C46.1352 94.1263 45.2903 93.2835 45.2903 92.2438C45.2903 91.2041 46.1352 90.3612 47.1774 90.3612C48.2196 90.3612 49.0645 91.2041 49.0645 92.2438Z" fill="url(#paint92_linear_226_41)"/>
<path d="M60.3871 92.2438C60.3871 93.2835 59.5422 94.1263 58.5 94.1263C57.4578 94.1263 56.6129 93.2835 56.6129 92.2438C56.6129 91.2041 57.4578 90.3612 58.5 90.3612C59.5422 90.3612 60.3871 91.2041 60.3871 92.2438Z" fill="url(#paint93_linear_226_41)"/>
<path d="M71.7097 92.2438C71.7097 93.2835 70.8648 94.1263 69.8226 94.1263C68.7804 94.1263 67.9355 93.2835 67.9355 92.2438C67.9355 91.2041 68.7804 90.3612 69.8226 90.3612C70.8648 90.3612 71.7097 91.2041 71.7097 92.2438Z" fill="url(#paint94_linear_226_41)"/>
<path d="M83.0323 92.2438C83.0323 93.2835 82.1874 94.1263 81.1452 94.1263C80.1029 94.1263 79.2581 93.2835 79.2581 92.2438C79.2581 91.2041 80.1029 90.3612 81.1452 90.3612C82.1874 90.3612 83.0323 91.2041 83.0323 92.2438Z" fill="url(#paint95_linear_226_41)"/>
<path d="M94.3548 92.2438C94.3548 93.2835 93.51 94.1263 92.4677 94.1263C91.4255 94.1263 90.5806 93.2835 90.5806 92.2438C90.5806 91.2041 91.4255 90.3612 92.4677 90.3612C93.51 90.3612 94.3548 91.2041 94.3548 92.2438Z" fill="url(#paint96_linear_226_41)"/>
<path d="M105.677 92.2438C105.677 93.2835 104.833 94.1263 103.79 94.1263C102.748 94.1263 101.903 93.2835 101.903 92.2438C101.903 91.2041 102.748 90.3612 103.79 90.3612C104.833 90.3612 105.677 91.2041 105.677 92.2438Z" fill="url(#paint97_linear_226_41)"/>
<path d="M117 92.2438C117 93.2835 116.155 94.1263 115.113 94.1263C114.071 94.1263 113.226 93.2835 113.226 92.2438C113.226 91.2041 114.071 90.3612 115.113 90.3612C116.155 90.3612 117 91.2041 117 92.2438Z" fill="url(#paint98_linear_226_41)"/>
<path d="M3.77419 103.539C3.77419 104.579 2.92931 105.421 1.8871 105.421C0.844882 105.421 0 104.579 0 103.539C0 102.499 0.844882 101.656 1.8871 101.656C2.92931 101.656 3.77419 102.499 3.77419 103.539Z" fill="url(#paint99_linear_226_41)"/>
<path d="M15.0968 103.539C15.0968 104.579 14.2519 105.421 13.2097 105.421C12.1675 105.421 11.3226 104.579 11.3226 103.539C11.3226 102.499 12.1675 101.656 13.2097 101.656C14.2519 101.656 15.0968 102.499 15.0968 103.539Z" fill="url(#paint100_linear_226_41)"/>
<path d="M26.4194 103.539C26.4194 104.579 25.5745 105.421 24.5323 105.421C23.49 105.421 22.6452 104.579 22.6452 103.539C22.6452 102.499 23.49 101.656 24.5323 101.656C25.5745 101.656 26.4194 102.499 26.4194 103.539Z" fill="url(#paint101_linear_226_41)"/>
<path d="M37.7419 103.539C37.7419 104.579 36.8971 105.421 35.8548 105.421C34.8126 105.421 33.9677 104.579 33.9677 103.539C33.9677 102.499 34.8126 101.656 35.8548 101.656C36.8971 101.656 37.7419 102.499 37.7419 103.539Z" fill="url(#paint102_linear_226_41)"/>
<path d="M49.0645 103.539C49.0645 104.579 48.2196 105.421 47.1774 105.421C46.1352 105.421 45.2903 104.579 45.2903 103.539C45.2903 102.499 46.1352 101.656 47.1774 101.656C48.2196 101.656 49.0645 102.499 49.0645 103.539Z" fill="url(#paint103_linear_226_41)"/>
<path d="M60.3871 103.539C60.3871 104.579 59.5422 105.421 58.5 105.421C57.4578 105.421 56.6129 104.579 56.6129 103.539C56.6129 102.499 57.4578 101.656 58.5 101.656C59.5422 101.656 60.3871 102.499 60.3871 103.539Z" fill="url(#paint104_linear_226_41)"/>
<path d="M71.7097 103.539C71.7097 104.579 70.8648 105.421 69.8226 105.421C68.7804 105.421 67.9355 104.579 67.9355 103.539C67.9355 102.499 68.7804 101.656 69.8226 101.656C70.8648 101.656 71.7097 102.499 71.7097 103.539Z" fill="url(#paint105_linear_226_41)"/>
<path d="M83.0323 103.539C83.0323 104.579 82.1874 105.421 81.1452 105.421C80.1029 105.421 79.2581 104.579 79.2581 103.539C79.2581 102.499 80.1029 101.656 81.1452 101.656C82.1874 101.656 83.0323 102.499 83.0323 103.539Z" fill="url(#paint106_linear_226_41)"/>
<path d="M94.3548 103.539C94.3548 104.579 93.51 105.421 92.4677 105.421C91.4255 105.421 90.5806 104.579 90.5806 103.539C90.5806 102.499 91.4255 101.656 92.4677 101.656C93.51 101.656 94.3548 102.499 94.3548 103.539Z" fill="url(#paint107_linear_226_41)"/>
<path d="M105.677 103.539C105.677 104.579 104.833 105.421 103.79 105.421C102.748 105.421 101.903 104.579 101.903 103.539C101.903 102.499 102.748 101.656 103.79 101.656C104.833 101.656 105.677 102.499 105.677 103.539Z" fill="url(#paint108_linear_226_41)"/>
<path d="M117 103.539C117 104.579 116.155 105.421 115.113 105.421C114.071 105.421 113.226 104.579 113.226 103.539C113.226 102.499 114.071 101.656 115.113 101.656C116.155 101.656 117 102.499 117 103.539Z" fill="url(#paint109_linear_226_41)"/>
<path d="M3.77419 114.834C3.77419 115.874 2.92931 116.717 1.8871 116.717C0.844882 116.717 0 115.874 0 114.834C0 113.794 0.844882 112.952 1.8871 112.952C2.92931 112.952 3.77419 113.794 3.77419 114.834Z" fill="url(#paint110_linear_226_41)"/>
<path d="M15.0968 114.834C15.0968 115.874 14.2519 116.717 13.2097 116.717C12.1675 116.717 11.3226 115.874 11.3226 114.834C11.3226 113.794 12.1675 112.952 13.2097 112.952C14.2519 112.952 15.0968 113.794 15.0968 114.834Z" fill="url(#paint111_linear_226_41)"/>
<path d="M26.4194 114.834C26.4194 115.874 25.5745 116.717 24.5323 116.717C23.49 116.717 22.6452 115.874 22.6452 114.834C22.6452 113.794 23.49 112.952 24.5323 112.952C25.5745 112.952 26.4194 113.794 26.4194 114.834Z" fill="url(#paint112_linear_226_41)"/>
<path d="M37.7419 114.834C37.7419 115.874 36.8971 116.717 35.8548 116.717C34.8126 116.717 33.9677 115.874 33.9677 114.834C33.9677 113.794 34.8126 112.952 35.8548 112.952C36.8971 112.952 37.7419 113.794 37.7419 114.834Z" fill="url(#paint113_linear_226_41)"/>
<path d="M49.0645 114.834C49.0645 115.874 48.2196 116.717 47.1774 116.717C46.1352 116.717 45.2903 115.874 45.2903 114.834C45.2903 113.794 46.1352 112.952 47.1774 112.952C48.2196 112.952 49.0645 113.794 49.0645 114.834Z" fill="url(#paint114_linear_226_41)"/>
<path d="M60.3871 114.834C60.3871 115.874 59.5422 116.717 58.5 116.717C57.4578 116.717 56.6129 115.874 56.6129 114.834C56.6129 113.794 57.4578 112.952 58.5 112.952C59.5422 112.952 60.3871 113.794 60.3871 114.834Z" fill="url(#paint115_linear_226_41)"/>
<path d="M71.7097 114.834C71.7097 115.874 70.8648 116.717 69.8226 116.717C68.7804 116.717 67.9355 115.874 67.9355 114.834C67.9355 113.794 68.7804 112.952 69.8226 112.952C70.8648 112.952 71.7097 113.794 71.7097 114.834Z" fill="url(#paint116_linear_226_41)"/>
<path d="M83.0323 114.834C83.0323 115.874 82.1874 116.717 81.1452 116.717C80.1029 116.717 79.2581 115.874 79.2581 114.834C79.2581 113.794 80.1029 112.952 81.1452 112.952C82.1874 112.952 83.0323 113.794 83.0323 114.834Z" fill="url(#paint117_linear_226_41)"/>
<path d="M94.3548 114.834C94.3548 115.874 93.51 116.717 92.4677 116.717C91.4255 116.717 90.5806 115.874 90.5806 114.834C90.5806 113.794 91.4255 112.952 92.4677 112.952C93.51 112.952 94.3548 113.794 94.3548 114.834Z" fill="url(#paint118_linear_226_41)"/>
<path d="M105.677 114.834C105.677 115.874 104.833 116.717 103.79 116.717C102.748 116.717 101.903 115.874 101.903 114.834C101.903 113.794 102.748 112.952 103.79 112.952C104.833 112.952 105.677 113.794 105.677 114.834Z" fill="url(#paint119_linear_226_41)"/>
<path d="M117 114.834C117 115.874 116.155 116.717 115.113 116.717C114.071 116.717 113.226 115.874 113.226 114.834C113.226 113.794 114.071 112.952 115.113 112.952C116.155 112.952 117 113.794 117 114.834Z" fill="url(#paint120_linear_226_41)"/>
<path d="M3.77419 126.129C3.77419 127.169 2.92931 128.012 1.8871 128.012C0.844882 128.012 0 127.169 0 126.129C0 125.09 0.844882 124.247 1.8871 124.247C2.92931 124.247 3.77419 125.09 3.77419 126.129Z" fill="url(#paint121_linear_226_41)"/>
<path d="M15.0968 126.129C15.0968 127.169 14.2519 128.012 13.2097 128.012C12.1675 128.012 11.3226 127.169 11.3226 126.129C11.3226 125.09 12.1675 124.247 13.2097 124.247C14.2519 124.247 15.0968 125.09 15.0968 126.129Z" fill="url(#paint122_linear_226_41)"/>
<path d="M26.4194 126.129C26.4194 127.169 25.5745 128.012 24.5323 128.012C23.49 128.012 22.6452 127.169 22.6452 126.129C22.6452 125.09 23.49 124.247 24.5323 124.247C25.5745 124.247 26.4194 125.09 26.4194 126.129Z" fill="url(#paint123_linear_226_41)"/>
<path d="M37.7419 126.129C37.7419 127.169 36.8971 128.012 35.8548 128.012C34.8126 128.012 33.9677 127.169 33.9677 126.129C33.9677 125.09 34.8126 124.247 35.8548 124.247C36.8971 124.247 37.7419 125.09 37.7419 126.129Z" fill="url(#paint124_linear_226_41)"/>
<path d="M49.0645 126.129C49.0645 127.169 48.2196 128.012 47.1774 128.012C46.1352 128.012 45.2903 127.169 45.2903 126.129C45.2903 125.09 46.1352 124.247 47.1774 124.247C48.2196 124.247 49.0645 125.09 49.0645 126.129Z" fill="url(#paint125_linear_226_41)"/>
<path d="M60.3871 126.129C60.3871 127.169 59.5422 128.012 58.5 128.012C57.4578 128.012 56.6129 127.169 56.6129 126.129C56.6129 125.09 57.4578 124.247 58.5 124.247C59.5422 124.247 60.3871 125.09 60.3871 126.129Z" fill="url(#paint126_linear_226_41)"/>
<path d="M71.7097 126.129C71.7097 127.169 70.8648 128.012 69.8226 128.012C68.7804 128.012 67.9355 127.169 67.9355 126.129C67.9355 125.09 68.7804 124.247 69.8226 124.247C70.8648 124.247 71.7097 125.09 71.7097 126.129Z" fill="url(#paint127_linear_226_41)"/>
<path d="M83.0323 126.129C83.0323 127.169 82.1874 128.012 81.1452 128.012C80.1029 128.012 79.2581 127.169 79.2581 126.129C79.2581 125.09 80.1029 124.247 81.1452 124.247C82.1874 124.247 83.0323 125.09 83.0323 126.129Z" fill="url(#paint128_linear_226_41)"/>
<path d="M94.3548 126.129C94.3548 127.169 93.51 128.012 92.4677 128.012C91.4255 128.012 90.5806 127.169 90.5806 126.129C90.5806 125.09 91.4255 124.247 92.4677 124.247C93.51 124.247 94.3548 125.09 94.3548 126.129Z" fill="url(#paint129_linear_226_41)"/>
<path d="M105.677 126.129C105.677 127.169 104.833 128.012 103.79 128.012C102.748 128.012 101.903 127.169 101.903 126.129C101.903 125.09 102.748 124.247 103.79 124.247C104.833 124.247 105.677 125.09 105.677 126.129Z" fill="url(#paint130_linear_226_41)"/>
<path d="M117 126.129C117 127.169 116.155 128.012 115.113 128.012C114.071 128.012 113.226 127.169 113.226 126.129C113.226 125.09 114.071 124.247 115.113 124.247C116.155 124.247 117 125.09 117 126.129Z" fill="url(#paint131_linear_226_41)"/>
</g>
<defs>
<linearGradient id="paint0_linear_226_41" x1="58.5" y1="128.012" x2="58.5" y2="0" gradientUnits="userSpaceOnUse">
<stop stop-color="#0D005B"/>
<stop offset="1" stop-color="#2A72FF"/>
</linearGradient>
<linearGradient id="paint1_linear_226_41" x1="58.5" y1="128.012" x2="58.5" y2="0" gradientUnits="userSpaceOnUse">
<stop stop-color="#0D005B"/>
<stop offset="1" stop-color="#2A72FF"/>
</linearGradient>
<linearGradient id="paint2_linear_226_41" x1="58.5" y1="128.012" x2="58.5" y2="0" gradientUnits="userSpaceOnUse">
<stop stop-color="#0D005B"/>
<stop offset="1" stop-color="#2A72FF"/>
</linearGradient>
<linearGradient id="paint3_linear_226_41" x1="58.5" y1="128.012" x2="58.5" y2="0" gradientUnits="userSpaceOnUse">
<stop stop-color="#0D005B"/>
<stop offset="1" stop-color="#2A72FF"/>
</linearGradient>
<linearGradient id="paint4_linear_226_41" x1="58.5" y1="128.012" x2="58.5" y2="0" gradientUnits="userSpaceOnUse">
<stop stop-color="#0D005B"/>
<stop offset="1" stop-color="#2A72FF"/>
</linearGradient>
<linearGradient id="paint5_linear_226_41" x1="58.5" y1="128.012" x2="58.5" y2="0" gradientUnits="userSpaceOnUse">
<stop stop-color="#0D005B"/>
<stop offset="1" stop-color="#2A72FF"/>
</linearGradient>
<linearGradient id="paint6_linear_226_41" x1="58.5" y1="128.012" x2="58.5" y2="0" gradientUnits="userSpaceOnUse">
<stop stop-color="#0D005B"/>
<stop offset="1" stop-color="#2A72FF"/>
</linearGradient>
<linearGradient id="paint7_linear_226_41" x1="58.5" y1="128.012" x2="58.5" y2="0" gradientUnits="userSpaceOnUse">
<stop stop-color="#0D005B"/>
<stop offset="1" stop-color="#2A72FF"/>
</linearGradient>
<linearGradient id="paint8_linear_226_41" x1="58.5" y1="128.012" x2="58.5" y2="0" gradientUnits="userSpaceOnUse">
<stop stop-color="#0D005B"/>
<stop offset="1" stop-color="#2A72FF"/>
</linearGradient>
<linearGradient id="paint9_linear_226_41" x1="58.5" y1="128.012" x2="58.5" y2="0" gradientUnits="userSpaceOnUse">
<stop stop-color="#0D005B"/>
<stop offset="1" stop-color="#2A72FF"/>
</linearGradient>
<linearGradient id="paint10_linear_226_41" x1="58.5" y1="128.012" x2="58.5" y2="0" gradientUnits="userSpaceOnUse">
<stop stop-color="#0D005B"/>
<stop offset="1" stop-color="#2A72FF"/>
</linearGradient>
<linearGradient id="paint11_linear_226_41" x1="58.5" y1="128.012" x2="58.5" y2="0" gradientUnits="userSpaceOnUse">
<stop stop-color="#0D005B"/>
<stop offset="1" stop-color="#2A72FF"/>
</linearGradient>
<linearGradient id="paint12_linear_226_41" x1="58.5" y1="128.012" x2="58.5" y2="0" gradientUnits="userSpaceOnUse">
<stop stop-color="#0D005B"/>
<stop offset="1" stop-color="#2A72FF"/>
</linearGradient>
<linearGradient id="paint13_linear_226_41" x1="58.5" y1="128.012" x2="58.5" y2="0" gradientUnits="userSpaceOnUse">
<stop stop-color="#0D005B"/>
<stop offset="1" stop-color="#2A72FF"/>
</linearGradient>
<linearGradient id="paint14_linear_226_41" x1="58.5" y1="128.012" x2="58.5" y2="0" gradientUnits="userSpaceOnUse">
<stop stop-color="#0D005B"/>
<stop offset="1" stop-color="#2A72FF"/>
</linearGradient>
<linearGradient id="paint15_linear_226_41" x1="58.5" y1="128.012" x2="58.5" y2="0" gradientUnits="userSpaceOnUse">
<stop stop-color="#0D005B"/>
<stop offset="1" stop-color="#2A72FF"/>
</linearGradient>
<linearGradient id="paint16_linear_226_41" x1="58.5" y1="128.012" x2="58.5" y2="0" gradientUnits="userSpaceOnUse">
<stop stop-color="#0D005B"/>
<stop offset="1" stop-color="#2A72FF"/>
</linearGradient>
<linearGradient id="paint17_linear_226_41" x1="58.5" y1="128.012" x2="58.5" y2="0" gradientUnits="userSpaceOnUse">
<stop stop-color="#0D005B"/>
<stop offset="1" stop-color="#2A72FF"/>
</linearGradient>
<linearGradient id="paint18_linear_226_41" x1="58.5" y1="128.012" x2="58.5" y2="0" gradientUnits="userSpaceOnUse">
<stop stop-color="#0D005B"/>
<stop offset="1" stop-color="#2A72FF"/>
</linearGradient>
<linearGradient id="paint19_linear_226_41" x1="58.5" y1="128.012" x2="58.5" y2="0" gradientUnits="userSpaceOnUse">
<stop stop-color="#0D005B"/>
<stop offset="1" stop-color="#2A72FF"/>
</linearGradient>
<linearGradient id="paint20_linear_226_41" x1="58.5" y1="128.012" x2="58.5" y2="0" gradientUnits="userSpaceOnUse">
<stop stop-color="#0D005B"/>
<stop offset="1" stop-color="#2A72FF"/>
</linearGradient>
<linearGradient id="paint21_linear_226_41" x1="58.5" y1="128.012" x2="58.5" y2="0" gradientUnits="userSpaceOnUse">
<stop stop-color="#0D005B"/>
<stop offset="1" stop-color="#2A72FF"/>
</linearGradient>
<linearGradient id="paint22_linear_226_41" x1="58.5" y1="128.012" x2="58.5" y2="0" gradientUnits="userSpaceOnUse">
<stop stop-color="#0D005B"/>
<stop offset="1" stop-color="#2A72FF"/>
</linearGradient>
<linearGradient id="paint23_linear_226_41" x1="58.5" y1="128.012" x2="58.5" y2="0" gradientUnits="userSpaceOnUse">
<stop stop-color="#0D005B"/>
<stop offset="1" stop-color="#2A72FF"/>
</linearGradient>
<linearGradient id="paint24_linear_226_41" x1="58.5" y1="128.012" x2="58.5" y2="0" gradientUnits="userSpaceOnUse">
<stop stop-color="#0D005B"/>
<stop offset="1" stop-color="#2A72FF"/>
</linearGradient>
<linearGradient id="paint25_linear_226_41" x1="58.5" y1="128.012" x2="58.5" y2="0" gradientUnits="userSpaceOnUse">
<stop stop-color="#0D005B"/>
<stop offset="1" stop-color="#2A72FF"/>
</linearGradient>
<linearGradient id="paint26_linear_226_41" x1="58.5" y1="128.012" x2="58.5" y2="0" gradientUnits="userSpaceOnUse">
<stop stop-color="#0D005B"/>
<stop offset="1" stop-color="#2A72FF"/>
</linearGradient>
<linearGradient id="paint27_linear_226_41" x1="58.5" y1="128.012" x2="58.5" y2="0" gradientUnits="userSpaceOnUse">
<stop stop-color="#0D005B"/>
<stop offset="1" stop-color="#2A72FF"/>
</linearGradient>
<linearGradient id="paint28_linear_226_41" x1="58.5" y1="128.012" x2="58.5" y2="0" gradientUnits="userSpaceOnUse">
<stop stop-color="#0D005B"/>
<stop offset="1" stop-color="#2A72FF"/>
</linearGradient>
<linearGradient id="paint29_linear_226_41" x1="58.5" y1="128.012" x2="58.5" y2="0" gradientUnits="userSpaceOnUse">
<stop stop-color="#0D005B"/>
<stop offset="1" stop-color="#2A72FF"/>
</linearGradient>
<linearGradient id="paint30_linear_226_41" x1="58.5" y1="128.012" x2="58.5" y2="0" gradientUnits="userSpaceOnUse">
<stop stop-color="#0D005B"/>
<stop offset="1" stop-color="#2A72FF"/>
</linearGradient>
<linearGradient id="paint31_linear_226_41" x1="58.5" y1="128.012" x2="58.5" y2="0" gradientUnits="userSpaceOnUse">
<stop stop-color="#0D005B"/>
<stop offset="1" stop-color="#2A72FF"/>
</linearGradient>
<linearGradient id="paint32_linear_226_41" x1="58.5" y1="128.012" x2="58.5" y2="0" gradientUnits="userSpaceOnUse">
<stop stop-color="#0D005B"/>
<stop offset="1" stop-color="#2A72FF"/>
</linearGradient>
<linearGradient id="paint33_linear_226_41" x1="58.5" y1="128.012" x2="58.5" y2="0" gradientUnits="userSpaceOnUse">
<stop stop-color="#0D005B"/>
<stop offset="1" stop-color="#2A72FF"/>
</linearGradient>
<linearGradient id="paint34_linear_226_41" x1="58.5" y1="128.012" x2="58.5" y2="0" gradientUnits="userSpaceOnUse">
<stop stop-color="#0D005B"/>
<stop offset="1" stop-color="#2A72FF"/>
</linearGradient>
<linearGradient id="paint35_linear_226_41" x1="58.5" y1="128.012" x2="58.5" y2="0" gradientUnits="userSpaceOnUse">
<stop stop-color="#0D005B"/>
<stop offset="1" stop-color="#2A72FF"/>
</linearGradient>
<linearGradient id="paint36_linear_226_41" x1="58.5" y1="128.012" x2="58.5" y2="0" gradientUnits="userSpaceOnUse">
<stop stop-color="#0D005B"/>
<stop offset="1" stop-color="#2A72FF"/>
</linearGradient>
<linearGradient id="paint37_linear_226_41" x1="58.5" y1="128.012" x2="58.5" y2="0" gradientUnits="userSpaceOnUse">
<stop stop-color="#0D005B"/>
<stop offset="1" stop-color="#2A72FF"/>
</linearGradient>
<linearGradient id="paint38_linear_226_41" x1="58.5" y1="128.012" x2="58.5" y2="0" gradientUnits="userSpaceOnUse">
<stop stop-color="#0D005B"/>
<stop offset="1" stop-color="#2A72FF"/>
</linearGradient>
<linearGradient id="paint39_linear_226_41" x1="58.5" y1="128.012" x2="58.5" y2="0" gradientUnits="userSpaceOnUse">
<stop stop-color="#0D005B"/>
<stop offset="1" stop-color="#2A72FF"/>
</linearGradient>
<linearGradient id="paint40_linear_226_41" x1="58.5" y1="128.012" x2="58.5" y2="0" gradientUnits="userSpaceOnUse">
<stop stop-color="#0D005B"/>
<stop offset="1" stop-color="#2A72FF"/>
</linearGradient>
<linearGradient id="paint41_linear_226_41" x1="58.5" y1="128.012" x2="58.5" y2="0" gradientUnits="userSpaceOnUse">
<stop stop-color="#0D005B"/>
<stop offset="1" stop-color="#2A72FF"/>
</linearGradient>
<linearGradient id="paint42_linear_226_41" x1="58.5" y1="128.012" x2="58.5" y2="0" gradientUnits="userSpaceOnUse">
<stop stop-color="#0D005B"/>
<stop offset="1" stop-color="#2A72FF"/>
</linearGradient>
<linearGradient id="paint43_linear_226_41" x1="58.5" y1="128.012" x2="58.5" y2="0" gradientUnits="userSpaceOnUse">
<stop stop-color="#0D005B"/>
<stop offset="1" stop-color="#2A72FF"/>
</linearGradient>
<linearGradient id="paint44_linear_226_41" x1="58.5" y1="128.012" x2="58.5" y2="0" gradientUnits="userSpaceOnUse">
<stop stop-color="#0D005B"/>
<stop offset="1" stop-color="#2A72FF"/>
</linearGradient>
<linearGradient id="paint45_linear_226_41" x1="58.5" y1="128.012" x2="58.5" y2="0" gradientUnits="userSpaceOnUse">
<stop stop-color="#0D005B"/>
<stop offset="1" stop-color="#2A72FF"/>
</linearGradient>
<linearGradient id="paint46_linear_226_41" x1="58.5" y1="128.012" x2="58.5" y2="0" gradientUnits="userSpaceOnUse">
<stop stop-color="#0D005B"/>
<stop offset="1" stop-color="#2A72FF"/>
</linearGradient>
<linearGradient id="paint47_linear_226_41" x1="58.5" y1="128.012" x2="58.5" y2="0" gradientUnits="userSpaceOnUse">
<stop stop-color="#0D005B"/>
<stop offset="1" stop-color="#2A72FF"/>
</linearGradient>
<linearGradient id="paint48_linear_226_41" x1="58.5" y1="128.012" x2="58.5" y2="0" gradientUnits="userSpaceOnUse">
<stop stop-color="#0D005B"/>
<stop offset="1" stop-color="#2A72FF"/>
</linearGradient>
<linearGradient id="paint49_linear_226_41" x1="58.5" y1="128.012" x2="58.5" y2="0" gradientUnits="userSpaceOnUse">
<stop stop-color="#0D005B"/>
<stop offset="1" stop-color="#2A72FF"/>
</linearGradient>
<linearGradient id="paint50_linear_226_41" x1="58.5" y1="128.012" x2="58.5" y2="0" gradientUnits="userSpaceOnUse">
<stop stop-color="#0D005B"/>
<stop offset="1" stop-color="#2A72FF"/>
</linearGradient>
<linearGradient id="paint51_linear_226_41" x1="58.5" y1="128.012" x2="58.5" y2="0" gradientUnits="userSpaceOnUse">
<stop stop-color="#0D005B"/>
<stop offset="1" stop-color="#2A72FF"/>
</linearGradient>
<linearGradient id="paint52_linear_226_41" x1="58.5" y1="128.012" x2="58.5" y2="0" gradientUnits="userSpaceOnUse">
<stop stop-color="#0D005B"/>
<stop offset="1" stop-color="#2A72FF"/>
</linearGradient>
<linearGradient id="paint53_linear_226_41" x1="58.5" y1="128.012" x2="58.5" y2="0" gradientUnits="userSpaceOnUse">
<stop stop-color="#0D005B"/>
<stop offset="1" stop-color="#2A72FF"/>
</linearGradient>
<linearGradient id="paint54_linear_226_41" x1="58.5" y1="128.012" x2="58.5" y2="0" gradientUnits="userSpaceOnUse">
<stop stop-color="#0D005B"/>
<stop offset="1" stop-color="#2A72FF"/>
</linearGradient>
<linearGradient id="paint55_linear_226_41" x1="58.5" y1="128.012" x2="58.5" y2="0" gradientUnits="userSpaceOnUse">
<stop stop-color="#0D005B"/>
<stop offset="1" stop-color="#2A72FF"/>
</linearGradient>
<linearGradient id="paint56_linear_226_41" x1="58.5" y1="128.012" x2="58.5" y2="0" gradientUnits="userSpaceOnUse">
<stop stop-color="#0D005B"/>
<stop offset="1" stop-color="#2A72FF"/>
</linearGradient>
<linearGradient id="paint57_linear_226_41" x1="58.5" y1="128.012" x2="58.5" y2="0" gradientUnits="userSpaceOnUse">
<stop stop-color="#0D005B"/>
<stop offset="1" stop-color="#2A72FF"/>
</linearGradient>
<linearGradient id="paint58_linear_226_41" x1="58.5" y1="128.012" x2="58.5" y2="0" gradientUnits="userSpaceOnUse">
<stop stop-color="#0D005B"/>
<stop offset="1" stop-color="#2A72FF"/>
</linearGradient>
<linearGradient id="paint59_linear_226_41" x1="58.5" y1="128.012" x2="58.5" y2="0" gradientUnits="userSpaceOnUse">
<stop stop-color="#0D005B"/>
<stop offset="1" stop-color="#2A72FF"/>
</linearGradient>
<linearGradient id="paint60_linear_226_41" x1="58.5" y1="128.012" x2="58.5" y2="0" gradientUnits="userSpaceOnUse">
<stop stop-color="#0D005B"/>
<stop offset="1" stop-color="#2A72FF"/>
</linearGradient>
<linearGradient id="paint61_linear_226_41" x1="58.5" y1="128.012" x2="58.5" y2="0" gradientUnits="userSpaceOnUse">
<stop stop-color="#0D005B"/>
<stop offset="1" stop-color="#2A72FF"/>
</linearGradient>
<linearGradient id="paint62_linear_226_41" x1="58.5" y1="128.012" x2="58.5" y2="0" gradientUnits="userSpaceOnUse">
<stop stop-color="#0D005B"/>
<stop offset="1" stop-color="#2A72FF"/>
</linearGradient>
<linearGradient id="paint63_linear_226_41" x1="58.5" y1="128.012" x2="58.5" y2="0" gradientUnits="userSpaceOnUse">
<stop stop-color="#0D005B"/>
<stop offset="1" stop-color="#2A72FF"/>
</linearGradient>
<linearGradient id="paint64_linear_226_41" x1="58.5" y1="128.012" x2="58.5" y2="0" gradientUnits="userSpaceOnUse">
<stop stop-color="#0D005B"/>
<stop offset="1" stop-color="#2A72FF"/>
</linearGradient>
<linearGradient id="paint65_linear_226_41" x1="58.5" y1="128.012" x2="58.5" y2="0" gradientUnits="userSpaceOnUse">
<stop stop-color="#0D005B"/>
<stop offset="1" stop-color="#2A72FF"/>
</linearGradient>
<linearGradient id="paint66_linear_226_41" x1="58.5" y1="128.012" x2="58.5" y2="0" gradientUnits="userSpaceOnUse">
<stop stop-color="#0D005B"/>
<stop offset="1" stop-color="#2A72FF"/>
</linearGradient>
<linearGradient id="paint67_linear_226_41" x1="58.5" y1="128.012" x2="58.5" y2="0" gradientUnits="userSpaceOnUse">
<stop stop-color="#0D005B"/>
<stop offset="1" stop-color="#2A72FF"/>
</linearGradient>
<linearGradient id="paint68_linear_226_41" x1="58.5" y1="128.012" x2="58.5" y2="0" gradientUnits="userSpaceOnUse">
<stop stop-color="#0D005B"/>
<stop offset="1" stop-color="#2A72FF"/>
</linearGradient>
<linearGradient id="paint69_linear_226_41" x1="58.5" y1="128.012" x2="58.5" y2="0" gradientUnits="userSpaceOnUse">
<stop stop-color="#0D005B"/>
<stop offset="1" stop-color="#2A72FF"/>
</linearGradient>
<linearGradient id="paint70_linear_226_41" x1="58.5" y1="128.012" x2="58.5" y2="0" gradientUnits="userSpaceOnUse">
<stop stop-color="#0D005B"/>
<stop offset="1" stop-color="#2A72FF"/>
</linearGradient>
<linearGradient id="paint71_linear_226_41" x1="58.5" y1="128.012" x2="58.5" y2="0" gradientUnits="userSpaceOnUse">
<stop stop-color="#0D005B"/>
<stop offset="1" stop-color="#2A72FF"/>
</linearGradient>
<linearGradient id="paint72_linear_226_41" x1="58.5" y1="128.012" x2="58.5" y2="0" gradientUnits="userSpaceOnUse">
<stop stop-color="#0D005B"/>
<stop offset="1" stop-color="#2A72FF"/>
</linearGradient>
<linearGradient id="paint73_linear_226_41" x1="58.5" y1="128.012" x2="58.5" y2="0" gradientUnits="userSpaceOnUse">
<stop stop-color="#0D005B"/>
<stop offset="1" stop-color="#2A72FF"/>
</linearGradient>
<linearGradient id="paint74_linear_226_41" x1="58.5" y1="128.012" x2="58.5" y2="0" gradientUnits="userSpaceOnUse">
<stop stop-color="#0D005B"/>
<stop offset="1" stop-color="#2A72FF"/>
</linearGradient>
<linearGradient id="paint75_linear_226_41" x1="58.5" y1="128.012" x2="58.5" y2="0" gradientUnits="userSpaceOnUse">
<stop stop-color="#0D005B"/>
<stop offset="1" stop-color="#2A72FF"/>
</linearGradient>
<linearGradient id="paint76_linear_226_41" x1="58.5" y1="128.012" x2="58.5" y2="0" gradientUnits="userSpaceOnUse">
<stop stop-color="#0D005B"/>
<stop offset="1" stop-color="#2A72FF"/>
</linearGradient>
<linearGradient id="paint77_linear_226_41" x1="58.5" y1="128.012" x2="58.5" y2="0" gradientUnits="userSpaceOnUse">
<stop stop-color="#0D005B"/>
<stop offset="1" stop-color="#2A72FF"/>
</linearGradient>
<linearGradient id="paint78_linear_226_41" x1="58.5" y1="128.012" x2="58.5" y2="0" gradientUnits="userSpaceOnUse">
<stop stop-color="#0D005B"/>
<stop offset="1" stop-color="#2A72FF"/>
</linearGradient>
<linearGradient id="paint79_linear_226_41" x1="58.5" y1="128.012" x2="58.5" y2="0" gradientUnits="userSpaceOnUse">
<stop stop-color="#0D005B"/>
<stop offset="1" stop-color="#2A72FF"/>
</linearGradient>
<linearGradient id="paint80_linear_226_41" x1="58.5" y1="128.012" x2="58.5" y2="0" gradientUnits="userSpaceOnUse">
<stop stop-color="#0D005B"/>
<stop offset="1" stop-color="#2A72FF"/>
</linearGradient>
<linearGradient id="paint81_linear_226_41" x1="58.5" y1="128.012" x2="58.5" y2="0" gradientUnits="userSpaceOnUse">
<stop stop-color="#0D005B"/>
<stop offset="1" stop-color="#2A72FF"/>
</linearGradient>
<linearGradient id="paint82_linear_226_41" x1="58.5" y1="128.012" x2="58.5" y2="0" gradientUnits="userSpaceOnUse">
<stop stop-color="#0D005B"/>
<stop offset="1" stop-color="#2A72FF"/>
</linearGradient>
<linearGradient id="paint83_linear_226_41" x1="58.5" y1="128.012" x2="58.5" y2="0" gradientUnits="userSpaceOnUse">
<stop stop-color="#0D005B"/>
<stop offset="1" stop-color="#2A72FF"/>
</linearGradient>
<linearGradient id="paint84_linear_226_41" x1="58.5" y1="128.012" x2="58.5" y2="0" gradientUnits="userSpaceOnUse">
<stop stop-color="#0D005B"/>
<stop offset="1" stop-color="#2A72FF"/>
</linearGradient>
<linearGradient id="paint85_linear_226_41" x1="58.5" y1="128.012" x2="58.5" y2="0" gradientUnits="userSpaceOnUse">
<stop stop-color="#0D005B"/>
<stop offset="1" stop-color="#2A72FF"/>
</linearGradient>
<linearGradient id="paint86_linear_226_41" x1="58.5" y1="128.012" x2="58.5" y2="0" gradientUnits="userSpaceOnUse">
<stop stop-color="#0D005B"/>
<stop offset="1" stop-color="#2A72FF"/>
</linearGradient>
<linearGradient id="paint87_linear_226_41" x1="58.5" y1="128.012" x2="58.5" y2="0" gradientUnits="userSpaceOnUse">
<stop stop-color="#0D005B"/>
<stop offset="1" stop-color="#2A72FF"/>
</linearGradient>
<linearGradient id="paint88_linear_226_41" x1="58.5" y1="128.012" x2="58.5" y2="0" gradientUnits="userSpaceOnUse">
<stop stop-color="#0D005B"/>
<stop offset="1" stop-color="#2A72FF"/>
</linearGradient>
<linearGradient id="paint89_linear_226_41" x1="58.5" y1="128.012" x2="58.5" y2="0" gradientUnits="userSpaceOnUse">
<stop stop-color="#0D005B"/>
<stop offset="1" stop-color="#2A72FF"/>
</linearGradient>
<linearGradient id="paint90_linear_226_41" x1="58.5" y1="128.012" x2="58.5" y2="0" gradientUnits="userSpaceOnUse">
<stop stop-color="#0D005B"/>
<stop offset="1" stop-color="#2A72FF"/>
</linearGradient>
<linearGradient id="paint91_linear_226_41" x1="58.5" y1="128.012" x2="58.5" y2="0" gradientUnits="userSpaceOnUse">
<stop stop-color="#0D005B"/>
<stop offset="1" stop-color="#2A72FF"/>
</linearGradient>
<linearGradient id="paint92_linear_226_41" x1="58.5" y1="128.012" x2="58.5" y2="0" gradientUnits="userSpaceOnUse">
<stop stop-color="#0D005B"/>
<stop offset="1" stop-color="#2A72FF"/>
</linearGradient>
<linearGradient id="paint93_linear_226_41" x1="58.5" y1="128.012" x2="58.5" y2="0" gradientUnits="userSpaceOnUse">
<stop stop-color="#0D005B"/>
<stop offset="1" stop-color="#2A72FF"/>
</linearGradient>
<linearGradient id="paint94_linear_226_41" x1="58.5" y1="128.012" x2="58.5" y2="0" gradientUnits="userSpaceOnUse">
<stop stop-color="#0D005B"/>
<stop offset="1" stop-color="#2A72FF"/>
</linearGradient>
<linearGradient id="paint95_linear_226_41" x1="58.5" y1="128.012" x2="58.5" y2="0" gradientUnits="userSpaceOnUse">
<stop stop-color="#0D005B"/>
<stop offset="1" stop-color="#2A72FF"/>
</linearGradient>
<linearGradient id="paint96_linear_226_41" x1="58.5" y1="128.012" x2="58.5" y2="0" gradientUnits="userSpaceOnUse">
<stop stop-color="#0D005B"/>
<stop offset="1" stop-color="#2A72FF"/>
</linearGradient>
<linearGradient id="paint97_linear_226_41" x1="58.5" y1="128.012" x2="58.5" y2="0" gradientUnits="userSpaceOnUse">
<stop stop-color="#0D005B"/>
<stop offset="1" stop-color="#2A72FF"/>
</linearGradient>
<linearGradient id="paint98_linear_226_41" x1="58.5" y1="128.012" x2="58.5" y2="0" gradientUnits="userSpaceOnUse">
<stop stop-color="#0D005B"/>
<stop offset="1" stop-color="#2A72FF"/>
</linearGradient>
<linearGradient id="paint99_linear_226_41" x1="58.5" y1="128.012" x2="58.5" y2="0" gradientUnits="userSpaceOnUse">
<stop stop-color="#0D005B"/>
<stop offset="1" stop-color="#2A72FF"/>
</linearGradient>
<linearGradient id="paint100_linear_226_41" x1="58.5" y1="128.012" x2="58.5" y2="0" gradientUnits="userSpaceOnUse">
<stop stop-color="#0D005B"/>
<stop offset="1" stop-color="#2A72FF"/>
</linearGradient>
<linearGradient id="paint101_linear_226_41" x1="58.5" y1="128.012" x2="58.5" y2="0" gradientUnits="userSpaceOnUse">
<stop stop-color="#0D005B"/>
<stop offset="1" stop-color="#2A72FF"/>
</linearGradient>
<linearGradient id="paint102_linear_226_41" x1="58.5" y1="128.012" x2="58.5" y2="0" gradientUnits="userSpaceOnUse">
<stop stop-color="#0D005B"/>
<stop offset="1" stop-color="#2A72FF"/>
</linearGradient>
<linearGradient id="paint103_linear_226_41" x1="58.5" y1="128.012" x2="58.5" y2="0" gradientUnits="userSpaceOnUse">
<stop stop-color="#0D005B"/>
<stop offset="1" stop-color="#2A72FF"/>
</linearGradient>
<linearGradient id="paint104_linear_226_41" x1="58.5" y1="128.012" x2="58.5" y2="0" gradientUnits="userSpaceOnUse">
<stop stop-color="#0D005B"/>
<stop offset="1" stop-color="#2A72FF"/>
</linearGradient>
<linearGradient id="paint105_linear_226_41" x1="58.5" y1="128.012" x2="58.5" y2="0" gradientUnits="userSpaceOnUse">
<stop stop-color="#0D005B"/>
<stop offset="1" stop-color="#2A72FF"/>
</linearGradient>
<linearGradient id="paint106_linear_226_41" x1="58.5" y1="128.012" x2="58.5" y2="0" gradientUnits="userSpaceOnUse">
<stop stop-color="#0D005B"/>
<stop offset="1" stop-color="#2A72FF"/>
</linearGradient>
<linearGradient id="paint107_linear_226_41" x1="58.5" y1="128.012" x2="58.5" y2="0" gradientUnits="userSpaceOnUse">
<stop stop-color="#0D005B"/>
<stop offset="1" stop-color="#2A72FF"/>
</linearGradient>
<linearGradient id="paint108_linear_226_41" x1="58.5" y1="128.012" x2="58.5" y2="0" gradientUnits="userSpaceOnUse">
<stop stop-color="#0D005B"/>
<stop offset="1" stop-color="#2A72FF"/>
</linearGradient>
<linearGradient id="paint109_linear_226_41" x1="58.5" y1="128.012" x2="58.5" y2="0" gradientUnits="userSpaceOnUse">
<stop stop-color="#0D005B"/>
<stop offset="1" stop-color="#2A72FF"/>
</linearGradient>
<linearGradient id="paint110_linear_226_41" x1="58.5" y1="128.012" x2="58.5" y2="0" gradientUnits="userSpaceOnUse">
<stop stop-color="#0D005B"/>
<stop offset="1" stop-color="#2A72FF"/>
</linearGradient>
<linearGradient id="paint111_linear_226_41" x1="58.5" y1="128.012" x2="58.5" y2="0" gradientUnits="userSpaceOnUse">
<stop stop-color="#0D005B"/>
<stop offset="1" stop-color="#2A72FF"/>
</linearGradient>
<linearGradient id="paint112_linear_226_41" x1="58.5" y1="128.012" x2="58.5" y2="0" gradientUnits="userSpaceOnUse">
<stop stop-color="#0D005B"/>
<stop offset="1" stop-color="#2A72FF"/>
</linearGradient>
<linearGradient id="paint113_linear_226_41" x1="58.5" y1="128.012" x2="58.5" y2="0" gradientUnits="userSpaceOnUse">
<stop stop-color="#0D005B"/>
<stop offset="1" stop-color="#2A72FF"/>
</linearGradient>
<linearGradient id="paint114_linear_226_41" x1="58.5" y1="128.012" x2="58.5" y2="0" gradientUnits="userSpaceOnUse">
<stop stop-color="#0D005B"/>
<stop offset="1" stop-color="#2A72FF"/>
</linearGradient>
<linearGradient id="paint115_linear_226_41" x1="58.5" y1="128.012" x2="58.5" y2="0" gradientUnits="userSpaceOnUse">
<stop stop-color="#0D005B"/>
<stop offset="1" stop-color="#2A72FF"/>
</linearGradient>
<linearGradient id="paint116_linear_226_41" x1="58.5" y1="128.012" x2="58.5" y2="0" gradientUnits="userSpaceOnUse">
<stop stop-color="#0D005B"/>
<stop offset="1" stop-color="#2A72FF"/>
</linearGradient>
<linearGradient id="paint117_linear_226_41" x1="58.5" y1="128.012" x2="58.5" y2="0" gradientUnits="userSpaceOnUse">
<stop stop-color="#0D005B"/>
<stop offset="1" stop-color="#2A72FF"/>
</linearGradient>
<linearGradient id="paint118_linear_226_41" x1="58.5" y1="128.012" x2="58.5" y2="0" gradientUnits="userSpaceOnUse">
<stop stop-color="#0D005B"/>
<stop offset="1" stop-color="#2A72FF"/>
</linearGradient>
<linearGradient id="paint119_linear_226_41" x1="58.5" y1="128.012" x2="58.5" y2="0" gradientUnits="userSpaceOnUse">
<stop stop-color="#0D005B"/>
<stop offset="1" stop-color="#2A72FF"/>
</linearGradient>
<linearGradient id="paint120_linear_226_41" x1="58.5" y1="128.012" x2="58.5" y2="0" gradientUnits="userSpaceOnUse">
<stop stop-color="#0D005B"/>
<stop offset="1" stop-color="#2A72FF"/>
</linearGradient>
<linearGradient id="paint121_linear_226_41" x1="58.5" y1="128.012" x2="58.5" y2="0" gradientUnits="userSpaceOnUse">
<stop stop-color="#0D005B"/>
<stop offset="1" stop-color="#2A72FF"/>
</linearGradient>
<linearGradient id="paint122_linear_226_41" x1="58.5" y1="128.012" x2="58.5" y2="0" gradientUnits="userSpaceOnUse">
<stop stop-color="#0D005B"/>
<stop offset="1" stop-color="#2A72FF"/>
</linearGradient>
<linearGradient id="paint123_linear_226_41" x1="58.5" y1="128.012" x2="58.5" y2="0" gradientUnits="userSpaceOnUse">
<stop stop-color="#0D005B"/>
<stop offset="1" stop-color="#2A72FF"/>
</linearGradient>
<linearGradient id="paint124_linear_226_41" x1="58.5" y1="128.012" x2="58.5" y2="0" gradientUnits="userSpaceOnUse">
<stop stop-color="#0D005B"/>
<stop offset="1" stop-color="#2A72FF"/>
</linearGradient>
<linearGradient id="paint125_linear_226_41" x1="58.5" y1="128.012" x2="58.5" y2="0" gradientUnits="userSpaceOnUse">
<stop stop-color="#0D005B"/>
<stop offset="1" stop-color="#2A72FF"/>
</linearGradient>
<linearGradient id="paint126_linear_226_41" x1="58.5" y1="128.012" x2="58.5" y2="0" gradientUnits="userSpaceOnUse">
<stop stop-color="#0D005B"/>
<stop offset="1" stop-color="#2A72FF"/>
</linearGradient>
<linearGradient id="paint127_linear_226_41" x1="58.5" y1="128.012" x2="58.5" y2="0" gradientUnits="userSpaceOnUse">
<stop stop-color="#0D005B"/>
<stop offset="1" stop-color="#2A72FF"/>
</linearGradient>
<linearGradient id="paint128_linear_226_41" x1="58.5" y1="128.012" x2="58.5" y2="0" gradientUnits="userSpaceOnUse">
<stop stop-color="#0D005B"/>
<stop offset="1" stop-color="#2A72FF"/>
</linearGradient>
<linearGradient id="paint129_linear_226_41" x1="58.5" y1="128.012" x2="58.5" y2="0" gradientUnits="userSpaceOnUse">
<stop stop-color="#0D005B"/>
<stop offset="1" stop-color="#2A72FF"/>
</linearGradient>
<linearGradient id="paint130_linear_226_41" x1="58.5" y1="128.012" x2="58.5" y2="0" gradientUnits="userSpaceOnUse">
<stop stop-color="#0D005B"/>
<stop offset="1" stop-color="#2A72FF"/>
</linearGradient>
<linearGradient id="paint131_linear_226_41" x1="58.5" y1="128.012" x2="58.5" y2="0" gradientUnits="userSpaceOnUse">
<stop stop-color="#0D005B"/>
<stop offset="1" stop-color="#2A72FF"/>
</linearGradient>
<clipPath id="clip0_226_41">
<rect width="117" height="128.012" rx="32" fill="white"/>
</clipPath>
</defs>
</svg>
