<svg width="58" height="58" viewBox="0 0 58 58" fill="none" xmlns="http://www.w3.org/2000/svg">
<path fill-rule="evenodd" clip-rule="evenodd" d="M29.02 5.23584C15.6454 5.23584 4.83331 16.1276 4.83331 29.6022C4.83331 40.3732 11.761 49.4906 21.3715 52.7175C22.573 52.9601 23.0132 52.1932 23.0132 51.5481C23.0132 50.9833 22.9736 49.047 22.9736 47.0295C16.2454 48.4821 14.8443 44.1249 14.8443 44.1249C13.7631 41.301 12.161 40.5752 12.161 40.5752C9.95888 39.0825 12.3214 39.0825 12.3214 39.0825C14.7641 39.2439 16.0459 41.5837 16.0459 41.5837C18.2079 45.2948 21.6918 44.2462 23.0934 43.6006C23.2934 42.0273 23.9345 40.9381 24.6152 40.3331C19.2491 39.7682 13.6032 37.6705 13.6032 28.311C13.6032 25.6485 14.5636 23.4701 16.0855 21.776C15.8454 21.171 15.0042 18.6694 16.3261 15.3211C16.3261 15.3211 18.3683 14.6755 22.9731 17.8223C24.9445 17.2889 26.9776 17.0176 29.02 17.0153C31.0622 17.0153 33.144 17.298 35.0664 17.8223C39.6716 14.6755 41.7138 15.3211 41.7138 15.3211C43.0357 18.6694 42.1941 21.171 41.954 21.776C43.5159 23.4701 44.4368 25.6485 44.4368 28.311C44.4368 37.6705 38.7909 39.7276 33.3846 40.3331C34.2658 41.0995 35.0263 42.5515 35.0263 44.8512C35.0263 48.1187 34.9867 50.7412 34.9867 51.5476C34.9867 52.1932 35.4273 52.9601 36.6284 52.718C46.2389 49.4901 53.1665 40.3732 53.1665 29.6022C53.2061 16.1276 42.3545 5.23584 29.02 5.23584Z" fill="url(#paint0_linear_315_51)"/>
<defs>
<linearGradient id="paint0_linear_315_51" x1="29" y1="5.23584" x2="29" y2="52.7638" gradientUnits="userSpaceOnUse">
<stop stop-color="#1B1F23"/>
<stop offset="1" stop-color="white"/>
</linearGradient>
</defs>
</svg>
