<svg width="33" height="33" viewBox="0 0 33 33" fill="none" xmlns="http://www.w3.org/2000/svg">
<path d="M22.679 7.32056H10.679C8.46896 7.32056 6.67896 9.10056 6.67896 11.2906V21.3506C6.67896 23.5406 8.46896 25.3206 10.679 25.3206H22.679C24.889 25.3206 26.679 23.5406 26.679 21.3506V11.2906C26.679 9.10056 24.889 7.32056 22.679 7.32056ZM13.179 11.4906C14.449 11.4906 15.489 12.5306 15.489 13.8006C15.489 15.0706 14.449 16.1106 13.179 16.1106C11.909 16.1106 10.869 15.0706 10.869 13.8006C10.869 12.5306 11.909 11.4906 13.179 11.4906ZM17.049 20.9806C16.959 21.0806 16.819 21.1406 16.679 21.1406H9.67896C9.53895 21.1406 9.39896 21.0806 9.30896 20.9806C9.21896 20.8806 9.16896 20.7406 9.17896 20.6006C9.34896 18.9206 10.689 17.5906 12.369 17.4306C12.899 17.3806 13.449 17.3806 13.979 17.4306C15.659 17.5906 17.009 18.9206 17.169 20.6006C17.189 20.7406 17.139 20.8806 17.049 20.9806ZM23.679 21.0706H21.679C21.269 21.0706 20.929 20.7306 20.929 20.3206C20.929 19.9106 21.269 19.5706 21.679 19.5706H23.679C24.089 19.5706 24.429 19.9106 24.429 20.3206C24.429 20.7306 24.089 21.0706 23.679 21.0706ZM23.679 17.0706H19.679C19.269 17.0706 18.929 16.7306 18.929 16.3206C18.929 15.9106 19.269 15.5706 19.679 15.5706H23.679C24.089 15.5706 24.429 15.9106 24.429 16.3206C24.429 16.7306 24.089 17.0706 23.679 17.0706ZM23.679 13.0706H18.679C18.269 13.0706 17.929 12.7306 17.929 12.3206C17.929 11.9106 18.269 11.5706 18.679 11.5706H23.679C24.089 11.5706 24.429 11.9106 24.429 12.3206C24.429 12.7306 24.089 13.0706 23.679 13.0706Z" fill="white"/>
</svg>
