<svg width="58" height="58" viewBox="0 0 58 58" fill="none" xmlns="http://www.w3.org/2000/svg">
<path d="M50.75 10.4485V47.5515C50.75 48.3998 50.413 49.2133 49.8132 49.8132C49.2133 50.413 48.3998 50.75 47.5515 50.75H10.4485C9.60023 50.75 8.78667 50.413 8.18683 49.8132C7.58699 49.2133 7.25 48.3998 7.25 47.5515V10.4485C7.25 9.60023 7.58699 8.78667 8.18683 8.18683C8.78667 7.58699 9.60023 7.25 10.4485 7.25H47.5515C48.3998 7.25 49.2133 7.58699 49.8132 8.18683C50.413 8.78667 50.75 9.60023 50.75 10.4485V10.4485ZM20.0441 23.8824H13.6471V44.3529H20.0441V23.8824ZM20.6199 16.8456C20.6232 16.3617 20.5313 15.8819 20.3492 15.4336C20.1671 14.9852 19.8985 14.5771 19.5587 14.2326C19.219 13.8881 18.8146 13.6138 18.3689 13.4255C17.9231 13.2373 17.4446 13.1386 16.9607 13.1353H16.8456C15.8616 13.1353 14.9178 13.5262 14.222 14.222C13.5262 14.9178 13.1353 15.8616 13.1353 16.8456C13.1353 17.8296 13.5262 18.7733 14.222 19.4692C14.9178 20.165 15.8616 20.5559 16.8456 20.5559V20.5559C17.3295 20.5678 17.811 20.4842 18.2626 20.31C18.7143 20.1357 19.1271 19.8742 19.4776 19.5403C19.8281 19.2064 20.1094 18.8068 20.3054 18.3642C20.5014 17.9216 20.6082 17.4447 20.6199 16.9607V16.8456ZM44.3529 31.9171C44.3529 25.7631 40.4379 23.3706 36.5485 23.3706C35.2751 23.3068 34.0071 23.5781 32.8712 24.1573C31.7353 24.7364 30.771 25.6033 30.0747 26.6715H29.8956V23.8824H23.8824V44.3529H30.2794V33.4651C30.1869 32.3501 30.5382 31.2435 31.2569 30.3859C31.9755 29.5283 33.0036 28.9889 34.1176 28.8849H34.3607C36.395 28.8849 37.9047 30.1643 37.9047 33.3884V44.3529H44.3018L44.3529 31.9171Z" fill="url(#paint0_linear_315_50)"/>
<defs>
<linearGradient id="paint0_linear_315_50" x1="29" y1="7.25" x2="29" y2="50.75" gradientUnits="userSpaceOnUse">
<stop stop-color="#004363"/>
<stop offset="1" stop-color="white"/>
</linearGradient>
</defs>
</svg>
