<svg width="33" height="33" viewBox="0 0 33 33" fill="none" xmlns="http://www.w3.org/2000/svg">
<path fill-rule="evenodd" clip-rule="evenodd" d="M24.4362 19.7671C25.5568 19.567 26.007 19.9872 26.1671 20.2573C26.3372 20.5275 26.5173 21.1178 25.8469 22.0483C23.8659 24.7397 20.7242 26.3206 17.3724 26.3206C17.2124 26.3206 17.0523 26.3106 16.8922 26.3005C15.8917 26.2605 14.9211 26.0704 14.0007 25.7503C10.1586 24.4195 7.25708 20.8877 6.95692 16.7555C6.65676 12.3631 9.1881 8.26097 13.2803 6.54006C14.3408 6.09982 14.8811 6.41999 15.1112 6.65012C15.3314 6.87023 15.6415 7.40051 15.2013 8.41105C14.7511 9.4516 14.5309 10.5522 14.5309 11.6928C14.5409 13.7339 15.3414 15.6249 16.6421 17.0756C18.1128 18.7265 20.224 19.7971 22.5552 19.8971C23.1855 19.9272 23.8159 19.8771 24.4362 19.7671ZM14.5 19C16.5 22.2 20 22 22.5552 22.0483C25.1104 22.0966 19 24 17.2538 24.0598C16.1936 24.0598 16.5425 24.0598 16 24C15.006 23.8904 14.0007 23.5 13.2803 21.5C12.5599 19.5 12 15 14.5 19Z" fill="#0D005B"/>
</svg>
