<svg width="33" height="33" viewBox="0 0 33 33" fill="none" xmlns="http://www.w3.org/2000/svg">
<path d="M18.3706 4.32056C16.3308 4.32056 14.6783 5.97305 14.6783 8.01286H9.13982V12.6282C7.1 12.6282 5.44751 14.2807 5.44751 16.3206C5.44751 18.3604 7.1 20.0129 9.13982 20.0129V24.6282H14.6783C14.6783 26.6681 16.3308 28.3206 18.3706 28.3206C20.4104 28.3206 22.0629 26.6681 22.0629 24.6282H27.6014V18.1667H25.7552C24.6566 18.1667 23.909 17.4192 23.909 16.3206C23.909 15.2219 24.6566 14.4744 25.7552 14.4744H27.6014V8.01286H22.0629C22.0629 5.97305 20.4104 4.32056 18.3706 4.32056ZM18.3706 6.16671C19.4692 6.16671 20.2167 6.91422 20.2167 8.01286V9.85902H25.7552V12.6282C23.7154 12.6282 22.0629 14.2807 22.0629 16.3206C22.0629 18.3604 23.7154 20.0129 25.7552 20.0129V22.7821H20.2167V24.6282C20.2167 25.7269 19.4692 26.4744 18.3706 26.4744C17.2719 26.4744 16.5244 25.7269 16.5244 24.6282V22.7821H10.986V18.1667H9.13982C8.04117 18.1667 7.29366 17.4192 7.29366 16.3206C7.29366 15.2219 8.04117 14.4744 9.13982 14.4744H10.986V9.85902H16.5244V8.01286C16.5244 6.91422 17.2719 6.16671 18.3706 6.16671Z" fill="white"/>
<path d="M20.2167 9.85902V12.6282V14.4744V18.5V20.0129V22.7821H25.7552V20.0129C23.7154 20.0129 22.0629 18.3604 22.0629 16.3206C22.0629 14.2807 23.7154 12.6282 25.7552 12.6282V9.85902H20.2167Z" fill="white"/>
<path fill-rule="evenodd" clip-rule="evenodd" d="M18.3706 14.4744V12.6282H20.2167V14.4744L18.3706 14.4744ZM18.3706 18.5V20.0129H20.2167V18.5H18.3706Z" fill="white"/>
<path d="M20.2167 8.01286C20.2167 6.91422 19.4692 6.16671 18.3706 6.16671V12.6282H20.2167V9.85902V8.01286Z" fill="white"/>
<path d="M20.2167 22.7821V20.0129H18.3706V26.4744C19.4692 26.4744 20.2167 25.7269 20.2167 24.6282V22.7821Z" fill="white"/>
<path d="M14.8757 16.3206H18.3706V14.4744L16.5244 14.4744C15.9749 14.4744 14.8757 14.8436 14.8757 16.3206Z" fill="white"/>
<path d="M18.3706 16.3206H14.8757C14.8757 17.7975 15.9749 18.3889 16.5244 18.5H18.3706V16.3206Z" fill="white"/>
<path d="M18.3706 16.3206V18.5H20.2167V14.4744L18.3706 14.4744V16.3206Z" fill="white"/>
</svg>
