<svg width="32" height="32" viewBox="0 0 32 32" fill="none" xmlns="http://www.w3.org/2000/svg">
<path d="M18.1361 7.36144L19.1312 7.26194L19.1312 7.26194L18.1361 7.36144ZM17.9838 6.54161L17.095 7L17.095 7L17.9838 6.54161ZM18.4311 8.81793L19.2261 8.21141L19.2261 8.2114L18.4311 8.81793ZM19.3595 9.20248L19.2261 8.21141L19.2261 8.21141L19.3595 9.20248ZM20.5979 8.38113L21.2311 9.15509L21.2311 9.15509L20.5979 8.38113ZM21.2853 7.90918L21.5896 8.86175L21.5896 8.86175L21.2853 7.90918ZM21.9872 7.94419L22.3848 7.02663L22.3848 7.02663L21.9872 7.94419ZM22.6243 8.4822L21.9172 9.1893L21.9172 9.18931L22.6243 8.4822ZM23.5178 9.37567L24.2249 8.66856L24.2249 8.66856L23.5178 9.37567ZM24.0558 10.0128L24.9733 9.61517L24.9733 9.61516L24.0558 10.0128ZM24.0908 10.7146L25.0434 11.019L25.0434 11.0189L24.0908 10.7146ZM23.6188 11.4021L22.8449 10.7689L22.8449 10.7689L23.6188 11.4021ZM22.7975 12.6406L21.8064 12.5072L21.8064 12.5072L22.7975 12.6406ZM23.182 13.5689L22.5755 14.364L22.5755 14.364L23.182 13.5689ZM24.6385 13.8639L24.738 12.8688L24.738 12.8688L24.6385 13.8639ZM25.4584 14.0162L25.9168 13.1275L25.9168 13.1275L25.4584 14.0162ZM25.9299 14.5373L26.8599 14.1696L26.8599 14.1696L25.9299 14.5373ZM25.93 17.4626L25 17.095L25 17.095L25.93 17.4626ZM25.4583 17.9838L25.9166 18.8726L25.9166 18.8726L25.4583 17.9838ZM24.6386 18.1361L24.5391 17.1411L24.5065 17.1444L24.4742 17.1497L24.6386 18.1361ZM24.6386 18.1361L24.7381 19.1312L24.7707 19.1279L24.803 19.1225L24.6386 18.1361ZM23.1825 18.4309L22.5762 17.6357L22.5762 17.6357L23.1825 18.4309ZM22.7979 19.3596L21.8068 19.4931L21.8068 19.4931L22.7979 19.3596ZM23.619 20.5976L22.845 21.2308L22.845 21.2308L23.619 20.5976ZM24.0908 21.2848L23.1383 21.5892L23.1383 21.5892L24.0908 21.2848ZM24.0558 21.9869L23.1383 21.5892L23.1383 21.5892L24.0558 21.9869ZM23.5179 22.6238L24.225 23.3309L24.225 23.3309L23.5179 22.6238ZM22.6243 23.5174L21.9172 22.8102L21.9172 22.8103L22.6243 23.5174ZM21.9873 24.0554L22.3849 24.9729L22.3849 24.9729L21.9873 24.0554ZM21.2854 24.0904L20.981 25.0429L20.981 25.0429L21.2854 24.0904ZM20.5979 23.6184L21.2312 22.8444L21.2226 22.8376L20.5979 23.6184ZM20.5979 23.6184L19.9646 24.3924L19.9732 24.3993L20.5979 23.6184ZM19.3595 22.7971L19.4928 21.806L19.4928 21.806L19.3595 22.7971ZM18.4311 23.1816L19.2262 23.7882L19.2262 23.7881L18.4311 23.1816ZM18.1362 24.6383L17.1411 24.5388L17.1411 24.5388L18.1362 24.6383ZM17.9837 25.4585L17.095 25L17.095 25L17.9837 25.4585ZM17.4628 25.9299L17.095 25L17.095 25L17.4628 25.9299ZM14.5373 25.9299L14.905 25L14.905 25L14.5373 25.9299ZM14.0162 25.4584L14.905 25L14.905 25L14.0162 25.4584ZM13.8639 24.6385L12.8688 24.7381L12.8688 24.7381L13.8639 24.6385ZM13.5689 23.182L12.7739 23.7885L12.7739 23.7885L13.5689 23.182ZM12.6406 22.7975L12.5073 21.8064L12.5073 21.8064L12.6406 22.7975ZM11.4021 23.6189L10.7688 22.8449L10.753 22.8579L10.7377 22.8714L11.4021 23.6189ZM11.4021 23.6189L12.0353 24.3928L12.0511 24.3799L12.0664 24.3663L11.4021 23.6189ZM10.7146 24.0908L11.0189 25.0434L11.0189 25.0434L10.7146 24.0908ZM10.0127 24.0558L9.61515 24.9734L9.61515 24.9734L10.0127 24.0558ZM9.37561 23.5178L10.0827 22.8107L10.0827 22.8107L9.37561 23.5178ZM8.48217 22.6243L7.77506 23.3315L7.77506 23.3315L8.48217 22.6243ZM7.94414 21.9873L8.86171 21.5897L8.86171 21.5897L7.94414 21.9873ZM7.90913 21.2854L8.86171 21.5897L8.86171 21.5897L7.90913 21.2854ZM8.3811 20.5979L9.15506 21.2311L9.15506 21.2311L8.3811 20.5979ZM9.20247 19.3594L10.1935 19.4928L10.1935 19.4928L9.20247 19.3594ZM8.81792 18.4311L9.42445 17.636L9.42445 17.636L8.81792 18.4311ZM7.36143 18.1361L7.26193 19.1312L7.26193 19.1312L7.36143 18.1361ZM6.54161 17.9838L7 17.095L7 17.095L6.54161 17.9838ZM6.07005 17.4627L5.14009 17.8304L5.14009 17.8304L6.07005 17.4627ZM6.07008 14.5372L5.14017 14.1694L5.14017 14.1694L6.07008 14.5372ZM6.54152 14.0163L6.08305 13.1276L6.08305 13.1276L6.54152 14.0163ZM7.36155 13.8638V12.8638H7.31167L7.26205 12.8688L7.36155 13.8638ZM7.36156 13.8638V14.8638H7.41143L7.46106 14.8589L7.36156 13.8638ZM8.81842 13.5688L8.21178 12.7738L8.21177 12.7738L8.81842 13.5688ZM9.20287 12.6407L10.194 12.5075L10.194 12.5075L9.20287 12.6407ZM8.38128 11.4018L9.15523 10.7686L9.15523 10.7686L8.38128 11.4018ZM7.90914 10.7141L8.86175 10.4099L8.86175 10.4099L7.90914 10.7141ZM7.94413 10.0124L7.02651 9.61498L7.02651 9.61498L7.94413 10.0124ZM8.48233 9.37509L9.18944 10.0822L9.18944 10.0822L8.48233 9.37509ZM9.37565 8.48177L8.66855 7.77466L8.66855 7.77466L9.37565 8.48177ZM10.0128 7.94373L9.6152 7.02615L9.6152 7.02616L10.0128 7.94373ZM10.7146 7.90872L11.0189 6.95614L11.0189 6.95614L10.7146 7.90872ZM11.4022 8.38076L12.0354 7.60681L12.0354 7.60681L11.4022 8.38076ZM12.6404 9.20207L12.7739 8.21101L12.7739 8.21101L12.6404 9.20207ZM13.5691 8.81742L12.7739 8.21101L12.7739 8.21101L13.5691 8.81742ZM13.8639 7.36131L14.8589 7.46081L14.8589 7.46081L13.8639 7.36131ZM14.0162 6.5417L13.1274 6.08341L13.1274 6.08341L14.0162 6.5417ZM14.5374 6.07001L14.905 7L14.905 7L14.5374 6.07001ZM17.4627 6.07005L17.8304 5.1401L17.8304 5.1401L17.4627 6.07005ZM19.1312 7.26194C19.1108 7.05831 19.0912 6.85693 19.0626 6.6868C19.0324 6.50684 18.9828 6.29705 18.8725 6.08322L17.095 7C17.0721 6.95549 17.0769 6.93878 17.0902 7.01798C17.1052 7.10701 17.1181 7.23089 17.1411 7.46094L19.1312 7.26194ZM19.2261 8.2114C19.2894 8.29433 19.2693 8.33101 19.2342 8.13595C19.2008 7.95045 19.1739 7.68915 19.1312 7.26194L17.1411 7.46094C17.1805 7.85459 17.2152 8.20895 17.2658 8.49017C17.3147 8.76184 17.4009 9.11633 17.636 9.42445L19.2261 8.2114ZM19.2261 8.21141L19.2261 8.21141L17.636 9.42444C18.0718 9.99575 18.7806 10.2894 19.4928 10.1936L19.2261 8.21141ZM19.9646 7.60717C19.6323 7.87905 19.4286 8.04481 19.2738 8.15238C19.1111 8.26548 19.1228 8.22531 19.2261 8.21141L19.4928 10.1936C19.8768 10.1419 20.1885 9.95223 20.4152 9.7947C20.6498 9.63163 20.9249 9.4056 21.2311 9.15509L19.9646 7.60717ZM20.981 6.95661C20.7518 7.02983 20.5684 7.14308 20.4198 7.24897C20.2793 7.34907 20.123 7.47759 19.9646 7.60717L21.2311 9.15509C21.41 9.00869 21.5068 8.93022 21.5803 8.87784C21.6457 8.83124 21.6373 8.84651 21.5896 8.86175L20.981 6.95661ZM22.3848 7.02663C21.9408 6.83421 21.442 6.80934 20.981 6.95661L21.5896 8.86175L21.5896 8.86175L22.3848 7.02663ZM23.3314 7.77509C23.1867 7.6304 23.044 7.48696 22.9142 7.37338C22.7768 7.25323 22.6056 7.12228 22.3848 7.02663L21.5896 8.86175C21.5437 8.84184 21.5369 8.82581 21.5973 8.87869C21.6653 8.93813 21.7537 9.02583 21.9172 9.1893L23.3314 7.77509ZM24.2249 8.66856L23.3314 7.77509L21.9172 9.18931L22.8107 10.0828L24.2249 8.66856ZM24.9733 9.61516C24.8777 9.39441 24.7467 9.22316 24.6266 9.08581C24.513 8.95597 24.3696 8.81326 24.2249 8.66856L22.8107 10.0828C22.9741 10.2463 23.0618 10.3347 23.1213 10.4026C23.1742 10.4631 23.1581 10.4563 23.1382 10.4103L24.9733 9.61516ZM25.0434 11.0189C25.1906 10.558 25.1658 10.0592 24.9733 9.61517L23.1382 10.4103L23.1382 10.4103L25.0434 11.0189ZM24.3928 12.0353C24.5224 11.877 24.6509 11.7207 24.751 11.5802C24.8569 11.4316 24.9701 11.2481 25.0434 11.019L23.1382 10.4103C23.1535 10.3626 23.1687 10.3543 23.1221 10.4197C23.0697 10.4932 22.9913 10.5899 22.8449 10.7689L24.3928 12.0353ZM23.7885 12.7739C23.7746 12.8772 23.7345 12.8889 23.8476 12.7262C23.9551 12.5714 24.1209 12.3676 24.3928 12.0353L22.8449 10.7689C22.5943 11.0751 22.3683 11.3502 22.2052 11.5848C22.0477 11.8115 21.8581 12.1232 21.8064 12.5072L23.7885 12.7739ZM23.7885 12.7739L23.7885 12.7739L21.8064 12.5072C21.7106 13.2194 22.0042 13.9282 22.5755 14.364L23.7885 12.7739ZM24.738 12.8688C24.3108 12.8261 24.0495 12.7992 23.864 12.7658C23.6689 12.7307 23.7056 12.7106 23.7885 12.7739L22.5755 14.364C22.8836 14.599 23.2381 14.6853 23.5098 14.7342C23.791 14.7848 24.1454 14.8195 24.539 14.8589L24.738 12.8688ZM25.9168 13.1275C25.703 13.0172 25.4932 12.9676 25.3132 12.9374C25.1431 12.9088 24.9417 12.8892 24.738 12.8688L24.539 14.8589C24.7691 14.8819 24.893 14.8948 24.982 14.9098C25.0612 14.9231 25.0445 14.9279 25 14.905L25.9168 13.1275ZM26.8599 14.1696C26.682 13.7196 26.3469 13.3493 25.9168 13.1275L25 14.905L25 14.905L26.8599 14.1696ZM27 15.3682C27 15.1636 27.0005 14.9613 26.989 14.7891C26.9769 14.607 26.9484 14.3933 26.8599 14.1696L25 14.905C24.9816 14.8584 24.9881 14.8423 24.9935 14.9224C24.9995 15.0125 25 15.137 25 15.3682H27ZM27 16.6319V15.3682H25V16.6319H27ZM26.86 17.8302C26.9484 17.6065 26.9769 17.3929 26.989 17.2108C27.0005 17.0388 27 16.8365 27 16.6319H25C25 16.863 24.9995 16.9875 24.9935 17.0776C24.9881 17.1577 24.9816 17.1416 25 17.095L26.86 17.8302ZM25.9166 18.8726C26.3469 18.6507 26.682 18.2804 26.86 17.8302L25 17.095L25 17.095L25.9166 18.8726ZM24.7381 19.1312C24.9417 19.1108 25.1431 19.0912 25.3132 19.0626C25.4931 19.0324 25.7028 18.9828 25.9166 18.8726L25 17.095C25.0445 17.0721 25.0612 17.077 24.982 17.0902C24.893 17.1052 24.7691 17.1181 24.5391 17.1411L24.7381 19.1312ZM24.803 19.1225L24.803 19.1225L24.4742 17.1497L24.4742 17.1497L24.803 19.1225ZM23.7889 19.2261C23.706 19.2893 23.6693 19.2692 23.8644 19.2341C24.0498 19.2007 24.311 19.1739 24.7381 19.1312L24.5391 17.1411C24.1456 17.1805 23.7913 17.2151 23.5102 17.2657C23.2386 17.3146 22.8842 17.4008 22.5762 17.6357L23.7889 19.2261ZM23.7889 19.2261L23.7889 19.2261L22.5762 17.6357C22.0046 18.0716 21.7108 18.7807 21.8068 19.4931L23.7889 19.2261ZM24.3929 19.9644C24.1212 19.6322 23.9555 19.4285 23.8479 19.2738C23.7348 19.1111 23.775 19.1228 23.7889 19.2261L21.8068 19.4931C21.8585 19.877 22.0481 20.1886 22.2056 20.4152C22.3686 20.6497 22.5946 20.9247 22.845 21.2308L24.3929 19.9644ZM25.0433 20.9803C24.9701 20.7513 24.8569 20.5679 24.751 20.4193C24.651 20.2789 24.5225 20.1227 24.3929 19.9643L22.845 21.2308C22.9914 21.4097 23.0698 21.5064 23.1222 21.5799C23.1688 21.6453 23.1535 21.6369 23.1383 21.5892L25.0433 20.9803ZM24.9733 22.3846C25.1658 21.9404 25.1907 21.4415 25.0433 20.9803L23.1383 21.5892L23.1383 21.5892L24.9733 22.3846ZM24.225 23.3309C24.3697 23.1862 24.5131 23.0436 24.6266 22.9138C24.7467 22.7765 24.8776 22.6053 24.9733 22.3846L23.1383 21.5892C23.1582 21.5433 23.1742 21.5365 23.1213 21.5969C23.0619 21.6648 22.9742 21.7532 22.8108 21.9167L24.225 23.3309ZM23.3314 24.2245L24.225 23.3309L22.8108 21.9167L21.9172 22.8102L23.3314 24.2245ZM22.3849 24.9729C22.6056 24.8773 22.7769 24.7463 22.9142 24.6262C23.044 24.5126 23.1867 24.3692 23.3314 24.2245L21.9172 22.8103C21.7537 22.9737 21.6653 23.0614 21.5974 23.1209C21.5369 23.1737 21.5437 23.1577 21.5897 23.1378L22.3849 24.9729ZM20.981 25.0429C21.442 25.1902 21.9408 25.1653 22.3849 24.9729L21.5897 23.1378L21.5897 23.1378L20.981 25.0429ZM19.9647 24.3924C20.1231 24.522 20.2793 24.6505 20.4198 24.7506C20.5684 24.8565 20.7519 24.9697 20.981 25.0429L21.5897 23.1378C21.6374 23.153 21.6457 23.1683 21.5803 23.1217C21.5068 23.0693 21.4101 22.9909 21.2312 22.8445L19.9647 24.3924ZM19.9732 24.3993L19.9732 24.3993L21.2226 22.8376L21.2226 22.8375L19.9732 24.3993ZM19.2262 23.7881C19.1228 23.7742 19.1111 23.7341 19.2738 23.8472C19.4286 23.9547 19.6324 24.1205 19.9647 24.3924L21.2311 22.8445C20.925 22.5939 20.6499 22.3679 20.4152 22.2048C20.1886 22.0473 19.8769 21.8577 19.4928 21.806L19.2262 23.7881ZM19.2262 23.7881L19.2262 23.7881L19.4928 21.806C18.7807 21.7102 18.0719 22.0038 17.636 22.5751L19.2262 23.7881ZM19.1312 24.7378C19.1739 24.3105 19.2008 24.0492 19.2342 23.8636C19.2693 23.6685 19.2894 23.7052 19.2262 23.7882L17.636 22.5751C17.401 22.8832 17.3147 23.2378 17.2658 23.5094C17.2152 23.7907 17.1805 24.1451 17.1411 24.5388L19.1312 24.7378ZM18.8724 25.917C18.9828 25.7031 19.0324 25.4932 19.0626 25.3132C19.0912 25.143 19.1108 24.9415 19.1312 24.7378L17.1411 24.5388C17.1181 24.769 17.1052 24.8929 17.0902 24.982C17.0769 25.0612 17.072 25.0445 17.095 25L18.8724 25.917ZM17.8306 26.8598C18.2805 26.6819 18.6506 26.3469 18.8724 25.917L17.095 25L17.095 25L17.8306 26.8598ZM16.6316 27C16.8363 27 17.0387 27.0005 17.2109 26.989C17.393 26.9768 17.6068 26.9483 17.8306 26.8598L17.095 25C17.1416 24.9816 17.1577 24.9881 17.0776 24.9935C16.9875 24.9995 16.8629 25 16.6316 25V27ZM15.3682 27H16.6316V25H15.3682V27ZM14.1696 26.8599C14.3933 26.9484 14.607 26.9769 14.7891 26.989C14.9613 27.0005 15.1636 27 15.3682 27V25C15.137 25 15.0125 24.9995 14.9224 24.9935C14.8423 24.9881 14.8584 24.9816 14.905 25L14.1696 26.8599ZM13.1275 25.9168C13.3493 26.3469 13.7196 26.682 14.1696 26.8599L14.905 25L14.905 25L13.1275 25.9168ZM12.8688 24.7381C12.8892 24.9417 12.9088 25.1431 12.9374 25.3132C12.9676 25.4932 13.0172 25.703 13.1275 25.9168L14.905 25C14.9279 25.0445 14.9231 25.0612 14.9098 24.982C14.8948 24.893 14.8819 24.7691 14.8589 24.539L12.8688 24.7381ZM12.7739 23.7885C12.7106 23.7056 12.7307 23.6689 12.7658 23.864C12.7992 24.0495 12.8261 24.3108 12.8688 24.7381L14.8589 24.539C14.8195 24.1454 14.7848 23.791 14.7342 23.5098C14.6853 23.2381 14.599 22.8836 14.364 22.5755L12.7739 23.7885ZM12.7739 23.7885L12.7739 23.7885L14.364 22.5755C13.9282 22.0042 13.2194 21.7106 12.5073 21.8064L12.7739 23.7885ZM12.0353 24.3928C12.3676 24.1209 12.5714 23.9551 12.7262 23.8476C12.8889 23.7345 12.8772 23.7746 12.7739 23.7885L12.5073 21.8064C12.1232 21.858 11.8115 22.0477 11.5848 22.2052C11.3502 22.3683 11.075 22.5944 10.7688 22.8449L12.0353 24.3928ZM12.0664 24.3663L12.0664 24.3663L10.7377 22.8714L10.7377 22.8715L12.0664 24.3663ZM11.0189 25.0434C11.2481 24.9702 11.4315 24.8569 11.5801 24.751C11.7206 24.6509 11.8769 24.5224 12.0353 24.3928L10.7688 22.8449C10.5899 22.9913 10.4932 23.0698 10.4196 23.1222C10.3542 23.1688 10.3626 23.1535 10.4103 23.1383L11.0189 25.0434ZM9.61515 24.9734C10.0592 25.1658 10.5579 25.1907 11.0189 25.0434L10.4103 23.1383L10.4103 23.1383L9.61515 24.9734ZM8.6685 24.2249C8.81321 24.3696 8.95592 24.513 9.08577 24.6266C9.22313 24.7468 9.39438 24.8777 9.61515 24.9734L10.4103 23.1383C10.4562 23.1582 10.463 23.1742 10.4026 23.1213C10.3346 23.0619 10.2462 22.9742 10.0827 22.8107L8.6685 24.2249ZM7.77506 23.3315L8.6685 24.2249L10.0827 22.8107L9.18927 21.9172L7.77506 23.3315ZM7.02657 22.3848C7.12223 22.6056 7.25318 22.7768 7.37333 22.9142C7.48692 23.044 7.63036 23.1868 7.77506 23.3315L9.18928 21.9172C9.02579 21.7538 8.93809 21.6653 8.87864 21.5974C8.82577 21.5369 8.8418 21.5437 8.86171 21.5897L7.02657 22.3848ZM6.95656 20.9811C6.8093 21.4421 6.83417 21.9408 7.02657 22.3848L8.86171 21.5897L8.86171 21.5897L6.95656 20.9811ZM7.60715 19.9647C7.47756 20.123 7.34903 20.2793 7.24892 20.4198C7.14303 20.5685 7.02977 20.7519 6.95656 20.9811L8.86171 21.5897C8.84647 21.6374 8.83119 21.6457 8.87779 21.5803C8.93018 21.5068 9.00865 21.4101 9.15506 21.2311L7.60715 19.9647ZM8.2114 19.2261C8.2253 19.1228 8.26548 19.1111 8.15237 19.2738C8.0448 19.4286 7.87903 19.6324 7.60715 19.9647L9.15506 21.2311C9.40558 20.9249 9.63162 20.6498 9.79469 20.4152C9.95222 20.1885 10.1419 19.8768 10.1935 19.4928L8.2114 19.2261ZM8.2114 19.2261L8.2114 19.2261L10.1935 19.4928C10.2893 18.7806 9.99575 18.0718 9.42445 17.636L8.2114 19.2261ZM7.26193 19.1312C7.68915 19.1739 7.95044 19.2008 8.13595 19.2342C8.33101 19.2693 8.29432 19.2894 8.2114 19.2261L9.42445 17.636C9.11633 17.4009 8.76184 17.3147 8.49017 17.2658C8.20894 17.2152 7.85458 17.1805 7.46093 17.1411L7.26193 19.1312ZM6.08323 18.8725C6.29705 18.9828 6.50683 19.0324 6.6868 19.0626C6.85693 19.0912 7.05831 19.1108 7.26193 19.1312L7.46094 17.1411C7.23089 17.1181 7.10701 17.1052 7.01798 17.0902C6.93878 17.0769 6.95549 17.0721 7 17.095L6.08323 18.8725ZM5.14009 17.8304C5.31803 18.2804 5.65311 18.6507 6.08323 18.8725L7 17.095L7 17.095L5.14009 17.8304ZM5 16.6318C5 16.8364 4.99948 17.0387 5.01098 17.2109C5.02314 17.3929 5.05163 17.6066 5.14009 17.8304L7 17.095C7.01841 17.1416 7.01188 17.1577 7.00653 17.0776C7.00052 16.9875 7 16.863 7 16.6318H5ZM5 15.3683V16.6318H7V15.3683H5ZM5.14017 14.1694C5.05166 14.3932 5.02315 14.607 5.01098 14.7891C4.99948 14.9613 5 15.1637 5 15.3683H7C7 15.1371 7.00052 15.0125 7.00654 14.9224C7.01189 14.8423 7.01842 14.8584 7 14.905L5.14017 14.1694ZM6.08305 13.1276C5.65308 13.3494 5.3181 13.7195 5.14017 14.1694L7 14.905L7 14.905L6.08305 13.1276ZM7.26205 12.8688C7.05837 12.8892 6.85694 12.9088 6.68677 12.9374C6.50676 12.9676 6.29692 13.0172 6.08305 13.1276L7 14.905C6.95548 14.928 6.93877 14.9231 7.01798 14.9098C7.10704 14.8948 7.23094 14.8819 7.46105 14.8589L7.26205 12.8688ZM7.36155 12.8638H7.36155V14.8638H7.36155V12.8638ZM7.36156 12.8638H7.36155V14.8638H7.36156V12.8638ZM8.21177 12.7738C8.29471 12.7105 8.33141 12.7307 8.1363 12.7658C7.95075 12.7992 7.68939 12.8261 7.26205 12.8688L7.46106 14.8589C7.85482 14.8195 8.20927 14.7848 8.49056 14.7342C8.76231 14.6853 9.1169 14.5989 9.42506 14.3638L8.21177 12.7738ZM8.21177 12.7738L8.21178 12.7738L9.42506 14.3638C9.99613 13.928 10.2896 13.2194 10.194 12.5075L8.21177 12.7738ZM7.60732 12.0351C7.87929 12.3675 8.04511 12.5713 8.15272 12.7261C8.26586 12.8889 8.22567 12.8772 8.21177 12.7738L10.194 12.5075C10.1423 12.1233 9.95263 11.8115 9.79506 11.5848C9.63195 11.3501 9.40584 11.0749 9.15523 10.7686L7.60732 12.0351ZM6.95652 11.0182C7.02973 11.2475 7.14303 11.431 7.24896 11.5797C7.3491 11.7203 7.47768 11.8766 7.60732 12.0351L9.15523 10.7686C9.00876 10.5896 8.93026 10.4928 8.87785 10.4192C8.83123 10.3538 8.84651 10.3622 8.86175 10.4099L6.95652 11.0182ZM7.02651 9.61498C6.83424 10.0589 6.80938 10.5574 6.95652 11.0182L8.86175 10.4099L8.86175 10.4099L7.02651 9.61498ZM7.77523 8.66798C7.63047 8.81274 7.48698 8.9555 7.37335 9.08539C7.25316 9.2228 7.12217 9.39412 7.02651 9.61498L8.86175 10.4099C8.84184 10.4559 8.8258 10.4627 8.8787 10.4022C8.93816 10.3342 9.02589 10.2457 9.18944 10.0822L7.77523 8.66798ZM8.66855 7.77466L7.77523 8.66798L9.18944 10.0822L10.0828 9.18888L8.66855 7.77466ZM8.66855 7.77466L8.66855 7.77466L10.0828 9.18888L10.0828 9.18887L8.66855 7.77466ZM9.6152 7.02616C9.39443 7.12181 9.22317 7.25276 9.08582 7.37292C8.95597 7.48651 8.81325 7.62995 8.66855 7.77466L10.0828 9.18887C10.2463 9.02538 10.3347 8.93768 10.4026 8.87824C10.4631 8.82536 10.4563 8.84139 10.4103 8.8613L9.6152 7.02616ZM11.0189 6.95614C10.558 6.80889 10.0592 6.83377 9.6152 7.02615L10.4103 8.8613L10.4103 8.8613L11.0189 6.95614ZM12.0354 7.60681C11.877 7.47719 11.7207 7.34865 11.5802 7.24853C11.4316 7.14264 11.2481 7.02936 11.0189 6.95614L10.4103 8.8613C10.3626 8.84606 10.3543 8.83078 10.4197 8.8774C10.4932 8.9298 10.59 9.00829 10.769 9.15472L12.0354 7.60681ZM12.7739 8.21101C12.8773 8.22493 12.889 8.26509 12.7262 8.15198C12.5714 8.04441 12.3677 7.87865 12.0354 7.60681L10.769 9.15472C11.0751 9.40521 11.3502 9.63122 11.5848 9.79427C11.8114 9.95176 12.123 10.1414 12.507 10.1931L12.7739 8.21101ZM12.7739 8.21101L12.7739 8.21101L12.507 10.1931C13.2193 10.2891 13.9284 9.99536 14.3642 9.42382L12.7739 8.21101ZM12.8688 7.2618C12.8261 7.6889 12.7993 7.95012 12.7659 8.13558C12.7308 8.33059 12.7107 8.29392 12.7739 8.21101L14.3642 9.42382C14.5992 9.11576 14.6854 8.76136 14.7343 8.48976C14.7849 8.20861 14.8196 7.85435 14.8589 7.46081L12.8688 7.2618ZM13.1274 6.08341C13.0172 6.29719 12.9676 6.50692 12.9374 6.68683C12.9088 6.85692 12.8892 7.05824 12.8688 7.2618L14.8589 7.46081C14.8819 7.23082 14.8948 7.10698 14.9098 7.01798C14.923 6.9388 14.9279 6.9555 14.905 7L13.1274 6.08341ZM14.1698 5.14002C13.7196 5.31796 13.3492 5.65315 13.1274 6.08341L14.905 7L14.905 7L14.1698 5.14002ZM15.3681 5C15.1635 5 14.9612 4.99948 14.7892 5.01097C14.6071 5.02313 14.3935 5.05161 14.1698 5.14002L14.905 7C14.8584 7.0184 14.8423 7.01188 14.9224 7.00653C15.0125 7.00052 15.137 7 15.3681 7V5ZM16.6318 5H15.3681V7H16.6318V5ZM17.8304 5.1401C17.6066 5.05163 17.393 5.02314 17.2109 5.01098C17.0387 4.99948 16.8364 5 16.6318 5V7C16.863 7 16.9875 7.00052 17.0776 7.00653C17.1577 7.01188 17.1416 7.01841 17.095 7L17.8304 5.1401ZM18.8725 6.08322C18.6507 5.65312 18.2804 5.31803 17.8304 5.1401L17.095 7L17.095 7L18.8725 6.08322ZM19 16C19 17.6569 17.6569 19 16 19V21C18.7614 21 21 18.7614 21 16H19ZM16 13C17.6569 13 19 14.3431 19 16H21C21 13.2386 18.7614 11 16 11V13ZM13 16C13 14.3431 14.3431 13 16 13V11C13.2386 11 11 13.2386 11 16H13ZM16 19C14.3431 19 13 17.6569 13 16H11C11 18.7614 13.2386 21 16 21V19Z" fill="#0D005B"/>
</svg>
