<svg width="33" height="33" viewBox="0 0 33 33" fill="none" xmlns="http://www.w3.org/2000/svg">
<path d="M22.103 4.32056C18.8043 4.32056 16.0702 6.83196 15.6953 10.0355C14.717 9.33432 13.5595 8.93866 12.4049 8.93866C11.0195 8.93866 9.63407 9.48129 8.71045 10.4973L6.11277 13.095C4.0808 15.1269 4.0808 18.4462 6.11277 20.5705L6.6323 21.09L5.73755 21.9559L5.65096 22.0425C4.20383 23.4897 4.19931 25.8614 5.67982 27.2379C7.12435 28.6633 9.4737 28.6995 10.8463 27.2379C10.856 27.2276 10.8657 27.2194 10.8752 27.209L13.6749 24.4093C13.7436 24.361 13.8129 24.3184 13.877 24.265H13.9635C15.0719 24.265 16.0936 23.7108 16.6478 22.8796C17.4791 22.6948 18.2353 22.233 18.6971 21.4941C20.1749 21.217 21.2659 19.9182 21.2659 18.348C21.2659 17.9162 21.1603 17.5104 20.9773 17.1069C21.3093 17.1686 21.6261 17.2512 22.0164 17.2512C25.5681 17.2512 28.4817 14.3376 28.4817 10.7859C28.4817 9.73913 28.2706 8.72203 27.7024 7.813L27.0674 6.83165L26.2593 7.63982L22.7668 11.1323L21.5257 9.80456L24.9604 6.36984L25.9418 5.38849L24.6718 4.86896C23.9277 4.55005 23.071 4.32056 22.103 4.32056ZM22.103 6.1678C22.2344 6.1678 22.3238 6.24398 22.4493 6.25439L19.5919 9.11184L18.9857 9.74683L19.5919 10.4107L22.0741 13.0661L22.7379 13.7877L23.4018 13.095L26.4324 10.0643C26.475 10.3166 26.6345 10.4945 26.6345 10.7859C26.6345 13.3301 24.5605 15.404 22.0164 15.404C21.6777 15.404 21.2659 15.3232 20.8041 15.2308L20.3134 15.1442L19.9671 15.4906L19.8516 15.6349L17.3117 13.095L17.9467 12.46L17.6869 12.1425L17.6292 11.9404C17.5544 11.6413 17.4849 11.1246 17.4849 10.7859C17.4849 8.24175 19.5588 6.1678 22.103 6.1678ZM12.4049 10.7859C13.3286 10.7859 14.2637 11.1438 15.0026 11.8827L15.349 12.3445L14.6274 13.095L18.7837 17.2512C19.1531 17.436 19.3321 17.8862 19.3321 18.348C19.3321 19.0869 18.6856 19.7335 17.9467 19.7335C17.6696 19.7335 17.4733 19.6527 17.1962 19.5603V19.7335C17.1962 20.4724 16.5497 21.1189 15.8108 21.1189C15.5337 21.1189 15.3663 21.0381 15.0892 20.9457V21.1189C15.0892 21.8578 14.4427 22.5043 13.7038 22.5043C13.4267 22.5043 13.1381 22.4235 12.9533 22.3312C12.9072 22.4697 12.8379 22.5938 12.7513 22.7064C12.6647 22.819 12.5781 22.9142 12.4627 22.995C12.2318 23.1567 11.9316 23.2548 11.6545 23.2548C11.1927 23.2548 10.8348 23.0758 10.5577 22.7064L7.23843 19.3871C5.94536 18.0941 5.94536 15.86 7.23843 14.567L9.80725 11.9982C10.6385 11.1669 11.5737 10.7859 12.4049 10.7859ZM7.93115 22.3889L9.46089 23.8898C9.82342 24.3041 10.2396 24.6025 10.702 24.7845L9.54748 25.9391H9.51862V25.9679C8.86062 26.6857 7.71345 26.7027 6.9498 25.9391V25.9102H6.92094C6.20312 25.2522 6.18615 24.105 6.9498 23.3414L7.93115 22.3889Z" fill="#0D005B"/>
<path d="M22.103 4.32056C18.8043 4.32056 16.0702 6.83196 15.6953 10.0355C14.717 9.33432 13.5595 8.93866 12.4049 8.93866C11.0195 8.93866 9.63407 9.48129 8.71045 10.4973L6.11277 13.095C4.0808 15.1269 4.0808 18.4462 6.11277 20.5705L6.6323 21.09L5.73755 21.9559L5.65096 22.0425C4.20383 23.4897 4.19931 25.8614 5.67982 27.2379C7.12435 28.6633 9.4737 28.6995 10.8463 27.2379C10.856 27.2276 10.8657 27.2194 10.8752 27.209L13.6749 24.4093C13.7436 24.361 13.8129 24.3184 13.877 24.265H13.9635C15.0719 24.265 16.0936 23.7108 16.6478 22.8796C17.4791 22.6948 18.2353 22.233 18.6971 21.4941C20.1749 21.217 21.2659 19.9182 21.2659 18.348C21.2659 17.9162 21.1603 17.5104 20.9773 17.1069C21.3093 17.1686 21.6261 17.2512 22.0164 17.2512C25.5681 17.2512 28.4817 14.3376 28.4817 10.7859C28.4817 9.73913 28.2706 8.72203 27.7024 7.813L27.0674 6.83165L26.2593 7.63982L22.7668 11.1323L21.5257 9.80456L24.9604 6.36984L25.9418 5.38849L24.6718 4.86896C23.9277 4.55005 23.071 4.32056 22.103 4.32056ZM22.103 6.1678C22.2344 6.1678 22.3238 6.24398 22.4493 6.25439L19.5919 9.11184L18.9857 9.74683L19.5919 10.4107L22.0741 13.0661L22.7379 13.7877L23.4018 13.095L26.4324 10.0643C26.475 10.3166 26.6345 10.4945 26.6345 10.7859C26.6345 13.3301 24.5605 15.404 22.0164 15.404C21.6777 15.404 21.2659 15.3232 20.8041 15.2308L20.3134 15.1442L19.9671 15.4906L19.8516 15.6349L17.3117 13.095L17.9467 12.46L17.6869 12.1425L17.6292 11.9404C17.5544 11.6413 17.4849 11.1246 17.4849 10.7859C17.4849 8.24175 19.5588 6.1678 22.103 6.1678ZM12.4049 10.7859C13.3286 10.7859 14.2637 11.1438 15.0026 11.8827L15.349 12.3445L14.6274 13.095L18.7837 17.2512C19.1531 17.436 19.3321 17.8862 19.3321 18.348C19.3321 19.0869 18.6856 19.7335 17.9467 19.7335C17.6696 19.7335 17.4733 19.6527 17.1962 19.5603V19.7335C17.1962 20.4724 16.5497 21.1189 15.8108 21.1189C15.5337 21.1189 15.3663 21.0381 15.0892 20.9457V21.1189C15.0892 21.8578 14.4427 22.5043 13.7038 22.5043C13.4267 22.5043 13.1381 22.4235 12.9533 22.3312C12.9072 22.4697 12.8379 22.5938 12.7513 22.7064C12.6647 22.819 12.5781 22.9142 12.4627 22.995C12.2318 23.1567 11.9316 23.2548 11.6545 23.2548C11.1927 23.2548 10.8348 23.0758 10.5577 22.7064L7.23843 19.3871C5.94536 18.0941 5.94536 15.86 7.23843 14.567L9.80725 11.9982C10.6385 11.1669 11.5737 10.7859 12.4049 10.7859ZM7.93115 22.3889L9.46089 23.8898C9.82342 24.3041 10.2396 24.6025 10.702 24.7845L9.54748 25.9391H9.51862V25.9679C8.86062 26.6857 7.71345 26.7027 6.9498 25.9391V25.9102H6.92094C6.20312 25.2522 6.18615 24.105 6.9498 23.3414L7.93115 22.3889Z" fill="url(#paint0_linear_338_84)"/>
<path d="M22.103 6.1678C22.2344 6.1678 22.3238 6.24398 22.4493 6.25439L19.5919 9.11184L18.9857 9.74683L19.5919 10.4107L22.0741 13.0661L22.7379 13.7877L23.4018 13.095L26.4324 10.0643C26.475 10.3166 26.6345 10.4945 26.6345 10.7859C26.6345 13.3301 24.5605 15.404 22.0164 15.404C21.6777 15.404 21.2659 15.3232 20.8041 15.2308L20.3134 15.1442L19.9671 15.4906L19.8516 15.6349L17.3117 13.095L17.9467 12.46L17.6869 12.1425L17.6292 11.9404C17.5544 11.6413 17.4849 11.1246 17.4849 10.7859C17.4849 8.24175 19.5588 6.1678 22.103 6.1678Z" fill="#0D005B"/>
<path d="M22.103 6.1678C22.2344 6.1678 22.3238 6.24398 22.4493 6.25439L19.5919 9.11184L18.9857 9.74683L19.5919 10.4107L22.0741 13.0661L22.7379 13.7877L23.4018 13.095L26.4324 10.0643C26.475 10.3166 26.6345 10.4945 26.6345 10.7859C26.6345 13.3301 24.5605 15.404 22.0164 15.404C21.6777 15.404 21.2659 15.3232 20.8041 15.2308L20.3134 15.1442L19.9671 15.4906L19.8516 15.6349L17.3117 13.095L17.9467 12.46L17.6869 12.1425L17.6292 11.9404C17.5544 11.6413 17.4849 11.1246 17.4849 10.7859C17.4849 8.24175 19.5588 6.1678 22.103 6.1678Z" fill="url(#paint1_linear_338_84)"/>
<path d="M7.93115 22.3889L9.46089 23.8898C9.82342 24.3041 10.2396 24.6025 10.702 24.7845L9.54748 25.9391H9.51862V25.9679C8.86062 26.6857 7.71345 26.7027 6.9498 25.9391V25.9102H6.92094C6.20312 25.2522 6.18615 24.105 6.9498 23.3414L7.93115 22.3889Z" fill="#0D005B"/>
<path d="M7.93115 22.3889L9.46089 23.8898C9.82342 24.3041 10.2396 24.6025 10.702 24.7845L9.54748 25.9391H9.51862V25.9679C8.86062 26.6857 7.71345 26.7027 6.9498 25.9391V25.9102H6.92094C6.20312 25.2522 6.18615 24.105 6.9498 23.3414L7.93115 22.3889Z" fill="url(#paint2_linear_338_84)"/>
<defs>
<linearGradient id="paint0_linear_338_84" x1="11.1114" y1="16.5" x2="63.7089" y2="52.1247" gradientUnits="userSpaceOnUse">
<stop stop-color="#0D005B"/>
<stop offset="1" stop-color="#2400FF"/>
</linearGradient>
<linearGradient id="paint1_linear_338_84" x1="11.1114" y1="16.5" x2="63.7089" y2="52.1247" gradientUnits="userSpaceOnUse">
<stop stop-color="#0D005B"/>
<stop offset="1" stop-color="#2400FF"/>
</linearGradient>
<linearGradient id="paint2_linear_338_84" x1="11.1114" y1="16.5" x2="63.7089" y2="52.1247" gradientUnits="userSpaceOnUse">
<stop stop-color="#0D005B"/>
<stop offset="1" stop-color="#2400FF"/>
</linearGradient>
</defs>
</svg>
