<svg width="33" height="33" viewBox="0 0 33 33" fill="none" xmlns="http://www.w3.org/2000/svg">
<path fill-rule="evenodd" clip-rule="evenodd" d="M6.52466 6.32056H20.5247V10.8831L11.0872 20.3206H6.52466V6.32056ZM11.5247 9.32056V8.32056H13.5247V9.32056H16.5247V11.3206H15.4622C15.3574 12.4729 15.0672 13.5367 14.5247 14.4456V16.3206C13.9527 16.3206 13.4241 16.2559 12.8997 16.1643C11.7729 16.9159 10.2963 17.3206 8.52466 17.3206V15.3206C9.17931 15.3206 9.75167 15.2689 10.2434 15.1643C9.25854 14.5025 8.52466 13.5125 8.52466 12.3206H10.5247C10.5247 12.7392 10.791 13.1823 11.4934 13.6018C11.7466 13.753 12.0577 13.8965 12.3997 14.0081C12.9804 13.3745 13.333 12.4693 13.4622 11.3206H8.52466V9.32056H11.5247Z" fill="#0D005B"/>
<path fill-rule="evenodd" clip-rule="evenodd" d="M4.52466 5.32056V4.32056H5.52466H21.5247H22.5247V5.32056V10.3206H27.5247H28.5247V11.3206V27.3206V28.3206H27.5247H11.5247H10.5247V27.3206V22.3206H5.52466H4.52466V21.3206V5.32056ZM20.5247 6.32056H6.52466V20.3206H11.0872L20.5247 10.8831V6.32056ZM26.5247 12.3206H21.9622L12.5247 21.7581V26.3206H26.5247V12.3206ZM19.5872 17.0081L20.5247 14.1643L21.4622 17.0081L23.4622 23.0081L23.5247 23.1643V23.3206V24.3206H21.5247V23.4456L21.4934 23.3206H19.5559L19.5247 23.4456V24.3206H17.5247V23.3206V23.1643L17.5872 23.0081L19.5872 17.0081ZM20.8059 21.3206L20.5247 20.4456L20.2434 21.3206H20.8059Z" fill="#0D005B"/>
</svg>
