<svg width="8" height="292" viewBox="0 0 8 292" fill="none" xmlns="http://www.w3.org/2000/svg">
<path fill-rule="evenodd" clip-rule="evenodd" d="M4 1.74846e-07C6.20914 7.8281e-08 8 1.79086 8 4L8 12.1143C8 14.3234 6.20914 16.1143 4 16.1143C1.79086 16.1143 1.10293e-06 14.3234 1.00637e-06 12.1143L6.51683e-07 4C5.55118e-07 1.79086 1.79086 2.7141e-07 4 1.74846e-07ZM4 105.486C6.20914 105.486 8 107.277 8 109.486L8.00001 125.714C8.00001 127.923 6.20914 129.714 4.00001 129.714C1.79087 129.714 6.06855e-06 127.923 5.97198e-06 125.714L5.26261e-06 109.486C5.16605e-06 107.277 1.79087 105.486 4 105.486ZM4.00001 219.086C6.20915 219.086 8.00001 220.877 8.00001 223.086L8.00001 239.314C8.00001 241.523 6.20915 243.314 4.00001 243.314C1.79087 243.314 1.10342e-05 241.523 1.09376e-05 239.314L1.02282e-05 223.086C1.01317e-05 220.877 1.79087 219.086 4.00001 219.086ZM4.00001 275.886C6.20915 275.886 8.00001 277.677 8.00001 279.886L8.00001 288C8.00001 290.209 6.20915 292 4.00001 292C1.79087 292 1.31623e-05 290.209 1.30657e-05 288L1.2711e-05 279.886C1.26145e-05 277.677 1.79087 275.886 4.00001 275.886Z" fill="url(#paint0_linear_293_32)"/>
<path d="M4.00001 61C6.20915 61 8.00001 62.7909 8.00001 65L8.00001 81.2286C8.00001 83.4377 6.20915 85.2286 4.00001 85.2286C1.79087 85.2286 1.03229e-05 83.4377 1.02263e-05 81.2286L9.51696e-06 65C9.4204e-06 62.7909 1.79087 61 4.00001 61Z" fill="url(#paint1_linear_293_32)"/>
<path d="M4 105.486C6.20914 105.486 8 107.277 8 109.486L8.00001 125.714C8.00001 127.923 6.20914 129.714 4.00001 129.714C1.79087 129.714 6.06855e-06 127.923 5.97198e-06 125.714L5.26261e-06 109.486C5.16605e-06 107.277 1.79087 105.486 4 105.486Z" fill="url(#paint2_linear_293_32)"/>
<path d="M3.99997 150C6.20911 150 7.99997 151.791 7.99997 154L7.99997 170.229C7.99997 172.438 6.20911 174.229 3.99997 174.229C1.79083 174.229 -2.96558e-05 172.438 -2.97524e-05 170.229L-3.04617e-05 154C-3.05583e-05 151.791 1.79083 150 3.99997 150Z" fill="url(#paint3_linear_293_32)"/>
<defs>
<linearGradient id="paint0_linear_293_32" x1="2" y1="4" x2="2.00001" y2="288" gradientUnits="userSpaceOnUse">
<stop stop-color="#2400FF"/>
<stop offset="0.625" stop-color="#256DF4"/>
<stop offset="1" stop-color="white" stop-opacity="0"/>
</linearGradient>
<linearGradient id="paint1_linear_293_32" x1="2" y1="4" x2="2.00001" y2="288" gradientUnits="userSpaceOnUse">
<stop stop-color="#2400FF"/>
<stop offset="0.625" stop-color="#256DF4"/>
<stop offset="1" stop-color="white" stop-opacity="0"/>
</linearGradient>
<linearGradient id="paint2_linear_293_32" x1="2" y1="4" x2="2.00001" y2="288" gradientUnits="userSpaceOnUse">
<stop stop-color="#2400FF"/>
<stop offset="0.625" stop-color="#256DF4"/>
<stop offset="1" stop-color="white" stop-opacity="0"/>
</linearGradient>
<linearGradient id="paint3_linear_293_32" x1="2" y1="4" x2="2.00001" y2="288" gradientUnits="userSpaceOnUse">
<stop stop-color="#2400FF"/>
<stop offset="0.625" stop-color="#256DF4"/>
<stop offset="1" stop-color="white" stop-opacity="0"/>
</linearGradient>
</defs>
</svg>
